<svg width="205" height="100" viewBox="0 0 205 100" fill="none" xmlns="http://www.w3.org/2000/svg">
<g opacity="0.2">
<path d="M145.415 24.5508C151.543 20.7305 158.452 18.3535 165.382 17.6924C171.289 17.1161 177.429 17.7815 183.279 19.5949L183.475 17.2058C177.393 15.4069 171.205 14.7724 165.159 15.348C157.88 16.0485 150.639 18.5367 144.208 22.5412C137.776 26.5457 132.323 31.9875 128.415 38.2717C127.312 40.0399 126.343 41.8669 125.497 43.7402C115.455 46.7534 106.527 52.3664 98.3412 58.0692C96.3472 59.4526 94.337 60.8933 92.4003 62.2818C85.3054 67.3423 77.9775 72.5699 70.1032 76.4456C61.2191 80.8182 51.2619 83.5101 41.3051 84.2298C31.0697 84.9716 21.1365 83.7211 11.7801 80.5029C7.94409 79.1744 4.21598 77.515 0.684545 75.568L0.476757 78.097C3.90421 79.9056 7.41095 81.4512 11.0571 82.7041C16.7558 84.6685 22.6742 85.9245 28.7207 86.4642C32.912 86.8383 37.1779 86.8668 41.483 86.5584C51.7183 85.8166 61.9705 83.0454 71.119 78.5438C79.1499 74.5881 86.5626 69.3094 93.7196 64.1957C95.6563 62.8072 97.6656 61.3782 99.6472 60.0054C107.184 54.7612 115.325 49.6062 124.341 46.572C121.631 53.867 120.919 61.5517 122.416 68.6C123.521 73.8289 125.931 78.7517 129.379 82.8396C132.953 87.0796 137.409 90.1188 142.281 91.6219C147.264 93.1702 152.806 92.9722 157.897 91.1021C163.119 89.1733 167.345 85.6176 169.816 81.0953C172.545 76.103 173.154 69.9587 171.525 63.8026C169.985 57.9831 166.508 52.566 161.973 48.9328C157.578 45.4178 152.24 43.1335 146.138 42.1544C140.616 41.2625 134.631 41.5149 128.832 42.8757C128.703 42.9111 128.574 42.9348 128.444 42.9702C129.024 41.8127 129.671 40.673 130.362 39.5608C134.086 33.5536 139.287 28.3711 145.415 24.5508ZM129.35 45.1407C134.866 43.8486 140.549 43.6162 145.787 44.4593C151.502 45.3803 156.472 47.5027 160.553 50.7666C164.699 54.0833 167.89 59.0523 169.297 64.3903C170.766 69.9569 170.231 75.4855 167.8 79.941C163.318 88.1579 152.388 92.3009 142.927 89.3786C138.483 88.0075 134.398 85.2129 131.107 81.3151C127.912 77.5197 125.68 72.965 124.647 68.1183C123.123 60.9736 124.048 53.0849 127.158 45.7081C127.891 45.4918 128.621 45.3104 129.35 45.1407Z" fill="black"/>
<path d="M204.22 24.9781L182.836 4.63317L182.525 13.5906L197.495 22.0965L182.41 16.8977L182.41 16.9063L182.41 16.896L175.809 19.1647L182.236 21.9191L182.015 28.2825L204.22 24.9781Z" fill="black"/>
</g>
</svg>
