<svg width="1280" height="570" viewBox="0 0 1280 570" fill="none" xmlns="http://www.w3.org/2000/svg">
<path d="M0 0H1280V270C1280 435.685 1145.69 570 980 570H0V0Z" fill="url(#paint0_linear_291_2)"/>
<mask id="mask0_291_2" style="mask-type:alpha" maskUnits="userSpaceOnUse" x="0" y="0" width="1280" height="570">
<path d="M0 0H1280V570H0V0Z" fill="url(#paint1_linear_291_2)"/>
</mask>
<g mask="url(#mask0_291_2)">
<path d="M0 442.071C0 355.677 70.0366 285.64 156.431 285.64H170.768C249.244 285.64 312.862 349.258 312.862 427.735V427.735C312.862 506.211 249.244 569.829 170.768 569.829H0V442.071Z" fill="white" fill-opacity="0.03"/>
<path d="M1280 277.417C1280 363.811 1209.96 433.848 1123.57 433.848H1109.23C1030.76 433.848 967.138 370.23 967.138 291.753V291.753C967.138 213.277 1030.76 149.659 1109.23 149.659H1280V277.417Z" fill="white" fill-opacity="0.02"/>
<path d="M0 156.431C0 70.0367 70.0366 0 156.431 0H170.768C249.244 0 312.862 63.618 312.862 142.095V142.095C312.862 220.572 249.244 284.19 170.768 284.19H0V156.431Z" fill="white" fill-opacity="0.02"/>
<path d="M314 0H671V161.848C671 355.148 514.3 511.848 321 511.848H314V0Z" fill="white" fill-opacity="0.02"/>
<path d="M965 570H603V473C603 279.7 759.7 123 953 123H965L965 570Z" fill="white" fill-opacity="0.03"/>
</g>
<g opacity="0.4">
<path d="M1072 171.486V172.477H1070.71V173.963H1069.84V172.477H1068.55V171.486H1069.84V170H1070.71V171.486H1072Z" fill="white"/>
<path d="M1072 183.375V184.366H1070.71V185.852H1069.84V184.366H1068.55V183.375H1069.84V181.889H1070.71V183.375H1072Z" fill="white"/>
<path d="M1072 195.264V196.255H1070.71V197.741H1069.84V196.255H1068.55V195.264H1069.84V193.778H1070.71V195.264H1072Z" fill="white"/>
<path d="M1072 207.153V208.144H1070.71V209.63H1069.84V208.144H1068.55V207.153H1069.84V205.667H1070.71V207.153H1072Z" fill="white"/>
<path d="M1072 219.042V220.032H1070.71V221.518H1069.84V220.032H1068.55V219.042H1069.84V217.555H1070.71V219.042H1072Z" fill="white"/>
<path d="M1072 230.93V231.921H1070.71V233.407H1069.84V231.921H1068.55V230.93H1069.84V229.444H1070.71V230.93H1072Z" fill="white"/>
<path d="M1072 242.82V243.81H1070.71V245.296H1069.84V243.81H1068.55V242.82H1069.84V241.333H1070.71V242.82H1072Z" fill="white"/>
<path d="M1072 254.708V255.699H1070.71V257.185H1069.84V255.699H1068.55V254.708H1069.84V253.222H1070.71V254.708H1072Z" fill="white"/>
<path d="M1072 266.597V267.588H1070.71V269.074H1069.84V267.588H1068.55V266.597H1069.84V265.111H1070.71V266.597H1072Z" fill="white"/>
<path d="M1072 278.486V279.477H1070.71V280.963H1069.84V279.477H1068.55V278.486H1069.84V277H1070.71V278.486H1072Z" fill="white"/>
<path d="M1072 290.375V291.366H1070.71V292.852H1069.84V291.366H1068.55V290.375H1069.84V288.889H1070.71V290.375H1072Z" fill="white"/>
<path d="M1072 302.264V303.255H1070.71V304.741H1069.84V303.255H1068.55V302.264H1069.84V300.778H1070.71V302.264H1072Z" fill="white"/>
<path d="M1072 314.153V315.144H1070.71V316.63H1069.84V315.144H1068.55V314.153H1069.84V312.667H1070.71V314.153H1072Z" fill="white"/>
<path d="M1072 326.042V327.033H1070.71V328.519H1069.84V327.033H1068.55V326.042H1069.84V324.556H1070.71V326.042H1072Z" fill="white"/>
<path d="M1072 337.93V338.921H1070.71V340.407H1069.84V338.921H1068.55V337.93H1069.84V336.444H1070.71V337.93H1072Z" fill="white"/>
<path d="M1072 349.82V350.81H1070.71V352.297H1069.84V350.81H1068.55V349.82H1069.84V348.333H1070.71V349.82H1072Z" fill="white"/>
<path d="M1072 361.708V362.699H1070.71V364.185H1069.84V362.699H1068.55V361.708H1069.84V360.222H1070.71V361.708H1072Z" fill="white"/>
<path d="M1072 373.597V374.588H1070.71V376.074H1069.84V374.588H1068.55V373.597H1069.84V372.111H1070.71V373.597H1072Z" fill="white"/>
<path d="M1072 385.486V386.477H1070.71V387.963H1069.84V386.477H1068.55V385.486H1069.84V384H1070.71V385.486H1072Z" fill="white"/>
<path d="M1072 397.375V398.366H1070.71V399.852H1069.84V398.366H1068.55V397.375H1069.84V395.889H1070.71V397.375H1072Z" fill="white"/>
<path d="M1061.66 171.486V172.477H1060.36V173.963H1059.5V172.477H1058.21V171.486H1059.5V170H1060.36V171.486H1061.66Z" fill="white"/>
<path d="M1061.66 183.375V184.366H1060.36V185.852H1059.5V184.366H1058.21V183.375H1059.5V181.889H1060.36V183.375H1061.66Z" fill="white"/>
<path d="M1061.66 195.264V196.255H1060.36V197.741H1059.5V196.255H1058.21V195.264H1059.5V193.778H1060.36V195.264H1061.66Z" fill="white"/>
<path d="M1061.66 207.153V208.144H1060.36V209.63H1059.5V208.144H1058.21V207.153H1059.5V205.667H1060.36V207.153H1061.66Z" fill="white"/>
<path d="M1061.66 219.042V220.032H1060.36V221.518H1059.5V220.032H1058.21V219.042H1059.5V217.555H1060.36V219.042H1061.66Z" fill="white"/>
<path d="M1061.66 230.93V231.921H1060.36V233.407H1059.5V231.921H1058.21V230.93H1059.5V229.444H1060.36V230.93H1061.66Z" fill="white"/>
<path d="M1061.66 242.82V243.81H1060.36V245.296H1059.5V243.81H1058.21V242.82H1059.5V241.333H1060.36V242.82H1061.66Z" fill="white"/>
<path d="M1061.66 254.708V255.699H1060.36V257.185H1059.5V255.699H1058.21V254.708H1059.5V253.222H1060.36V254.708H1061.66Z" fill="white"/>
<path d="M1061.66 266.597V267.588H1060.36V269.074H1059.5V267.588H1058.21V266.597H1059.5V265.111H1060.36V266.597H1061.66Z" fill="white"/>
<path d="M1061.66 278.486V279.477H1060.36V280.963H1059.5V279.477H1058.21V278.486H1059.5V277H1060.36V278.486H1061.66Z" fill="white"/>
<path d="M1061.66 290.375V291.366H1060.36V292.852H1059.5V291.366H1058.21V290.375H1059.5V288.889H1060.36V290.375H1061.66Z" fill="white"/>
<path d="M1061.66 302.264V303.255H1060.36V304.741H1059.5V303.255H1058.21V302.264H1059.5V300.778H1060.36V302.264H1061.66Z" fill="white"/>
<path d="M1061.66 314.153V315.144H1060.36V316.63H1059.5V315.144H1058.21V314.153H1059.5V312.667H1060.36V314.153H1061.66Z" fill="white"/>
<path d="M1061.66 326.042V327.033H1060.36V328.519H1059.5V327.033H1058.21V326.042H1059.5V324.556H1060.36V326.042H1061.66Z" fill="white"/>
<path d="M1061.66 337.93V338.921H1060.36V340.407H1059.5V338.921H1058.21V337.93H1059.5V336.444H1060.36V337.93H1061.66Z" fill="white"/>
<path d="M1061.66 349.82V350.81H1060.36V352.297H1059.5V350.81H1058.21V349.82H1059.5V348.333H1060.36V349.82H1061.66Z" fill="white"/>
<path d="M1061.66 361.708V362.699H1060.36V364.185H1059.5V362.699H1058.21V361.708H1059.5V360.222H1060.36V361.708H1061.66Z" fill="white"/>
<path d="M1061.66 373.597V374.588H1060.36V376.074H1059.5V374.588H1058.21V373.597H1059.5V372.111H1060.36V373.597H1061.66Z" fill="white"/>
<path d="M1061.66 385.486V386.477H1060.36V387.963H1059.5V386.477H1058.21V385.486H1059.5V384H1060.36V385.486H1061.66Z" fill="white"/>
<path d="M1061.66 397.375V398.366H1060.36V399.852H1059.5V398.366H1058.21V397.375H1059.5V395.889H1060.36V397.375H1061.66Z" fill="white"/>
<path d="M1051.31 171.486V172.477H1050.02V173.963H1049.16V172.477H1047.86V171.486H1049.16V170H1050.02V171.486H1051.31Z" fill="white"/>
<path d="M1051.31 183.375V184.366H1050.02V185.852H1049.16V184.366H1047.86V183.375H1049.16V181.889H1050.02V183.375H1051.31Z" fill="white"/>
<path d="M1051.31 195.264V196.255H1050.02V197.741H1049.16V196.255H1047.86V195.264H1049.16V193.778H1050.02V195.264H1051.31Z" fill="white"/>
<path d="M1051.31 207.153V208.144H1050.02V209.63H1049.16V208.144H1047.86V207.153H1049.16V205.667H1050.02V207.153H1051.31Z" fill="white"/>
<path d="M1051.31 219.042V220.032H1050.02V221.518H1049.16V220.032H1047.86V219.042H1049.16V217.555H1050.02V219.042H1051.31Z" fill="white"/>
<path d="M1051.31 230.93V231.921H1050.02V233.407H1049.16V231.921H1047.86V230.93H1049.16V229.444H1050.02V230.93H1051.31Z" fill="white"/>
<path d="M1051.31 242.82V243.81H1050.02V245.296H1049.16V243.81H1047.86V242.82H1049.16V241.333H1050.02V242.82H1051.31Z" fill="white"/>
<path d="M1051.31 254.708V255.699H1050.02V257.185H1049.16V255.699H1047.86V254.708H1049.16V253.222H1050.02V254.708H1051.31Z" fill="white"/>
<path d="M1051.31 266.597V267.588H1050.02V269.074H1049.16V267.588H1047.86V266.597H1049.16V265.111H1050.02V266.597H1051.31Z" fill="white"/>
<path d="M1051.31 278.486V279.477H1050.02V280.963H1049.16V279.477H1047.86V278.486H1049.16V277H1050.02V278.486H1051.31Z" fill="white"/>
<path d="M1051.31 290.375V291.366H1050.02V292.852H1049.16V291.366H1047.86V290.375H1049.16V288.889H1050.02V290.375H1051.31Z" fill="white"/>
<path d="M1051.31 302.264V303.255H1050.02V304.741H1049.16V303.255H1047.86V302.264H1049.16V300.778H1050.02V302.264H1051.31Z" fill="white"/>
<path d="M1051.31 314.153V315.144H1050.02V316.63H1049.16V315.144H1047.86V314.153H1049.16V312.667H1050.02V314.153H1051.31Z" fill="white"/>
<path d="M1051.31 326.042V327.033H1050.02V328.519H1049.16V327.033H1047.86V326.042H1049.16V324.556H1050.02V326.042H1051.31Z" fill="white"/>
<path d="M1051.31 337.93V338.921H1050.02V340.407H1049.16V338.921H1047.86V337.93H1049.16V336.444H1050.02V337.93H1051.31Z" fill="white"/>
<path d="M1051.31 349.82V350.81H1050.02V352.297H1049.16V350.81H1047.86V349.82H1049.16V348.333H1050.02V349.82H1051.31Z" fill="white"/>
<path d="M1051.31 361.708V362.699H1050.02V364.185H1049.16V362.699H1047.86V361.708H1049.16V360.222H1050.02V361.708H1051.31Z" fill="white"/>
<path d="M1051.31 373.597V374.588H1050.02V376.074H1049.16V374.588H1047.86V373.597H1049.16V372.111H1050.02V373.597H1051.31Z" fill="white"/>
<path d="M1051.31 385.486V386.477H1050.02V387.963H1049.16V386.477H1047.86V385.486H1049.16V384H1050.02V385.486H1051.31Z" fill="white"/>
<path d="M1051.31 397.375V398.366H1050.02V399.852H1049.16V398.366H1047.86V397.375H1049.16V395.889H1050.02V397.375H1051.31Z" fill="white"/>
<path d="M1040.97 171.486V172.477H1039.67V173.963H1038.81V172.477H1037.52V171.486H1038.81V170H1039.67V171.486H1040.97Z" fill="white"/>
<path d="M1040.97 183.375V184.366H1039.67V185.852H1038.81V184.366H1037.52V183.375H1038.81V181.889H1039.67V183.375H1040.97Z" fill="white"/>
<path d="M1040.97 195.264V196.255H1039.67V197.741H1038.81V196.255H1037.52V195.264H1038.81V193.778H1039.67V195.264H1040.97Z" fill="white"/>
<path d="M1040.97 207.153V208.144H1039.67V209.63H1038.81V208.144H1037.52V207.153H1038.81V205.667H1039.67V207.153H1040.97Z" fill="white"/>
<path d="M1040.97 219.042V220.032H1039.67V221.518H1038.81V220.032H1037.52V219.042H1038.81V217.555H1039.67V219.042H1040.97Z" fill="white"/>
<path d="M1040.97 230.93V231.921H1039.67V233.407H1038.81V231.921H1037.52V230.93H1038.81V229.444H1039.67V230.93H1040.97Z" fill="white"/>
<path d="M1040.97 242.82V243.81H1039.67V245.296H1038.81V243.81H1037.52V242.82H1038.81V241.333H1039.67V242.82H1040.97Z" fill="white"/>
<path d="M1040.97 254.708V255.699H1039.67V257.185H1038.81V255.699H1037.52V254.708H1038.81V253.222H1039.67V254.708H1040.97Z" fill="white"/>
<path d="M1040.97 266.597V267.588H1039.67V269.074H1038.81V267.588H1037.52V266.597H1038.81V265.111H1039.67V266.597H1040.97Z" fill="white"/>
<path d="M1040.97 278.486V279.477H1039.67V280.963H1038.81V279.477H1037.52V278.486H1038.81V277H1039.67V278.486H1040.97Z" fill="white"/>
<path d="M1040.97 290.375V291.366H1039.67V292.852H1038.81V291.366H1037.52V290.375H1038.81V288.889H1039.67V290.375H1040.97Z" fill="white"/>
<path d="M1040.97 302.264V303.255H1039.67V304.741H1038.81V303.255H1037.52V302.264H1038.81V300.778H1039.67V302.264H1040.97Z" fill="white"/>
<path d="M1040.97 314.153V315.144H1039.67V316.63H1038.81V315.144H1037.52V314.153H1038.81V312.667H1039.67V314.153H1040.97Z" fill="white"/>
<path d="M1040.97 326.042V327.033H1039.67V328.519H1038.81V327.033H1037.52V326.042H1038.81V324.556H1039.67V326.042H1040.97Z" fill="white"/>
<path d="M1040.97 337.93V338.921H1039.67V340.407H1038.81V338.921H1037.52V337.93H1038.81V336.444H1039.67V337.93H1040.97Z" fill="white"/>
<path d="M1040.97 349.82V350.81H1039.67V352.297H1038.81V350.81H1037.52V349.82H1038.81V348.333H1039.67V349.82H1040.97Z" fill="white"/>
<path d="M1040.97 361.708V362.699H1039.67V364.185H1038.81V362.699H1037.52V361.708H1038.81V360.222H1039.67V361.708H1040.97Z" fill="white"/>
<path d="M1040.97 373.597V374.588H1039.67V376.074H1038.81V374.588H1037.52V373.597H1038.81V372.111H1039.67V373.597H1040.97Z" fill="white"/>
<path d="M1040.97 385.486V386.477H1039.67V387.963H1038.81V386.477H1037.52V385.486H1038.81V384H1039.67V385.486H1040.97Z" fill="white"/>
<path d="M1040.97 397.375V398.366H1039.67V399.852H1038.81V398.366H1037.52V397.375H1038.81V395.889H1039.67V397.375H1040.97Z" fill="white"/>
<path d="M1030.62 171.486V172.477H1029.33V173.963H1028.47V172.477H1027.17V171.486H1028.47V170H1029.33V171.486H1030.62Z" fill="white"/>
<path d="M1030.62 183.375V184.366H1029.33V185.852H1028.47V184.366H1027.17V183.375H1028.47V181.889H1029.33V183.375H1030.62Z" fill="white"/>
<path d="M1030.62 195.264V196.255H1029.33V197.741H1028.47V196.255H1027.17V195.264H1028.47V193.778H1029.33V195.264H1030.62Z" fill="white"/>
<path d="M1030.62 207.153V208.144H1029.33V209.63H1028.47V208.144H1027.17V207.153H1028.47V205.667H1029.33V207.153H1030.62Z" fill="white"/>
<path d="M1030.62 219.042V220.032H1029.33V221.518H1028.47V220.032H1027.17V219.042H1028.47V217.555H1029.33V219.042H1030.62Z" fill="white"/>
<path d="M1030.62 230.93V231.921H1029.33V233.407H1028.47V231.921H1027.17V230.93H1028.47V229.444H1029.33V230.93H1030.62Z" fill="white"/>
<path d="M1030.62 242.82V243.81H1029.33V245.296H1028.47V243.81H1027.17V242.82H1028.47V241.333H1029.33V242.82H1030.62Z" fill="white"/>
<path d="M1030.62 254.708V255.699H1029.33V257.185H1028.47V255.699H1027.17V254.708H1028.47V253.222H1029.33V254.708H1030.62Z" fill="white"/>
<path d="M1030.62 266.597V267.588H1029.33V269.074H1028.47V267.588H1027.17V266.597H1028.47V265.111H1029.33V266.597H1030.62Z" fill="white"/>
<path d="M1030.62 278.486V279.477H1029.33V280.963H1028.47V279.477H1027.17V278.486H1028.47V277H1029.33V278.486H1030.62Z" fill="white"/>
<path d="M1030.62 290.375V291.366H1029.33V292.852H1028.47V291.366H1027.17V290.375H1028.47V288.889H1029.33V290.375H1030.62Z" fill="white"/>
<path d="M1030.62 302.264V303.255H1029.33V304.741H1028.47V303.255H1027.17V302.264H1028.47V300.778H1029.33V302.264H1030.62Z" fill="white"/>
<path d="M1030.62 314.153V315.144H1029.33V316.63H1028.47V315.144H1027.17V314.153H1028.47V312.667H1029.33V314.153H1030.62Z" fill="white"/>
<path d="M1030.62 326.042V327.033H1029.33V328.519H1028.47V327.033H1027.17V326.042H1028.47V324.556H1029.33V326.042H1030.62Z" fill="white"/>
<path d="M1030.62 337.93V338.921H1029.33V340.407H1028.47V338.921H1027.17V337.93H1028.47V336.444H1029.33V337.93H1030.62Z" fill="white"/>
<path d="M1030.62 349.82V350.81H1029.33V352.297H1028.47V350.81H1027.17V349.82H1028.47V348.333H1029.33V349.82H1030.62Z" fill="white"/>
<path d="M1030.62 361.708V362.699H1029.33V364.185H1028.47V362.699H1027.17V361.708H1028.47V360.222H1029.33V361.708H1030.62Z" fill="white"/>
<path d="M1030.62 373.597V374.588H1029.33V376.074H1028.47V374.588H1027.17V373.597H1028.47V372.111H1029.33V373.597H1030.62Z" fill="white"/>
<path d="M1030.62 385.486V386.477H1029.33V387.963H1028.47V386.477H1027.17V385.486H1028.47V384H1029.33V385.486H1030.62Z" fill="white"/>
<path d="M1030.62 397.375V398.366H1029.33V399.852H1028.47V398.366H1027.17V397.375H1028.47V395.889H1029.33V397.375H1030.62Z" fill="white"/>
<path d="M1020.28 171.486V172.477H1018.98V173.963H1018.12V172.477H1016.83V171.486H1018.12V170H1018.98V171.486H1020.28Z" fill="white"/>
<path d="M1020.28 183.375V184.366H1018.98V185.852H1018.12V184.366H1016.83V183.375H1018.12V181.889H1018.98V183.375H1020.28Z" fill="white"/>
<path d="M1020.28 195.264V196.255H1018.98V197.741H1018.12V196.255H1016.83V195.264H1018.12V193.778H1018.98V195.264H1020.28Z" fill="white"/>
<path d="M1020.28 207.153V208.144H1018.98V209.63H1018.12V208.144H1016.83V207.153H1018.12V205.667H1018.98V207.153H1020.28Z" fill="white"/>
<path d="M1020.28 219.042V220.032H1018.98V221.518H1018.12V220.032H1016.83V219.042H1018.12V217.555H1018.98V219.042H1020.28Z" fill="white"/>
<path d="M1020.28 230.93V231.921H1018.98V233.407H1018.12V231.921H1016.83V230.93H1018.12V229.444H1018.98V230.93H1020.28Z" fill="white"/>
<path d="M1020.28 242.82V243.81H1018.98V245.296H1018.12V243.81H1016.83V242.82H1018.12V241.333H1018.98V242.82H1020.28Z" fill="white"/>
<path d="M1020.28 254.708V255.699H1018.98V257.185H1018.12V255.699H1016.83V254.708H1018.12V253.222H1018.98V254.708H1020.28Z" fill="white"/>
<path d="M1020.28 266.597V267.588H1018.98V269.074H1018.12V267.588H1016.83V266.597H1018.12V265.111H1018.98V266.597H1020.28Z" fill="white"/>
<path d="M1020.28 278.486V279.477H1018.98V280.963H1018.12V279.477H1016.83V278.486H1018.12V277H1018.98V278.486H1020.28Z" fill="white"/>
<path d="M1020.28 290.375V291.366H1018.98V292.852H1018.12V291.366H1016.83V290.375H1018.12V288.889H1018.98V290.375H1020.28Z" fill="white"/>
<path d="M1020.28 302.264V303.255H1018.98V304.741H1018.12V303.255H1016.83V302.264H1018.12V300.778H1018.98V302.264H1020.28Z" fill="white"/>
<path d="M1020.28 314.153V315.144H1018.98V316.63H1018.12V315.144H1016.83V314.153H1018.12V312.667H1018.98V314.153H1020.28Z" fill="white"/>
<path d="M1020.28 326.042V327.033H1018.98V328.519H1018.12V327.033H1016.83V326.042H1018.12V324.556H1018.98V326.042H1020.28Z" fill="white"/>
<path d="M1020.28 337.93V338.921H1018.98V340.407H1018.12V338.921H1016.83V337.93H1018.12V336.444H1018.98V337.93H1020.28Z" fill="white"/>
<path d="M1020.28 349.82V350.81H1018.98V352.297H1018.12V350.81H1016.83V349.82H1018.12V348.333H1018.98V349.82H1020.28Z" fill="white"/>
<path d="M1020.28 361.708V362.699H1018.98V364.185H1018.12V362.699H1016.83V361.708H1018.12V360.222H1018.98V361.708H1020.28Z" fill="white"/>
<path d="M1020.28 373.597V374.588H1018.98V376.074H1018.12V374.588H1016.83V373.597H1018.12V372.111H1018.98V373.597H1020.28Z" fill="white"/>
<path d="M1020.28 385.486V386.477H1018.98V387.963H1018.12V386.477H1016.83V385.486H1018.12V384H1018.98V385.486H1020.28Z" fill="white"/>
<path d="M1020.28 397.375V398.366H1018.98V399.852H1018.12V398.366H1016.83V397.375H1018.12V395.889H1018.98V397.375H1020.28Z" fill="white"/>
<path d="M1009.93 171.486V172.477H1008.64V173.963H1007.78V172.477H1006.48V171.486H1007.78V170H1008.64V171.486H1009.93Z" fill="white"/>
<path d="M1009.93 183.375V184.366H1008.64V185.852H1007.78V184.366H1006.48V183.375H1007.78V181.889H1008.64V183.375H1009.93Z" fill="white"/>
<path d="M1009.93 195.264V196.255H1008.64V197.741H1007.78V196.255H1006.48V195.264H1007.78V193.778H1008.64V195.264H1009.93Z" fill="white"/>
<path d="M1009.93 207.153V208.144H1008.64V209.63H1007.78V208.144H1006.48V207.153H1007.78V205.667H1008.64V207.153H1009.93Z" fill="white"/>
<path d="M1009.93 219.042V220.032H1008.64V221.518H1007.78V220.032H1006.48V219.042H1007.78V217.555H1008.64V219.042H1009.93Z" fill="white"/>
<path d="M1009.93 230.93V231.921H1008.64V233.407H1007.78V231.921H1006.48V230.93H1007.78V229.444H1008.64V230.93H1009.93Z" fill="white"/>
<path d="M1009.93 242.82V243.81H1008.64V245.296H1007.78V243.81H1006.48V242.82H1007.78V241.333H1008.64V242.82H1009.93Z" fill="white"/>
<path d="M1009.93 254.708V255.699H1008.64V257.185H1007.78V255.699H1006.48V254.708H1007.78V253.222H1008.64V254.708H1009.93Z" fill="white"/>
<path d="M1009.93 266.597V267.588H1008.64V269.074H1007.78V267.588H1006.48V266.597H1007.78V265.111H1008.64V266.597H1009.93Z" fill="white"/>
<path d="M1009.93 278.486V279.477H1008.64V280.963H1007.78V279.477H1006.48V278.486H1007.78V277H1008.64V278.486H1009.93Z" fill="white"/>
<path d="M1009.93 290.375V291.366H1008.64V292.852H1007.78V291.366H1006.48V290.375H1007.78V288.889H1008.64V290.375H1009.93Z" fill="white"/>
<path d="M1009.93 302.264V303.255H1008.64V304.741H1007.78V303.255H1006.48V302.264H1007.78V300.778H1008.64V302.264H1009.93Z" fill="white"/>
<path d="M1009.93 314.153V315.144H1008.64V316.63H1007.78V315.144H1006.48V314.153H1007.78V312.667H1008.64V314.153H1009.93Z" fill="white"/>
<path d="M1009.93 326.042V327.033H1008.64V328.519H1007.78V327.033H1006.48V326.042H1007.78V324.556H1008.64V326.042H1009.93Z" fill="white"/>
<path d="M1009.93 337.93V338.921H1008.64V340.407H1007.78V338.921H1006.48V337.93H1007.78V336.444H1008.64V337.93H1009.93Z" fill="white"/>
<path d="M1009.93 349.82V350.81H1008.64V352.297H1007.78V350.81H1006.48V349.82H1007.78V348.333H1008.64V349.82H1009.93Z" fill="white"/>
<path d="M1009.93 361.708V362.699H1008.64V364.185H1007.78V362.699H1006.48V361.708H1007.78V360.222H1008.64V361.708H1009.93Z" fill="white"/>
<path d="M1009.93 373.597V374.588H1008.64V376.074H1007.78V374.588H1006.48V373.597H1007.78V372.111H1008.64V373.597H1009.93Z" fill="white"/>
<path d="M1009.93 385.486V386.477H1008.64V387.963H1007.78V386.477H1006.48V385.486H1007.78V384H1008.64V385.486H1009.93Z" fill="white"/>
<path d="M1009.93 397.375V398.366H1008.64V399.852H1007.78V398.366H1006.48V397.375H1007.78V395.889H1008.64V397.375H1009.93Z" fill="white"/>
<path d="M999.586 171.486V172.477H998.293V173.963H997.431V172.477H996.138V171.486H997.431V170H998.293V171.486H999.586Z" fill="white"/>
<path d="M999.586 183.375V184.366H998.293V185.852H997.431V184.366H996.138V183.375H997.431V181.889H998.293V183.375H999.586Z" fill="white"/>
<path d="M999.586 195.264V196.255H998.293V197.741H997.431V196.255H996.138V195.264H997.431V193.778H998.293V195.264H999.586Z" fill="white"/>
<path d="M999.586 207.153V208.144H998.293V209.63H997.431V208.144H996.138V207.153H997.431V205.667H998.293V207.153H999.586Z" fill="white"/>
<path d="M999.586 219.042V220.032H998.293V221.518H997.431V220.032H996.138V219.042H997.431V217.555H998.293V219.042H999.586Z" fill="white"/>
<path d="M999.586 230.93V231.921H998.293V233.407H997.431V231.921H996.138V230.93H997.431V229.444H998.293V230.93H999.586Z" fill="white"/>
<path d="M999.586 242.82V243.81H998.293V245.296H997.431V243.81H996.138V242.82H997.431V241.333H998.293V242.82H999.586Z" fill="white"/>
<path d="M999.586 254.708V255.699H998.293V257.185H997.431V255.699H996.138V254.708H997.431V253.222H998.293V254.708H999.586Z" fill="white"/>
<path d="M999.586 266.597V267.588H998.293V269.074H997.431V267.588H996.138V266.597H997.431V265.111H998.293V266.597H999.586Z" fill="white"/>
<path d="M999.586 278.486V279.477H998.293V280.963H997.431V279.477H996.138V278.486H997.431V277H998.293V278.486H999.586Z" fill="white"/>
<path d="M999.586 290.375V291.366H998.293V292.852H997.431V291.366H996.138V290.375H997.431V288.889H998.293V290.375H999.586Z" fill="white"/>
<path d="M999.586 302.264V303.255H998.293V304.741H997.431V303.255H996.138V302.264H997.431V300.778H998.293V302.264H999.586Z" fill="white"/>
<path d="M999.586 314.153V315.144H998.293V316.63H997.431V315.144H996.138V314.153H997.431V312.667H998.293V314.153H999.586Z" fill="white"/>
<path d="M999.586 326.042V327.033H998.293V328.519H997.431V327.033H996.138V326.042H997.431V324.556H998.293V326.042H999.586Z" fill="white"/>
<path d="M999.586 337.93V338.921H998.293V340.407H997.431V338.921H996.138V337.93H997.431V336.444H998.293V337.93H999.586Z" fill="white"/>
<path d="M999.586 349.82V350.81H998.293V352.297H997.431V350.81H996.138V349.82H997.431V348.333H998.293V349.82H999.586Z" fill="white"/>
<path d="M999.586 361.708V362.699H998.293V364.185H997.431V362.699H996.138V361.708H997.431V360.222H998.293V361.708H999.586Z" fill="white"/>
<path d="M999.586 373.597V374.588H998.293V376.074H997.431V374.588H996.138V373.597H997.431V372.111H998.293V373.597H999.586Z" fill="white"/>
<path d="M999.586 385.486V386.477H998.293V387.963H997.431V386.477H996.138V385.486H997.431V384H998.293V385.486H999.586Z" fill="white"/>
<path d="M999.586 397.375V398.366H998.293V399.852H997.431V398.366H996.138V397.375H997.431V395.889H998.293V397.375H999.586Z" fill="white"/>
<path d="M989.242 171.486V172.477H987.949V173.963H987.087V172.477H985.793V171.486H987.087V170H987.949V171.486H989.242Z" fill="white"/>
<path d="M989.241 183.375V184.366H987.948V185.852H987.086V184.366H985.793V183.375H987.086V181.889H987.948V183.375H989.241Z" fill="white"/>
<path d="M989.241 195.264V196.255H987.948V197.741H987.086V196.255H985.793V195.264H987.086V193.778H987.948V195.264H989.241Z" fill="white"/>
<path d="M989.241 207.153V208.144H987.948V209.63H987.086V208.144H985.793V207.153H987.086V205.667H987.948V207.153H989.241Z" fill="white"/>
<path d="M989.241 219.042V220.032H987.948V221.518H987.086V220.032H985.793V219.042H987.086V217.555H987.948V219.042H989.241Z" fill="white"/>
<path d="M989.241 230.93V231.921H987.948V233.407H987.086V231.921H985.793V230.93H987.086V229.444H987.948V230.93H989.241Z" fill="white"/>
<path d="M989.241 242.82V243.81H987.948V245.296H987.086V243.81H985.793V242.82H987.086V241.333H987.948V242.82H989.241Z" fill="white"/>
<path d="M989.241 254.708V255.699H987.948V257.185H987.086V255.699H985.793V254.708H987.086V253.222H987.948V254.708H989.241Z" fill="white"/>
<path d="M989.241 266.597V267.588H987.948V269.074H987.086V267.588H985.793V266.597H987.086V265.111H987.948V266.597H989.241Z" fill="white"/>
<path d="M989.241 278.486V279.477H987.948V280.963H987.086V279.477H985.793V278.486H987.086V277H987.948V278.486H989.241Z" fill="white"/>
<path d="M989.241 290.375V291.366H987.948V292.852H987.086V291.366H985.793V290.375H987.086V288.889H987.948V290.375H989.241Z" fill="white"/>
<path d="M989.241 302.264V303.255H987.948V304.741H987.086V303.255H985.793V302.264H987.086V300.778H987.948V302.264H989.241Z" fill="white"/>
<path d="M989.241 314.153V315.144H987.948V316.63H987.086V315.144H985.793V314.153H987.086V312.667H987.948V314.153H989.241Z" fill="white"/>
<path d="M989.241 326.042V327.033H987.948V328.519H987.086V327.033H985.793V326.042H987.086V324.556H987.948V326.042H989.241Z" fill="white"/>
<path d="M989.241 337.93V338.921H987.948V340.407H987.086V338.921H985.793V337.93H987.086V336.444H987.948V337.93H989.241Z" fill="white"/>
<path d="M989.241 349.82V350.81H987.948V352.297H987.086V350.81H985.793V349.82H987.086V348.333H987.948V349.82H989.241Z" fill="white"/>
<path d="M989.241 361.708V362.699H987.948V364.185H987.086V362.699H985.793V361.708H987.086V360.222H987.948V361.708H989.241Z" fill="white"/>
<path d="M989.241 373.597V374.588H987.948V376.074H987.086V374.588H985.793V373.597H987.086V372.111H987.948V373.597H989.241Z" fill="white"/>
<path d="M989.241 385.486V386.477H987.948V387.963H987.086V386.477H985.793V385.486H987.086V384H987.948V385.486H989.241Z" fill="white"/>
<path d="M989.241 397.375V398.366H987.948V399.852H987.086V398.366H985.793V397.375H987.086V395.889H987.948V397.375H989.241Z" fill="white"/>
<path d="M978.897 171.486V172.477H977.604V173.963H976.742V172.477H975.448V171.486H976.742V170H977.604V171.486H978.897Z" fill="white"/>
<path d="M978.897 183.375V184.366H977.604V185.852H976.742V184.366H975.448V183.375H976.742V181.889H977.604V183.375H978.897Z" fill="white"/>
<path d="M978.897 195.264V196.255H977.604V197.741H976.742V196.255H975.448V195.264H976.742V193.778H977.604V195.264H978.897Z" fill="white"/>
<path d="M978.897 207.153V208.144H977.604V209.63H976.742V208.144H975.448V207.153H976.742V205.667H977.604V207.153H978.897Z" fill="white"/>
<path d="M978.897 219.042V220.032H977.604V221.518H976.742V220.032H975.448V219.042H976.742V217.555H977.604V219.042H978.897Z" fill="white"/>
<path d="M978.897 230.93V231.921H977.604V233.407H976.742V231.921H975.448V230.93H976.742V229.444H977.604V230.93H978.897Z" fill="white"/>
<path d="M978.897 242.82V243.81H977.604V245.296H976.742V243.81H975.448V242.82H976.742V241.333H977.604V242.82H978.897Z" fill="white"/>
<path d="M978.897 254.708V255.699H977.604V257.185H976.742V255.699H975.448V254.708H976.742V253.222H977.604V254.708H978.897Z" fill="white"/>
<path d="M978.897 266.597V267.588H977.604V269.074H976.742V267.588H975.448V266.597H976.742V265.111H977.604V266.597H978.897Z" fill="white"/>
<path d="M978.897 278.486V279.477H977.604V280.963H976.742V279.477H975.448V278.486H976.742V277H977.604V278.486H978.897Z" fill="white"/>
<path d="M978.897 290.375V291.366H977.604V292.852H976.742V291.366H975.448V290.375H976.742V288.889H977.604V290.375H978.897Z" fill="white"/>
<path d="M978.897 302.264V303.255H977.604V304.741H976.742V303.255H975.448V302.264H976.742V300.778H977.604V302.264H978.897Z" fill="white"/>
<path d="M978.897 314.153V315.144H977.604V316.63H976.742V315.144H975.448V314.153H976.742V312.667H977.604V314.153H978.897Z" fill="white"/>
<path d="M978.897 326.042V327.033H977.604V328.519H976.742V327.033H975.448V326.042H976.742V324.556H977.604V326.042H978.897Z" fill="white"/>
<path d="M978.897 337.93V338.921H977.604V340.407H976.742V338.921H975.448V337.93H976.742V336.444H977.604V337.93H978.897Z" fill="white"/>
<path d="M978.897 349.82V350.81H977.604V352.297H976.742V350.81H975.448V349.82H976.742V348.333H977.604V349.82H978.897Z" fill="white"/>
<path d="M978.897 361.708V362.699H977.604V364.185H976.742V362.699H975.448V361.708H976.742V360.222H977.604V361.708H978.897Z" fill="white"/>
<path d="M978.897 373.597V374.588H977.604V376.074H976.742V374.588H975.448V373.597H976.742V372.111H977.604V373.597H978.897Z" fill="white"/>
<path d="M978.897 385.486V386.477H977.604V387.963H976.742V386.477H975.448V385.486H976.742V384H977.604V385.486H978.897Z" fill="white"/>
<path d="M978.897 397.375V398.366H977.604V399.852H976.742V398.366H975.448V397.375H976.742V395.889H977.604V397.375H978.897Z" fill="white"/>
<path d="M968.552 171.486V172.477H967.259V173.963H966.397V172.477H965.104V171.486H966.397V170H967.259V171.486H968.552Z" fill="white"/>
<path d="M968.552 183.375V184.366H967.259V185.852H966.397V184.366H965.104V183.375H966.397V181.889H967.259V183.375H968.552Z" fill="white"/>
<path d="M968.552 195.264V196.255H967.259V197.741H966.397V196.255H965.104V195.264H966.397V193.778H967.259V195.264H968.552Z" fill="white"/>
<path d="M968.552 207.153V208.144H967.259V209.63H966.397V208.144H965.104V207.153H966.397V205.667H967.259V207.153H968.552Z" fill="white"/>
<path d="M968.552 219.042V220.032H967.259V221.518H966.397V220.032H965.104V219.042H966.397V217.555H967.259V219.042H968.552Z" fill="white"/>
<path d="M968.552 230.93V231.921H967.259V233.407H966.397V231.921H965.104V230.93H966.397V229.444H967.259V230.93H968.552Z" fill="white"/>
<path d="M968.552 242.82V243.81H967.259V245.296H966.397V243.81H965.104V242.82H966.397V241.333H967.259V242.82H968.552Z" fill="white"/>
<path d="M968.552 254.708V255.699H967.259V257.185H966.397V255.699H965.104V254.708H966.397V253.222H967.259V254.708H968.552Z" fill="white"/>
<path d="M968.552 266.597V267.588H967.259V269.074H966.397V267.588H965.104V266.597H966.397V265.111H967.259V266.597H968.552Z" fill="white"/>
<path d="M968.552 278.486V279.477H967.259V280.963H966.397V279.477H965.104V278.486H966.397V277H967.259V278.486H968.552Z" fill="white"/>
<path d="M968.552 290.375V291.366H967.259V292.852H966.397V291.366H965.104V290.375H966.397V288.889H967.259V290.375H968.552Z" fill="white"/>
<path d="M968.552 302.264V303.255H967.259V304.741H966.397V303.255H965.104V302.264H966.397V300.778H967.259V302.264H968.552Z" fill="white"/>
<path d="M968.552 314.153V315.144H967.259V316.63H966.397V315.144H965.104V314.153H966.397V312.667H967.259V314.153H968.552Z" fill="white"/>
<path d="M968.552 326.042V327.033H967.259V328.519H966.397V327.033H965.104V326.042H966.397V324.556H967.259V326.042H968.552Z" fill="white"/>
<path d="M968.552 337.93V338.921H967.259V340.407H966.397V338.921H965.104V337.93H966.397V336.444H967.259V337.93H968.552Z" fill="white"/>
<path d="M968.552 349.82V350.81H967.259V352.297H966.397V350.81H965.104V349.82H966.397V348.333H967.259V349.82H968.552Z" fill="white"/>
<path d="M968.552 361.708V362.699H967.259V364.185H966.397V362.699H965.104V361.708H966.397V360.222H967.259V361.708H968.552Z" fill="white"/>
<path d="M968.552 373.597V374.588H967.259V376.074H966.397V374.588H965.104V373.597H966.397V372.111H967.259V373.597H968.552Z" fill="white"/>
<path d="M968.552 385.486V386.477H967.259V387.963H966.397V386.477H965.104V385.486H966.397V384H967.259V385.486H968.552Z" fill="white"/>
<path d="M968.552 397.375V398.366H967.259V399.852H966.397V398.366H965.104V397.375H966.397V395.889H967.259V397.375H968.552Z" fill="white"/>
<path d="M958.207 171.486V172.477H956.914V173.963H956.052V172.477H954.759V171.486H956.052V170H956.914V171.486H958.207Z" fill="white"/>
<path d="M958.207 183.375V184.366H956.914V185.852H956.052V184.366H954.759V183.375H956.052V181.889H956.914V183.375H958.207Z" fill="white"/>
<path d="M958.207 195.264V196.255H956.914V197.741H956.052V196.255H954.759V195.264H956.052V193.778H956.914V195.264H958.207Z" fill="white"/>
<path d="M958.207 207.153V208.144H956.914V209.63H956.052V208.144H954.759V207.153H956.052V205.667H956.914V207.153H958.207Z" fill="white"/>
<path d="M958.207 219.042V220.032H956.914V221.518H956.052V220.032H954.759V219.042H956.052V217.555H956.914V219.042H958.207Z" fill="white"/>
<path d="M958.207 230.93V231.921H956.914V233.407H956.052V231.921H954.759V230.93H956.052V229.444H956.914V230.93H958.207Z" fill="white"/>
<path d="M958.207 242.82V243.81H956.914V245.296H956.052V243.81H954.759V242.82H956.052V241.333H956.914V242.82H958.207Z" fill="white"/>
<path d="M958.207 254.708V255.699H956.914V257.185H956.052V255.699H954.759V254.708H956.052V253.222H956.914V254.708H958.207Z" fill="white"/>
<path d="M958.207 266.597V267.588H956.914V269.074H956.052V267.588H954.759V266.597H956.052V265.111H956.914V266.597H958.207Z" fill="white"/>
<path d="M958.207 278.486V279.477H956.914V280.963H956.052V279.477H954.759V278.486H956.052V277H956.914V278.486H958.207Z" fill="white"/>
<path d="M958.207 290.375V291.366H956.914V292.852H956.052V291.366H954.759V290.375H956.052V288.889H956.914V290.375H958.207Z" fill="white"/>
<path d="M958.207 302.264V303.255H956.914V304.741H956.052V303.255H954.759V302.264H956.052V300.778H956.914V302.264H958.207Z" fill="white"/>
<path d="M958.207 314.153V315.144H956.914V316.63H956.052V315.144H954.759V314.153H956.052V312.667H956.914V314.153H958.207Z" fill="white"/>
<path d="M958.207 326.042V327.033H956.914V328.519H956.052V327.033H954.759V326.042H956.052V324.556H956.914V326.042H958.207Z" fill="white"/>
<path d="M958.207 337.93V338.921H956.914V340.407H956.052V338.921H954.759V337.93H956.052V336.444H956.914V337.93H958.207Z" fill="white"/>
<path d="M958.207 349.82V350.81H956.914V352.297H956.052V350.81H954.759V349.82H956.052V348.333H956.914V349.82H958.207Z" fill="white"/>
<path d="M958.207 361.708V362.699H956.914V364.185H956.052V362.699H954.759V361.708H956.052V360.222H956.914V361.708H958.207Z" fill="white"/>
<path d="M958.207 373.597V374.588H956.914V376.074H956.052V374.588H954.759V373.597H956.052V372.111H956.914V373.597H958.207Z" fill="white"/>
<path d="M958.207 385.486V386.477H956.914V387.963H956.052V386.477H954.759V385.486H956.052V384H956.914V385.486H958.207Z" fill="white"/>
<path d="M958.207 397.375V398.366H956.914V399.852H956.052V398.366H954.759V397.375H956.052V395.889H956.914V397.375H958.207Z" fill="white"/>
<path d="M947.862 171.486V172.477H946.569V173.963H945.707V172.477H944.414V171.486H945.707V170H946.569V171.486H947.862Z" fill="white"/>
<path d="M947.862 183.375V184.366H946.569V185.852H945.707V184.366H944.414V183.375H945.707V181.889H946.569V183.375H947.862Z" fill="white"/>
<path d="M947.862 195.264V196.255H946.569V197.741H945.707V196.255H944.414V195.264H945.707V193.778H946.569V195.264H947.862Z" fill="white"/>
<path d="M947.862 207.153V208.144H946.569V209.63H945.707V208.144H944.414V207.153H945.707V205.667H946.569V207.153H947.862Z" fill="white"/>
<path d="M947.862 219.042V220.032H946.569V221.518H945.707V220.032H944.414V219.042H945.707V217.555H946.569V219.042H947.862Z" fill="white"/>
<path d="M947.862 230.93V231.921H946.569V233.407H945.707V231.921H944.414V230.93H945.707V229.444H946.569V230.93H947.862Z" fill="white"/>
<path d="M947.862 242.82V243.81H946.569V245.296H945.707V243.81H944.414V242.82H945.707V241.333H946.569V242.82H947.862Z" fill="white"/>
<path d="M947.862 254.708V255.699H946.569V257.185H945.707V255.699H944.414V254.708H945.707V253.222H946.569V254.708H947.862Z" fill="white"/>
<path d="M947.862 266.597V267.588H946.569V269.074H945.707V267.588H944.414V266.597H945.707V265.111H946.569V266.597H947.862Z" fill="white"/>
<path d="M947.862 278.486V279.477H946.569V280.963H945.707V279.477H944.414V278.486H945.707V277H946.569V278.486H947.862Z" fill="white"/>
<path d="M947.862 290.375V291.366H946.569V292.852H945.707V291.366H944.414V290.375H945.707V288.889H946.569V290.375H947.862Z" fill="white"/>
<path d="M947.862 302.264V303.255H946.569V304.741H945.707V303.255H944.414V302.264H945.707V300.778H946.569V302.264H947.862Z" fill="white"/>
<path d="M947.862 314.153V315.144H946.569V316.63H945.707V315.144H944.414V314.153H945.707V312.667H946.569V314.153H947.862Z" fill="white"/>
<path d="M947.862 326.042V327.033H946.569V328.519H945.707V327.033H944.414V326.042H945.707V324.556H946.569V326.042H947.862Z" fill="white"/>
<path d="M947.862 337.93V338.921H946.569V340.407H945.707V338.921H944.414V337.93H945.707V336.444H946.569V337.93H947.862Z" fill="white"/>
<path d="M947.862 349.82V350.81H946.569V352.297H945.707V350.81H944.414V349.82H945.707V348.333H946.569V349.82H947.862Z" fill="white"/>
<path d="M947.862 361.708V362.699H946.569V364.185H945.707V362.699H944.414V361.708H945.707V360.222H946.569V361.708H947.862Z" fill="white"/>
<path d="M947.862 373.597V374.588H946.569V376.074H945.707V374.588H944.414V373.597H945.707V372.111H946.569V373.597H947.862Z" fill="white"/>
<path d="M947.862 385.486V386.477H946.569V387.963H945.707V386.477H944.414V385.486H945.707V384H946.569V385.486H947.862Z" fill="white"/>
<path d="M947.862 397.375V398.366H946.569V399.852H945.707V398.366H944.414V397.375H945.707V395.889H946.569V397.375H947.862Z" fill="white"/>
<path d="M937.517 171.486V172.477H936.224V173.963H935.362V172.477H934.069V171.486H935.362V170H936.224V171.486H937.517Z" fill="white"/>
<path d="M937.517 183.375V184.366H936.224V185.852H935.362V184.366H934.069V183.375H935.362V181.889H936.224V183.375H937.517Z" fill="white"/>
<path d="M937.517 195.264V196.255H936.224V197.741H935.362V196.255H934.069V195.264H935.362V193.778H936.224V195.264H937.517Z" fill="white"/>
<path d="M937.517 207.153V208.144H936.224V209.63H935.362V208.144H934.069V207.153H935.362V205.667H936.224V207.153H937.517Z" fill="white"/>
<path d="M937.517 219.042V220.032H936.224V221.518H935.362V220.032H934.069V219.042H935.362V217.555H936.224V219.042H937.517Z" fill="white"/>
<path d="M937.517 230.93V231.921H936.224V233.407H935.362V231.921H934.069V230.93H935.362V229.444H936.224V230.93H937.517Z" fill="white"/>
<path d="M937.517 242.82V243.81H936.224V245.296H935.362V243.81H934.069V242.82H935.362V241.333H936.224V242.82H937.517Z" fill="white"/>
<path d="M937.517 254.708V255.699H936.224V257.185H935.362V255.699H934.069V254.708H935.362V253.222H936.224V254.708H937.517Z" fill="white"/>
<path d="M937.517 266.597V267.588H936.224V269.074H935.362V267.588H934.069V266.597H935.362V265.111H936.224V266.597H937.517Z" fill="white"/>
<path d="M937.517 278.486V279.477H936.224V280.963H935.362V279.477H934.069V278.486H935.362V277H936.224V278.486H937.517Z" fill="white"/>
<path d="M937.517 290.375V291.366H936.224V292.852H935.362V291.366H934.069V290.375H935.362V288.889H936.224V290.375H937.517Z" fill="white"/>
<path d="M937.517 302.264V303.255H936.224V304.741H935.362V303.255H934.069V302.264H935.362V300.778H936.224V302.264H937.517Z" fill="white"/>
<path d="M937.517 314.153V315.144H936.224V316.63H935.362V315.144H934.069V314.153H935.362V312.667H936.224V314.153H937.517Z" fill="white"/>
<path d="M937.517 326.042V327.033H936.224V328.519H935.362V327.033H934.069V326.042H935.362V324.556H936.224V326.042H937.517Z" fill="white"/>
<path d="M937.517 337.93V338.921H936.224V340.407H935.362V338.921H934.069V337.93H935.362V336.444H936.224V337.93H937.517Z" fill="white"/>
<path d="M937.517 349.82V350.81H936.224V352.297H935.362V350.81H934.069V349.82H935.362V348.333H936.224V349.82H937.517Z" fill="white"/>
<path d="M937.517 361.708V362.699H936.224V364.185H935.362V362.699H934.069V361.708H935.362V360.222H936.224V361.708H937.517Z" fill="white"/>
<path d="M937.517 373.597V374.588H936.224V376.074H935.362V374.588H934.069V373.597H935.362V372.111H936.224V373.597H937.517Z" fill="white"/>
<path d="M937.517 385.486V386.477H936.224V387.963H935.362V386.477H934.069V385.486H935.362V384H936.224V385.486H937.517Z" fill="white"/>
<path d="M937.517 397.375V398.366H936.224V399.852H935.362V398.366H934.069V397.375H935.362V395.889H936.224V397.375H937.517Z" fill="white"/>
<path d="M927.172 171.486V172.477H925.879V173.963H925.017V172.477H923.724V171.486H925.017V170H925.879V171.486H927.172Z" fill="white"/>
<path d="M927.172 183.375V184.366H925.879V185.852H925.017V184.366H923.724V183.375H925.017V181.889H925.879V183.375H927.172Z" fill="white"/>
<path d="M927.172 195.264V196.255H925.879V197.741H925.017V196.255H923.724V195.264H925.017V193.778H925.879V195.264H927.172Z" fill="white"/>
<path d="M927.172 207.153V208.144H925.879V209.63H925.017V208.144H923.724V207.153H925.017V205.667H925.879V207.153H927.172Z" fill="white"/>
<path d="M927.172 219.042V220.032H925.879V221.518H925.017V220.032H923.724V219.042H925.017V217.555H925.879V219.042H927.172Z" fill="white"/>
<path d="M927.172 230.93V231.921H925.879V233.407H925.017V231.921H923.724V230.93H925.017V229.444H925.879V230.93H927.172Z" fill="white"/>
<path d="M927.172 242.82V243.81H925.879V245.296H925.017V243.81H923.724V242.82H925.017V241.333H925.879V242.82H927.172Z" fill="white"/>
<path d="M927.172 254.708V255.699H925.879V257.185H925.017V255.699H923.724V254.708H925.017V253.222H925.879V254.708H927.172Z" fill="white"/>
<path d="M927.172 266.597V267.588H925.879V269.074H925.017V267.588H923.724V266.597H925.017V265.111H925.879V266.597H927.172Z" fill="white"/>
<path d="M927.172 278.486V279.477H925.879V280.963H925.017V279.477H923.724V278.486H925.017V277H925.879V278.486H927.172Z" fill="white"/>
<path d="M927.172 290.375V291.366H925.879V292.852H925.017V291.366H923.724V290.375H925.017V288.889H925.879V290.375H927.172Z" fill="white"/>
<path d="M927.172 302.264V303.255H925.879V304.741H925.017V303.255H923.724V302.264H925.017V300.778H925.879V302.264H927.172Z" fill="white"/>
<path d="M927.172 314.153V315.144H925.879V316.63H925.017V315.144H923.724V314.153H925.017V312.667H925.879V314.153H927.172Z" fill="white"/>
<path d="M927.172 326.042V327.033H925.879V328.519H925.017V327.033H923.724V326.042H925.017V324.556H925.879V326.042H927.172Z" fill="white"/>
<path d="M927.172 337.93V338.921H925.879V340.407H925.017V338.921H923.724V337.93H925.017V336.444H925.879V337.93H927.172Z" fill="white"/>
<path d="M927.172 349.82V350.81H925.879V352.297H925.017V350.81H923.724V349.82H925.017V348.333H925.879V349.82H927.172Z" fill="white"/>
<path d="M927.172 361.708V362.699H925.879V364.185H925.017V362.699H923.724V361.708H925.017V360.222H925.879V361.708H927.172Z" fill="white"/>
<path d="M927.172 373.597V374.588H925.879V376.074H925.017V374.588H923.724V373.597H925.017V372.111H925.879V373.597H927.172Z" fill="white"/>
<path d="M927.172 385.486V386.477H925.879V387.963H925.017V386.477H923.724V385.486H925.017V384H925.879V385.486H927.172Z" fill="white"/>
<path d="M927.172 397.375V398.366H925.879V399.852H925.017V398.366H923.724V397.375H925.017V395.889H925.879V397.375H927.172Z" fill="white"/>
<path d="M916.828 171.486V172.477H915.535V173.963H914.673V172.477H913.38V171.486H914.673V170H915.535V171.486H916.828Z" fill="white"/>
<path d="M916.828 183.375V184.366H915.535V185.852H914.673V184.366H913.38V183.375H914.673V181.889H915.535V183.375H916.828Z" fill="white"/>
<path d="M916.828 195.264V196.255H915.535V197.741H914.673V196.255H913.38V195.264H914.673V193.778H915.535V195.264H916.828Z" fill="white"/>
<path d="M916.828 207.153V208.144H915.535V209.63H914.673V208.144H913.38V207.153H914.673V205.667H915.535V207.153H916.828Z" fill="white"/>
<path d="M916.828 219.042V220.032H915.535V221.518H914.673V220.032H913.38V219.042H914.673V217.555H915.535V219.042H916.828Z" fill="white"/>
<path d="M916.828 230.93V231.921H915.535V233.407H914.673V231.921H913.38V230.93H914.673V229.444H915.535V230.93H916.828Z" fill="white"/>
<path d="M916.828 242.82V243.81H915.535V245.296H914.673V243.81H913.38V242.82H914.673V241.333H915.535V242.82H916.828Z" fill="white"/>
<path d="M916.828 254.708V255.699H915.535V257.185H914.673V255.699H913.38V254.708H914.673V253.222H915.535V254.708H916.828Z" fill="white"/>
<path d="M916.828 266.597V267.588H915.535V269.074H914.673V267.588H913.38V266.597H914.673V265.111H915.535V266.597H916.828Z" fill="white"/>
<path d="M916.828 278.486V279.477H915.535V280.963H914.673V279.477H913.38V278.486H914.673V277H915.535V278.486H916.828Z" fill="white"/>
<path d="M916.828 290.375V291.366H915.535V292.852H914.673V291.366H913.38V290.375H914.673V288.889H915.535V290.375H916.828Z" fill="white"/>
<path d="M916.828 302.264V303.255H915.535V304.741H914.673V303.255H913.38V302.264H914.673V300.778H915.535V302.264H916.828Z" fill="white"/>
<path d="M916.828 314.153V315.144H915.535V316.63H914.673V315.144H913.38V314.153H914.673V312.667H915.535V314.153H916.828Z" fill="white"/>
<path d="M916.828 326.042V327.033H915.535V328.519H914.673V327.033H913.38V326.042H914.673V324.556H915.535V326.042H916.828Z" fill="white"/>
<path d="M916.828 337.93V338.921H915.535V340.407H914.673V338.921H913.38V337.93H914.673V336.444H915.535V337.93H916.828Z" fill="white"/>
<path d="M916.828 349.82V350.81H915.535V352.297H914.673V350.81H913.38V349.82H914.673V348.333H915.535V349.82H916.828Z" fill="white"/>
<path d="M916.828 361.708V362.699H915.535V364.185H914.673V362.699H913.38V361.708H914.673V360.222H915.535V361.708H916.828Z" fill="white"/>
<path d="M916.828 373.597V374.588H915.535V376.074H914.673V374.588H913.38V373.597H914.673V372.111H915.535V373.597H916.828Z" fill="white"/>
<path d="M916.828 385.486V386.477H915.535V387.963H914.673V386.477H913.38V385.486H914.673V384H915.535V385.486H916.828Z" fill="white"/>
<path d="M916.828 397.375V398.366H915.535V399.852H914.673V398.366H913.38V397.375H914.673V395.889H915.535V397.375H916.828Z" fill="white"/>
<path d="M906.482 171.486V172.477H905.189V173.963H904.327V172.477H903.034V171.486H904.327V170H905.189V171.486H906.482Z" fill="white"/>
<path d="M906.482 183.375V184.366H905.189V185.852H904.327V184.366H903.034V183.375H904.327V181.889H905.189V183.375H906.482Z" fill="white"/>
<path d="M906.482 195.264V196.255H905.189V197.741H904.327V196.255H903.034V195.264H904.327V193.778H905.189V195.264H906.482Z" fill="white"/>
<path d="M906.482 207.153V208.144H905.189V209.63H904.327V208.144H903.034V207.153H904.327V205.667H905.189V207.153H906.482Z" fill="white"/>
<path d="M906.482 219.042V220.032H905.189V221.518H904.327V220.032H903.034V219.042H904.327V217.555H905.189V219.042H906.482Z" fill="white"/>
<path d="M906.482 230.93V231.921H905.189V233.407H904.327V231.921H903.034V230.93H904.327V229.444H905.189V230.93H906.482Z" fill="white"/>
<path d="M906.482 242.82V243.81H905.189V245.296H904.327V243.81H903.034V242.82H904.327V241.333H905.189V242.82H906.482Z" fill="white"/>
<path d="M906.482 254.708V255.699H905.189V257.185H904.327V255.699H903.034V254.708H904.327V253.222H905.189V254.708H906.482Z" fill="white"/>
<path d="M906.482 266.597V267.588H905.189V269.074H904.327V267.588H903.034V266.597H904.327V265.111H905.189V266.597H906.482Z" fill="white"/>
<path d="M906.482 278.486V279.477H905.189V280.963H904.327V279.477H903.034V278.486H904.327V277H905.189V278.486H906.482Z" fill="white"/>
<path d="M906.482 290.375V291.366H905.189V292.852H904.327V291.366H903.034V290.375H904.327V288.889H905.189V290.375H906.482Z" fill="white"/>
<path d="M906.482 302.264V303.255H905.189V304.741H904.327V303.255H903.034V302.264H904.327V300.778H905.189V302.264H906.482Z" fill="white"/>
<path d="M906.482 314.153V315.144H905.189V316.63H904.327V315.144H903.034V314.153H904.327V312.667H905.189V314.153H906.482Z" fill="white"/>
<path d="M906.482 326.042V327.033H905.189V328.519H904.327V327.033H903.034V326.042H904.327V324.556H905.189V326.042H906.482Z" fill="white"/>
<path d="M906.482 337.93V338.921H905.189V340.407H904.327V338.921H903.034V337.93H904.327V336.444H905.189V337.93H906.482Z" fill="white"/>
<path d="M906.482 349.82V350.81H905.189V352.297H904.327V350.81H903.034V349.82H904.327V348.333H905.189V349.82H906.482Z" fill="white"/>
<path d="M906.482 361.708V362.699H905.189V364.185H904.327V362.699H903.034V361.708H904.327V360.222H905.189V361.708H906.482Z" fill="white"/>
<path d="M906.482 373.597V374.588H905.189V376.074H904.327V374.588H903.034V373.597H904.327V372.111H905.189V373.597H906.482Z" fill="white"/>
<path d="M906.482 385.486V386.477H905.189V387.963H904.327V386.477H903.034V385.486H904.327V384H905.189V385.486H906.482Z" fill="white"/>
<path d="M906.482 397.375V398.366H905.189V399.852H904.327V398.366H903.034V397.375H904.327V395.889H905.189V397.375H906.482Z" fill="white"/>
<path d="M896.138 171.486V172.477H894.845V173.963H893.983V172.477H892.689V171.486H893.983V170H894.845V171.486H896.138Z" fill="white"/>
<path d="M896.138 183.375V184.366H894.845V185.852H893.983V184.366H892.689V183.375H893.983V181.889H894.845V183.375H896.138Z" fill="white"/>
<path d="M896.138 195.264V196.255H894.845V197.741H893.983V196.255H892.689V195.264H893.983V193.778H894.845V195.264H896.138Z" fill="white"/>
<path d="M896.138 207.153V208.144H894.845V209.63H893.983V208.144H892.689V207.153H893.983V205.667H894.845V207.153H896.138Z" fill="white"/>
<path d="M896.138 219.042V220.032H894.845V221.518H893.983V220.032H892.689V219.042H893.983V217.555H894.845V219.042H896.138Z" fill="white"/>
<path d="M896.138 230.93V231.921H894.845V233.407H893.983V231.921H892.689V230.93H893.983V229.444H894.845V230.93H896.138Z" fill="white"/>
<path d="M896.138 242.82V243.81H894.845V245.296H893.983V243.81H892.689V242.82H893.983V241.333H894.845V242.82H896.138Z" fill="white"/>
<path d="M896.138 254.708V255.699H894.845V257.185H893.983V255.699H892.689V254.708H893.983V253.222H894.845V254.708H896.138Z" fill="white"/>
<path d="M896.138 266.597V267.588H894.845V269.074H893.983V267.588H892.689V266.597H893.983V265.111H894.845V266.597H896.138Z" fill="white"/>
<path d="M896.138 278.486V279.477H894.845V280.963H893.983V279.477H892.689V278.486H893.983V277H894.845V278.486H896.138Z" fill="white"/>
<path d="M896.138 290.375V291.366H894.845V292.852H893.983V291.366H892.689V290.375H893.983V288.889H894.845V290.375H896.138Z" fill="white"/>
<path d="M896.138 302.264V303.255H894.845V304.741H893.983V303.255H892.689V302.264H893.983V300.778H894.845V302.264H896.138Z" fill="white"/>
<path d="M896.138 314.153V315.144H894.845V316.63H893.983V315.144H892.689V314.153H893.983V312.667H894.845V314.153H896.138Z" fill="white"/>
<path d="M896.138 326.042V327.033H894.845V328.519H893.983V327.033H892.689V326.042H893.983V324.556H894.845V326.042H896.138Z" fill="white"/>
<path d="M896.138 337.93V338.921H894.845V340.407H893.983V338.921H892.689V337.93H893.983V336.444H894.845V337.93H896.138Z" fill="white"/>
<path d="M896.138 349.82V350.81H894.845V352.297H893.983V350.81H892.689V349.82H893.983V348.333H894.845V349.82H896.138Z" fill="white"/>
<path d="M896.138 361.708V362.699H894.845V364.185H893.983V362.699H892.689V361.708H893.983V360.222H894.845V361.708H896.138Z" fill="white"/>
<path d="M896.138 373.597V374.588H894.845V376.074H893.983V374.588H892.689V373.597H893.983V372.111H894.845V373.597H896.138Z" fill="white"/>
<path d="M896.138 385.486V386.477H894.845V387.963H893.983V386.477H892.689V385.486H893.983V384H894.845V385.486H896.138Z" fill="white"/>
<path d="M896.138 397.375V398.366H894.845V399.852H893.983V398.366H892.689V397.375H893.983V395.889H894.845V397.375H896.138Z" fill="white"/>
<path d="M885.793 171.486V172.477H884.5V173.963H883.638V172.477H882.345V171.486H883.638V170H884.5V171.486H885.793Z" fill="white"/>
<path d="M885.793 183.375V184.366H884.5V185.852H883.638V184.366H882.345V183.375H883.638V181.889H884.5V183.375H885.793Z" fill="white"/>
<path d="M885.793 195.264V196.255H884.5V197.741H883.638V196.255H882.345V195.264H883.638V193.778H884.5V195.264H885.793Z" fill="white"/>
<path d="M885.793 207.153V208.144H884.5V209.63H883.638V208.144H882.345V207.153H883.638V205.667H884.5V207.153H885.793Z" fill="white"/>
<path d="M885.793 219.042V220.032H884.5V221.518H883.638V220.032H882.345V219.042H883.638V217.555H884.5V219.042H885.793Z" fill="white"/>
<path d="M885.793 230.93V231.921H884.5V233.407H883.638V231.921H882.345V230.93H883.638V229.444H884.5V230.93H885.793Z" fill="white"/>
<path d="M885.793 242.82V243.81H884.5V245.296H883.638V243.81H882.345V242.82H883.638V241.333H884.5V242.82H885.793Z" fill="white"/>
<path d="M885.793 254.708V255.699H884.5V257.185H883.638V255.699H882.345V254.708H883.638V253.222H884.5V254.708H885.793Z" fill="white"/>
<path d="M885.793 266.597V267.588H884.5V269.074H883.638V267.588H882.345V266.597H883.638V265.111H884.5V266.597H885.793Z" fill="white"/>
<path d="M885.793 278.486V279.477H884.5V280.963H883.638V279.477H882.345V278.486H883.638V277H884.5V278.486H885.793Z" fill="white"/>
<path d="M885.793 290.375V291.366H884.5V292.852H883.638V291.366H882.345V290.375H883.638V288.889H884.5V290.375H885.793Z" fill="white"/>
<path d="M885.793 302.264V303.255H884.5V304.741H883.638V303.255H882.345V302.264H883.638V300.778H884.5V302.264H885.793Z" fill="white"/>
<path d="M885.793 314.153V315.144H884.5V316.63H883.638V315.144H882.345V314.153H883.638V312.667H884.5V314.153H885.793Z" fill="white"/>
<path d="M885.793 326.042V327.033H884.5V328.519H883.638V327.033H882.345V326.042H883.638V324.556H884.5V326.042H885.793Z" fill="white"/>
<path d="M885.793 337.93V338.921H884.5V340.407H883.638V338.921H882.345V337.93H883.638V336.444H884.5V337.93H885.793Z" fill="white"/>
<path d="M885.793 349.82V350.81H884.5V352.297H883.638V350.81H882.345V349.82H883.638V348.333H884.5V349.82H885.793Z" fill="white"/>
<path d="M885.793 361.708V362.699H884.5V364.185H883.638V362.699H882.345V361.708H883.638V360.222H884.5V361.708H885.793Z" fill="white"/>
<path d="M885.793 373.597V374.588H884.5V376.074H883.638V374.588H882.345V373.597H883.638V372.111H884.5V373.597H885.793Z" fill="white"/>
<path d="M885.793 385.486V386.477H884.5V387.963H883.638V386.477H882.345V385.486H883.638V384H884.5V385.486H885.793Z" fill="white"/>
<path d="M885.793 397.375V398.366H884.5V399.852H883.638V398.366H882.345V397.375H883.638V395.889H884.5V397.375H885.793Z" fill="white"/>
<path d="M875.448 171.486V172.477H874.155V173.963H873.293V172.477H872V171.486H873.293V170H874.155V171.486H875.448Z" fill="white"/>
<path d="M875.448 183.375V184.366H874.155V185.852H873.293V184.366H872V183.375H873.293V181.889H874.155V183.375H875.448Z" fill="white"/>
<path d="M875.448 195.264V196.255H874.155V197.741H873.293V196.255H872V195.264H873.293V193.778H874.155V195.264H875.448Z" fill="white"/>
<path d="M875.448 207.153V208.144H874.155V209.63H873.293V208.144H872V207.153H873.293V205.667H874.155V207.153H875.448Z" fill="white"/>
<path d="M875.448 219.042V220.032H874.155V221.518H873.293V220.032H872V219.042H873.293V217.555H874.155V219.042H875.448Z" fill="white"/>
<path d="M875.448 230.93V231.921H874.155V233.407H873.293V231.921H872V230.93H873.293V229.444H874.155V230.93H875.448Z" fill="white"/>
<path d="M875.448 242.82V243.81H874.155V245.296H873.293V243.81H872V242.82H873.293V241.333H874.155V242.82H875.448Z" fill="white"/>
<path d="M875.448 254.708V255.699H874.155V257.185H873.293V255.699H872V254.708H873.293V253.222H874.155V254.708H875.448Z" fill="white"/>
<path d="M875.448 266.597V267.588H874.155V269.074H873.293V267.588H872V266.597H873.293V265.111H874.155V266.597H875.448Z" fill="white"/>
<path d="M875.448 278.486V279.477H874.155V280.963H873.293V279.477H872V278.486H873.293V277H874.155V278.486H875.448Z" fill="white"/>
<path d="M875.448 290.375V291.366H874.155V292.852H873.293V291.366H872V290.375H873.293V288.889H874.155V290.375H875.448Z" fill="white"/>
<path d="M875.448 302.264V303.255H874.155V304.741H873.293V303.255H872V302.264H873.293V300.778H874.155V302.264H875.448Z" fill="white"/>
<path d="M875.448 314.153V315.144H874.155V316.63H873.293V315.144H872V314.153H873.293V312.667H874.155V314.153H875.448Z" fill="white"/>
<path d="M875.448 326.042V327.033H874.155V328.519H873.293V327.033H872V326.042H873.293V324.556H874.155V326.042H875.448Z" fill="white"/>
<path d="M875.448 337.93V338.921H874.155V340.407H873.293V338.921H872V337.93H873.293V336.444H874.155V337.93H875.448Z" fill="white"/>
<path d="M875.448 349.82V350.81H874.155V352.297H873.293V350.81H872V349.82H873.293V348.333H874.155V349.82H875.448Z" fill="white"/>
<path d="M875.448 361.708V362.699H874.155V364.185H873.293V362.699H872V361.708H873.293V360.222H874.155V361.708H875.448Z" fill="white"/>
<path d="M875.448 373.597V374.588H874.155V376.074H873.293V374.588H872V373.597H873.293V372.111H874.155V373.597H875.448Z" fill="white"/>
<path d="M875.448 385.486V386.477H874.155V387.963H873.293V386.477H872V385.486H873.293V384H874.155V385.486H875.448Z" fill="white"/>
<path d="M875.448 397.375V398.366H874.155V399.852H873.293V398.366H872V397.375H873.293V395.889H874.155V397.375H875.448Z" fill="white"/>
</g>
<defs>
<linearGradient id="paint0_linear_291_2" x1="-21.6667" y1="-18.81" x2="1277.35" y2="772.478" gradientUnits="userSpaceOnUse">
<stop stop-color="#1E3C72"/>
<stop offset="1" stop-color="#2657AD"/>
</linearGradient>
<linearGradient id="paint1_linear_291_2" x1="-21.6667" y1="-18.81" x2="1277.35" y2="772.478" gradientUnits="userSpaceOnUse">
<stop stop-color="#1E3C72"/>
<stop offset="1" stop-color="#2A5298"/>
</linearGradient>
</defs>
</svg>
