<svg width="18" height="18" viewBox="0 0 18 18" fill="none" xmlns="http://www.w3.org/2000/svg">
<path fill-rule="evenodd" clip-rule="evenodd" d="M8.99995 0C4.03747 0 0 4.03693 0 8.99997C0 13.9625 4.03747 18 8.99995 18C13.9624 18 18 13.9625 18 8.99997C18 4.03693 13.9624 0 8.99995 0ZM14.0176 5.99813L8.47918 12.2289C8.34281 12.3828 8.15279 12.4617 7.96131 12.4617C7.8094 12.4617 7.65675 12.4118 7.52904 12.3097L4.06742 9.54054C3.76903 9.30199 3.72064 8.8665 3.95947 8.56747C4.19802 8.26844 4.6341 8.22054 4.93249 8.45956L7.88067 10.8175L12.9826 5.07829C13.2361 4.79232 13.6742 4.76667 13.9598 5.0207C14.2458 5.27523 14.2717 5.71216 14.0176 5.99813Z" fill="#1C75BC"/>
</svg>
