<svg width="302" height="347" viewBox="0 0 302 347" fill="none" xmlns="http://www.w3.org/2000/svg">
<g opacity="0.15">
<path d="M302 2.2382V3.73033H300.047V5.96854H298.746V3.73033H296.793V2.2382H298.746V0H300.047V2.2382H302Z" fill="#295271"/>
<path d="M302 20.1438V21.6359H300.047V23.8741H298.746V21.6359H296.793V20.1438H298.746V17.9056H300.047V20.1438H302Z" fill="#295271"/>
<path d="M302 38.0494V39.5416H300.047V41.7798H298.746V39.5416H296.793V38.0494H298.746V35.8112H300.047V38.0494H302Z" fill="#295271"/>
<path d="M302 55.9549V57.4471H300.047V59.6853H298.746V57.4471H296.793V55.9549H298.746V53.7167H300.047V55.9549H302Z" fill="#295271"/>
<path d="M302 73.8606V75.3527H300.047V77.5909H298.746V75.3527H296.793V73.8606H298.746V71.6224H300.047V73.8606H302Z" fill="#295271"/>
<path d="M302 91.7661V93.2583H300.047V95.4965H298.746V93.2583H296.793V91.7661H298.746V89.528H300.047V91.7661H302Z" fill="#295271"/>
<path d="M302 109.672V111.164H300.047V113.402H298.746V111.164H296.793V109.672H298.746V107.434H300.047V109.672H302Z" fill="#295271"/>
<path d="M302 127.577V129.069H300.047V131.308H298.746V129.069H296.793V127.577H298.746V125.339H300.047V127.577H302Z" fill="#295271"/>
<path d="M302 145.483V146.975H300.047V149.213H298.746V146.975H296.793V145.483H298.746V143.245H300.047V145.483H302Z" fill="#295271"/>
<path d="M302 163.389V164.881H300.047V167.119H298.746V164.881H296.793V163.389H298.746V161.15H300.047V163.389H302Z" fill="#295271"/>
<path d="M302 181.294V182.786H300.047V185.025H298.746V182.786H296.793V181.294H298.746V179.056H300.047V181.294H302Z" fill="#295271"/>
<path d="M302 199.2V200.692H300.047V202.93H298.746V200.692H296.793V199.2H298.746V196.962H300.047V199.2H302Z" fill="#295271"/>
<path d="M302 217.105V218.597H300.047V220.836H298.746V218.597H296.793V217.105H298.746V214.867H300.047V217.105H302Z" fill="#295271"/>
<path d="M302 235.011V236.503H300.047V238.741H298.746V236.503H296.793V235.011H298.746V232.773H300.047V235.011H302Z" fill="#295271"/>
<path d="M302 252.916V254.409H300.047V256.647H298.746V254.409H296.793V252.916H298.746V250.678H300.047V252.916H302Z" fill="#295271"/>
<path d="M302 270.822V272.314H300.047V274.552H298.746V272.314H296.793V270.822H298.746V268.584H300.047V270.822H302Z" fill="#295271"/>
<path d="M302 288.728V290.22H300.047V292.458H298.746V290.22H296.793V288.728H298.746V286.489H300.047V288.728H302Z" fill="#295271"/>
<path d="M302 306.633V308.125H300.047V310.364H298.746V308.125H296.793V306.633H298.746V304.395H300.047V306.633H302Z" fill="#295271"/>
<path d="M302 324.539V326.031H300.047V328.269H298.746V326.031H296.793V324.539H298.746V322.301H300.047V324.539H302Z" fill="#295271"/>
<path d="M302 342.444V343.937H300.047V346.175H298.746V343.937H296.793V342.444H298.746V340.206H300.047V342.444H302Z" fill="#295271"/>
<path d="M286.38 2.2382V3.73033H284.427V5.96854H283.125V3.73033H281.173V2.2382H283.125V0H284.427V2.2382H286.38Z" fill="#295271"/>
<path d="M286.38 20.1438V21.6359H284.427V23.8741H283.125V21.6359H281.173V20.1438H283.125V17.9056H284.427V20.1438H286.38Z" fill="#295271"/>
<path d="M286.38 38.0494V39.5416H284.427V41.7798H283.125V39.5416H281.173V38.0494H283.125V35.8112H284.427V38.0494H286.38Z" fill="#295271"/>
<path d="M286.38 55.9549V57.4471H284.427V59.6853H283.125V57.4471H281.173V55.9549H283.125V53.7167H284.427V55.9549H286.38Z" fill="#295271"/>
<path d="M286.38 73.8606V75.3527H284.427V77.5909H283.125V75.3527H281.173V73.8606H283.125V71.6224H284.427V73.8606H286.38Z" fill="#295271"/>
<path d="M286.38 91.7661V93.2583H284.427V95.4965H283.125V93.2583H281.173V91.7661H283.125V89.528H284.427V91.7661H286.38Z" fill="#295271"/>
<path d="M286.38 109.672V111.164H284.427V113.402H283.125V111.164H281.173V109.672H283.125V107.434H284.427V109.672H286.38Z" fill="#295271"/>
<path d="M286.38 127.577V129.069H284.427V131.308H283.125V129.069H281.173V127.577H283.125V125.339H284.427V127.577H286.38Z" fill="#295271"/>
<path d="M286.38 145.483V146.975H284.427V149.213H283.125V146.975H281.173V145.483H283.125V143.245H284.427V145.483H286.38Z" fill="#295271"/>
<path d="M286.38 163.389V164.881H284.427V167.119H283.125V164.881H281.173V163.389H283.125V161.15H284.427V163.389H286.38Z" fill="#295271"/>
<path d="M286.38 181.294V182.786H284.427V185.025H283.125V182.786H281.173V181.294H283.125V179.056H284.427V181.294H286.38Z" fill="#295271"/>
<path d="M286.38 199.2V200.692H284.427V202.93H283.125V200.692H281.173V199.2H283.125V196.962H284.427V199.2H286.38Z" fill="#295271"/>
<path d="M286.38 217.105V218.597H284.427V220.836H283.125V218.597H281.173V217.105H283.125V214.867H284.427V217.105H286.38Z" fill="#295271"/>
<path d="M286.38 235.011V236.503H284.427V238.741H283.125V236.503H281.173V235.011H283.125V232.773H284.427V235.011H286.38Z" fill="#295271"/>
<path d="M286.38 252.916V254.409H284.427V256.647H283.125V254.409H281.173V252.916H283.125V250.678H284.427V252.916H286.38Z" fill="#295271"/>
<path d="M286.38 270.822V272.314H284.427V274.552H283.125V272.314H281.173V270.822H283.125V268.584H284.427V270.822H286.38Z" fill="#295271"/>
<path d="M286.38 288.728V290.22H284.427V292.458H283.125V290.22H281.173V288.728H283.125V286.489H284.427V288.728H286.38Z" fill="#295271"/>
<path d="M286.38 306.633V308.125H284.427V310.364H283.125V308.125H281.173V306.633H283.125V304.395H284.427V306.633H286.38Z" fill="#295271"/>
<path d="M286.38 324.539V326.031H284.427V328.269H283.125V326.031H281.173V324.539H283.125V322.301H284.427V324.539H286.38Z" fill="#295271"/>
<path d="M286.38 342.444V343.937H284.427V346.175H283.125V343.937H281.173V342.444H283.125V340.206H284.427V342.444H286.38Z" fill="#295271"/>
<path d="M270.759 2.2382V3.73033H268.806V5.96854H267.504V3.73033H265.552V2.2382H267.504V0H268.806V2.2382H270.759Z" fill="#295271"/>
<path d="M270.759 20.1438V21.6359H268.806V23.8741H267.504V21.6359H265.552V20.1438H267.504V17.9056H268.806V20.1438H270.759Z" fill="#295271"/>
<path d="M270.759 38.0494V39.5416H268.806V41.7798H267.504V39.5416H265.552V38.0494H267.504V35.8112H268.806V38.0494H270.759Z" fill="#295271"/>
<path d="M270.759 55.9549V57.4471H268.806V59.6853H267.504V57.4471H265.552V55.9549H267.504V53.7167H268.806V55.9549H270.759Z" fill="#295271"/>
<path d="M270.759 73.8606V75.3527H268.806V77.5909H267.504V75.3527H265.552V73.8606H267.504V71.6224H268.806V73.8606H270.759Z" fill="#295271"/>
<path d="M270.759 91.7661V93.2583H268.806V95.4965H267.504V93.2583H265.552V91.7661H267.504V89.528H268.806V91.7661H270.759Z" fill="#295271"/>
<path d="M270.759 109.672V111.164H268.806V113.402H267.504V111.164H265.552V109.672H267.504V107.434H268.806V109.672H270.759Z" fill="#295271"/>
<path d="M270.759 127.577V129.069H268.806V131.308H267.504V129.069H265.552V127.577H267.504V125.339H268.806V127.577H270.759Z" fill="#295271"/>
<path d="M270.759 145.483V146.975H268.806V149.213H267.504V146.975H265.552V145.483H267.504V143.245H268.806V145.483H270.759Z" fill="#295271"/>
<path d="M270.759 163.389V164.881H268.806V167.119H267.504V164.881H265.552V163.389H267.504V161.15H268.806V163.389H270.759Z" fill="#295271"/>
<path d="M270.759 181.294V182.786H268.806V185.025H267.504V182.786H265.552V181.294H267.504V179.056H268.806V181.294H270.759Z" fill="#295271"/>
<path d="M270.759 199.2V200.692H268.806V202.93H267.504V200.692H265.552V199.2H267.504V196.962H268.806V199.2H270.759Z" fill="#295271"/>
<path d="M270.759 217.105V218.597H268.806V220.836H267.504V218.597H265.552V217.105H267.504V214.867H268.806V217.105H270.759Z" fill="#295271"/>
<path d="M270.759 235.011V236.503H268.806V238.741H267.504V236.503H265.552V235.011H267.504V232.773H268.806V235.011H270.759Z" fill="#295271"/>
<path d="M270.759 252.916V254.409H268.806V256.647H267.504V254.409H265.552V252.916H267.504V250.678H268.806V252.916H270.759Z" fill="#295271"/>
<path d="M270.759 270.822V272.314H268.806V274.552H267.504V272.314H265.552V270.822H267.504V268.584H268.806V270.822H270.759Z" fill="#295271"/>
<path d="M270.759 288.728V290.22H268.806V292.458H267.504V290.22H265.552V288.728H267.504V286.489H268.806V288.728H270.759Z" fill="#295271"/>
<path d="M270.759 306.633V308.125H268.806V310.364H267.504V308.125H265.552V306.633H267.504V304.395H268.806V306.633H270.759Z" fill="#295271"/>
<path d="M270.759 324.539V326.031H268.806V328.269H267.504V326.031H265.552V324.539H267.504V322.301H268.806V324.539H270.759Z" fill="#295271"/>
<path d="M270.759 342.444V343.937H268.806V346.175H267.504V343.937H265.552V342.444H267.504V340.206H268.806V342.444H270.759Z" fill="#295271"/>
<path d="M255.138 2.2382V3.73033H253.186V5.96854H251.884V3.73033H249.931V2.2382H251.884V0H253.186V2.2382H255.138Z" fill="#295271"/>
<path d="M255.138 20.1438V21.6359H253.186V23.8741H251.884V21.6359H249.931V20.1438H251.884V17.9056H253.186V20.1438H255.138Z" fill="#295271"/>
<path d="M255.138 38.0494V39.5416H253.186V41.7798H251.884V39.5416H249.931V38.0494H251.884V35.8112H253.186V38.0494H255.138Z" fill="#295271"/>
<path d="M255.138 55.9549V57.4471H253.186V59.6853H251.884V57.4471H249.931V55.9549H251.884V53.7167H253.186V55.9549H255.138Z" fill="#295271"/>
<path d="M255.138 73.8606V75.3527H253.186V77.5909H251.884V75.3527H249.931V73.8606H251.884V71.6224H253.186V73.8606H255.138Z" fill="#295271"/>
<path d="M255.138 91.7661V93.2583H253.186V95.4965H251.884V93.2583H249.931V91.7661H251.884V89.528H253.186V91.7661H255.138Z" fill="#295271"/>
<path d="M255.138 109.672V111.164H253.186V113.402H251.884V111.164H249.931V109.672H251.884V107.434H253.186V109.672H255.138Z" fill="#295271"/>
<path d="M255.138 127.577V129.069H253.186V131.308H251.884V129.069H249.931V127.577H251.884V125.339H253.186V127.577H255.138Z" fill="#295271"/>
<path d="M255.138 145.483V146.975H253.186V149.213H251.884V146.975H249.931V145.483H251.884V143.245H253.186V145.483H255.138Z" fill="#295271"/>
<path d="M255.138 163.389V164.881H253.186V167.119H251.884V164.881H249.931V163.389H251.884V161.15H253.186V163.389H255.138Z" fill="#295271"/>
<path d="M255.138 181.294V182.786H253.186V185.025H251.884V182.786H249.931V181.294H251.884V179.056H253.186V181.294H255.138Z" fill="#295271"/>
<path d="M255.138 199.2V200.692H253.186V202.93H251.884V200.692H249.931V199.2H251.884V196.962H253.186V199.2H255.138Z" fill="#295271"/>
<path d="M255.138 217.105V218.597H253.186V220.836H251.884V218.597H249.931V217.105H251.884V214.867H253.186V217.105H255.138Z" fill="#295271"/>
<path d="M255.138 235.011V236.503H253.186V238.741H251.884V236.503H249.931V235.011H251.884V232.773H253.186V235.011H255.138Z" fill="#295271"/>
<path d="M255.138 252.916V254.409H253.186V256.647H251.884V254.409H249.931V252.916H251.884V250.678H253.186V252.916H255.138Z" fill="#295271"/>
<path d="M255.138 270.822V272.314H253.186V274.552H251.884V272.314H249.931V270.822H251.884V268.584H253.186V270.822H255.138Z" fill="#295271"/>
<path d="M255.138 288.728V290.22H253.186V292.458H251.884V290.22H249.931V288.728H251.884V286.489H253.186V288.728H255.138Z" fill="#295271"/>
<path d="M255.138 306.633V308.125H253.186V310.364H251.884V308.125H249.931V306.633H251.884V304.395H253.186V306.633H255.138Z" fill="#295271"/>
<path d="M255.138 324.539V326.031H253.186V328.269H251.884V326.031H249.931V324.539H251.884V322.301H253.186V324.539H255.138Z" fill="#295271"/>
<path d="M255.138 342.444V343.937H253.186V346.175H251.884V343.937H249.931V342.444H251.884V340.206H253.186V342.444H255.138Z" fill="#295271"/>
<path d="M239.518 2.2382V3.73033H237.565V5.96854H236.263V3.73033H234.311V2.2382H236.263V0H237.565V2.2382H239.518Z" fill="#295271"/>
<path d="M239.518 20.1438V21.6359H237.565V23.8741H236.263V21.6359H234.311V20.1438H236.263V17.9056H237.565V20.1438H239.518Z" fill="#295271"/>
<path d="M239.518 38.0494V39.5416H237.565V41.7798H236.263V39.5416H234.311V38.0494H236.263V35.8112H237.565V38.0494H239.518Z" fill="#295271"/>
<path d="M239.518 55.9549V57.4471H237.565V59.6853H236.263V57.4471H234.311V55.9549H236.263V53.7167H237.565V55.9549H239.518Z" fill="#295271"/>
<path d="M239.518 73.8606V75.3527H237.565V77.5909H236.263V75.3527H234.311V73.8606H236.263V71.6224H237.565V73.8606H239.518Z" fill="#295271"/>
<path d="M239.518 91.7661V93.2583H237.565V95.4965H236.263V93.2583H234.311V91.7661H236.263V89.528H237.565V91.7661H239.518Z" fill="#295271"/>
<path d="M239.518 109.672V111.164H237.565V113.402H236.263V111.164H234.311V109.672H236.263V107.434H237.565V109.672H239.518Z" fill="#295271"/>
<path d="M239.518 127.577V129.069H237.565V131.308H236.263V129.069H234.311V127.577H236.263V125.339H237.565V127.577H239.518Z" fill="#295271"/>
<path d="M239.518 145.483V146.975H237.565V149.213H236.263V146.975H234.311V145.483H236.263V143.245H237.565V145.483H239.518Z" fill="#295271"/>
<path d="M239.518 163.389V164.881H237.565V167.119H236.263V164.881H234.311V163.389H236.263V161.15H237.565V163.389H239.518Z" fill="#295271"/>
<path d="M239.518 181.294V182.786H237.565V185.025H236.263V182.786H234.311V181.294H236.263V179.056H237.565V181.294H239.518Z" fill="#295271"/>
<path d="M239.518 199.2V200.692H237.565V202.93H236.263V200.692H234.311V199.2H236.263V196.962H237.565V199.2H239.518Z" fill="#295271"/>
<path d="M239.518 217.105V218.597H237.565V220.836H236.263V218.597H234.311V217.105H236.263V214.867H237.565V217.105H239.518Z" fill="#295271"/>
<path d="M239.518 235.011V236.503H237.565V238.741H236.263V236.503H234.311V235.011H236.263V232.773H237.565V235.011H239.518Z" fill="#295271"/>
<path d="M239.518 252.916V254.409H237.565V256.647H236.263V254.409H234.311V252.916H236.263V250.678H237.565V252.916H239.518Z" fill="#295271"/>
<path d="M239.518 270.822V272.314H237.565V274.552H236.263V272.314H234.311V270.822H236.263V268.584H237.565V270.822H239.518Z" fill="#295271"/>
<path d="M239.518 288.728V290.22H237.565V292.458H236.263V290.22H234.311V288.728H236.263V286.489H237.565V288.728H239.518Z" fill="#295271"/>
<path d="M239.518 306.633V308.125H237.565V310.364H236.263V308.125H234.311V306.633H236.263V304.395H237.565V306.633H239.518Z" fill="#295271"/>
<path d="M239.518 324.539V326.031H237.565V328.269H236.263V326.031H234.311V324.539H236.263V322.301H237.565V324.539H239.518Z" fill="#295271"/>
<path d="M239.518 342.444V343.937H237.565V346.175H236.263V343.937H234.311V342.444H236.263V340.206H237.565V342.444H239.518Z" fill="#295271"/>
<path d="M223.897 2.2382V3.73033H221.944V5.96854H220.642V3.73033H218.69V2.2382H220.642V0H221.944V2.2382H223.897Z" fill="#295271"/>
<path d="M223.897 20.1438V21.6359H221.944V23.8741H220.642V21.6359H218.69V20.1438H220.642V17.9056H221.944V20.1438H223.897Z" fill="#295271"/>
<path d="M223.897 38.0494V39.5416H221.944V41.7798H220.642V39.5416H218.69V38.0494H220.642V35.8112H221.944V38.0494H223.897Z" fill="#295271"/>
<path d="M223.897 55.9549V57.4471H221.944V59.6853H220.642V57.4471H218.69V55.9549H220.642V53.7167H221.944V55.9549H223.897Z" fill="#295271"/>
<path d="M223.897 73.8606V75.3527H221.944V77.5909H220.642V75.3527H218.69V73.8606H220.642V71.6224H221.944V73.8606H223.897Z" fill="#295271"/>
<path d="M223.897 91.7661V93.2583H221.944V95.4965H220.642V93.2583H218.69V91.7661H220.642V89.528H221.944V91.7661H223.897Z" fill="#295271"/>
<path d="M223.897 109.672V111.164H221.944V113.402H220.642V111.164H218.69V109.672H220.642V107.434H221.944V109.672H223.897Z" fill="#295271"/>
<path d="M223.897 127.577V129.069H221.944V131.308H220.642V129.069H218.69V127.577H220.642V125.339H221.944V127.577H223.897Z" fill="#295271"/>
<path d="M223.897 145.483V146.975H221.944V149.213H220.642V146.975H218.69V145.483H220.642V143.245H221.944V145.483H223.897Z" fill="#295271"/>
<path d="M223.897 163.389V164.881H221.944V167.119H220.642V164.881H218.69V163.389H220.642V161.15H221.944V163.389H223.897Z" fill="#295271"/>
<path d="M223.897 181.294V182.786H221.944V185.025H220.642V182.786H218.69V181.294H220.642V179.056H221.944V181.294H223.897Z" fill="#295271"/>
<path d="M223.897 199.2V200.692H221.944V202.93H220.642V200.692H218.69V199.2H220.642V196.962H221.944V199.2H223.897Z" fill="#295271"/>
<path d="M223.897 217.105V218.597H221.944V220.836H220.642V218.597H218.69V217.105H220.642V214.867H221.944V217.105H223.897Z" fill="#295271"/>
<path d="M223.897 235.011V236.503H221.944V238.741H220.642V236.503H218.69V235.011H220.642V232.773H221.944V235.011H223.897Z" fill="#295271"/>
<path d="M223.897 252.916V254.409H221.944V256.647H220.642V254.409H218.69V252.916H220.642V250.678H221.944V252.916H223.897Z" fill="#295271"/>
<path d="M223.897 270.822V272.314H221.944V274.552H220.642V272.314H218.69V270.822H220.642V268.584H221.944V270.822H223.897Z" fill="#295271"/>
<path d="M223.897 288.728V290.22H221.944V292.458H220.642V290.22H218.69V288.728H220.642V286.489H221.944V288.728H223.897Z" fill="#295271"/>
<path d="M223.897 306.633V308.125H221.944V310.364H220.642V308.125H218.69V306.633H220.642V304.395H221.944V306.633H223.897Z" fill="#295271"/>
<path d="M223.897 324.539V326.031H221.944V328.269H220.642V326.031H218.69V324.539H220.642V322.301H221.944V324.539H223.897Z" fill="#295271"/>
<path d="M223.897 342.444V343.937H221.944V346.175H220.642V343.937H218.69V342.444H220.642V340.206H221.944V342.444H223.897Z" fill="#295271"/>
<path d="M208.276 2.2382V3.73033H206.324V5.96854H205.022V3.73033H203.069V2.2382H205.022V0H206.324V2.2382H208.276Z" fill="#295271"/>
<path d="M208.276 20.1438V21.6359H206.324V23.8741H205.022V21.6359H203.069V20.1438H205.022V17.9056H206.324V20.1438H208.276Z" fill="#295271"/>
<path d="M208.276 38.0494V39.5416H206.324V41.7798H205.022V39.5416H203.069V38.0494H205.022V35.8112H206.324V38.0494H208.276Z" fill="#295271"/>
<path d="M208.276 55.9549V57.4471H206.324V59.6853H205.022V57.4471H203.069V55.9549H205.022V53.7167H206.324V55.9549H208.276Z" fill="#295271"/>
<path d="M208.276 73.8606V75.3527H206.324V77.5909H205.022V75.3527H203.069V73.8606H205.022V71.6224H206.324V73.8606H208.276Z" fill="#295271"/>
<path d="M208.276 91.7661V93.2583H206.324V95.4965H205.022V93.2583H203.069V91.7661H205.022V89.528H206.324V91.7661H208.276Z" fill="#295271"/>
<path d="M208.276 109.672V111.164H206.324V113.402H205.022V111.164H203.069V109.672H205.022V107.434H206.324V109.672H208.276Z" fill="#295271"/>
<path d="M208.276 127.577V129.069H206.324V131.308H205.022V129.069H203.069V127.577H205.022V125.339H206.324V127.577H208.276Z" fill="#295271"/>
<path d="M208.276 145.483V146.975H206.324V149.213H205.022V146.975H203.069V145.483H205.022V143.245H206.324V145.483H208.276Z" fill="#295271"/>
<path d="M208.276 163.389V164.881H206.324V167.119H205.022V164.881H203.069V163.389H205.022V161.15H206.324V163.389H208.276Z" fill="#295271"/>
<path d="M208.276 181.294V182.786H206.324V185.025H205.022V182.786H203.069V181.294H205.022V179.056H206.324V181.294H208.276Z" fill="#295271"/>
<path d="M208.276 199.2V200.692H206.324V202.93H205.022V200.692H203.069V199.2H205.022V196.962H206.324V199.2H208.276Z" fill="#295271"/>
<path d="M208.276 217.105V218.597H206.324V220.836H205.022V218.597H203.069V217.105H205.022V214.867H206.324V217.105H208.276Z" fill="#295271"/>
<path d="M208.276 235.011V236.503H206.324V238.741H205.022V236.503H203.069V235.011H205.022V232.773H206.324V235.011H208.276Z" fill="#295271"/>
<path d="M208.276 252.916V254.409H206.324V256.647H205.022V254.409H203.069V252.916H205.022V250.678H206.324V252.916H208.276Z" fill="#295271"/>
<path d="M208.276 270.822V272.314H206.324V274.552H205.022V272.314H203.069V270.822H205.022V268.584H206.324V270.822H208.276Z" fill="#295271"/>
<path d="M208.276 288.728V290.22H206.324V292.458H205.022V290.22H203.069V288.728H205.022V286.489H206.324V288.728H208.276Z" fill="#295271"/>
<path d="M208.276 306.633V308.125H206.324V310.364H205.022V308.125H203.069V306.633H205.022V304.395H206.324V306.633H208.276Z" fill="#295271"/>
<path d="M208.276 324.539V326.031H206.324V328.269H205.022V326.031H203.069V324.539H205.022V322.301H206.324V324.539H208.276Z" fill="#295271"/>
<path d="M208.276 342.444V343.937H206.324V346.175H205.022V343.937H203.069V342.444H205.022V340.206H206.324V342.444H208.276Z" fill="#295271"/>
<path d="M192.655 2.2382V3.73033H190.703V5.96854H189.401V3.73033H187.448V2.2382H189.401V0H190.703V2.2382H192.655Z" fill="#295271"/>
<path d="M192.655 20.1438V21.6359H190.703V23.8741H189.401V21.6359H187.448V20.1438H189.401V17.9056H190.703V20.1438H192.655Z" fill="#295271"/>
<path d="M192.655 38.0494V39.5416H190.703V41.7798H189.401V39.5416H187.448V38.0494H189.401V35.8112H190.703V38.0494H192.655Z" fill="#295271"/>
<path d="M192.655 55.9549V57.4471H190.703V59.6853H189.401V57.4471H187.448V55.9549H189.401V53.7167H190.703V55.9549H192.655Z" fill="#295271"/>
<path d="M192.655 73.8606V75.3527H190.703V77.5909H189.401V75.3527H187.448V73.8606H189.401V71.6224H190.703V73.8606H192.655Z" fill="#295271"/>
<path d="M192.655 91.7661V93.2583H190.703V95.4965H189.401V93.2583H187.448V91.7661H189.401V89.528H190.703V91.7661H192.655Z" fill="#295271"/>
<path d="M192.655 109.672V111.164H190.703V113.402H189.401V111.164H187.448V109.672H189.401V107.434H190.703V109.672H192.655Z" fill="#295271"/>
<path d="M192.655 127.577V129.069H190.703V131.308H189.401V129.069H187.448V127.577H189.401V125.339H190.703V127.577H192.655Z" fill="#295271"/>
<path d="M192.655 145.483V146.975H190.703V149.213H189.401V146.975H187.448V145.483H189.401V143.245H190.703V145.483H192.655Z" fill="#295271"/>
<path d="M192.655 163.389V164.881H190.703V167.119H189.401V164.881H187.448V163.389H189.401V161.15H190.703V163.389H192.655Z" fill="#295271"/>
<path d="M192.655 181.294V182.786H190.703V185.025H189.401V182.786H187.448V181.294H189.401V179.056H190.703V181.294H192.655Z" fill="#295271"/>
<path d="M192.655 199.2V200.692H190.703V202.93H189.401V200.692H187.448V199.2H189.401V196.962H190.703V199.2H192.655Z" fill="#295271"/>
<path d="M192.655 217.105V218.597H190.703V220.836H189.401V218.597H187.448V217.105H189.401V214.867H190.703V217.105H192.655Z" fill="#295271"/>
<path d="M192.655 235.011V236.503H190.703V238.741H189.401V236.503H187.448V235.011H189.401V232.773H190.703V235.011H192.655Z" fill="#295271"/>
<path d="M192.655 252.916V254.409H190.703V256.647H189.401V254.409H187.448V252.916H189.401V250.678H190.703V252.916H192.655Z" fill="#295271"/>
<path d="M192.655 270.822V272.314H190.703V274.552H189.401V272.314H187.448V270.822H189.401V268.584H190.703V270.822H192.655Z" fill="#295271"/>
<path d="M192.655 288.728V290.22H190.703V292.458H189.401V290.22H187.448V288.728H189.401V286.489H190.703V288.728H192.655Z" fill="#295271"/>
<path d="M192.655 306.633V308.125H190.703V310.364H189.401V308.125H187.448V306.633H189.401V304.395H190.703V306.633H192.655Z" fill="#295271"/>
<path d="M192.655 324.539V326.031H190.703V328.269H189.401V326.031H187.448V324.539H189.401V322.301H190.703V324.539H192.655Z" fill="#295271"/>
<path d="M192.655 342.444V343.937H190.703V346.175H189.401V343.937H187.448V342.444H189.401V340.206H190.703V342.444H192.655Z" fill="#295271"/>
<path d="M177.035 2.2382V3.73033H175.082V5.96854H173.78V3.73033H171.828V2.2382H173.78V0H175.082V2.2382H177.035Z" fill="#295271"/>
<path d="M177.035 20.1438V21.6359H175.082V23.8741H173.78V21.6359H171.828V20.1438H173.78V17.9056H175.082V20.1438H177.035Z" fill="#295271"/>
<path d="M177.035 38.0494V39.5416H175.082V41.7798H173.78V39.5416H171.828V38.0494H173.78V35.8112H175.082V38.0494H177.035Z" fill="#295271"/>
<path d="M177.035 55.9549V57.4471H175.082V59.6853H173.78V57.4471H171.828V55.9549H173.78V53.7167H175.082V55.9549H177.035Z" fill="#295271"/>
<path d="M177.035 73.8606V75.3527H175.082V77.5909H173.78V75.3527H171.828V73.8606H173.78V71.6224H175.082V73.8606H177.035Z" fill="#295271"/>
<path d="M177.035 91.7661V93.2583H175.082V95.4965H173.78V93.2583H171.828V91.7661H173.78V89.528H175.082V91.7661H177.035Z" fill="#295271"/>
<path d="M177.035 109.672V111.164H175.082V113.402H173.78V111.164H171.828V109.672H173.78V107.434H175.082V109.672H177.035Z" fill="#295271"/>
<path d="M177.035 127.577V129.069H175.082V131.308H173.78V129.069H171.828V127.577H173.78V125.339H175.082V127.577H177.035Z" fill="#295271"/>
<path d="M177.035 145.483V146.975H175.082V149.213H173.78V146.975H171.828V145.483H173.78V143.245H175.082V145.483H177.035Z" fill="#295271"/>
<path d="M177.035 163.389V164.881H175.082V167.119H173.78V164.881H171.828V163.389H173.78V161.15H175.082V163.389H177.035Z" fill="#295271"/>
<path d="M177.035 181.294V182.786H175.082V185.025H173.78V182.786H171.828V181.294H173.78V179.056H175.082V181.294H177.035Z" fill="#295271"/>
<path d="M177.035 199.2V200.692H175.082V202.93H173.78V200.692H171.828V199.2H173.78V196.962H175.082V199.2H177.035Z" fill="#295271"/>
<path d="M177.035 217.105V218.597H175.082V220.836H173.78V218.597H171.828V217.105H173.78V214.867H175.082V217.105H177.035Z" fill="#295271"/>
<path d="M177.035 235.011V236.503H175.082V238.741H173.78V236.503H171.828V235.011H173.78V232.773H175.082V235.011H177.035Z" fill="#295271"/>
<path d="M177.035 252.916V254.409H175.082V256.647H173.78V254.409H171.828V252.916H173.78V250.678H175.082V252.916H177.035Z" fill="#295271"/>
<path d="M177.035 270.822V272.314H175.082V274.552H173.78V272.314H171.828V270.822H173.78V268.584H175.082V270.822H177.035Z" fill="#295271"/>
<path d="M177.035 288.728V290.22H175.082V292.458H173.78V290.22H171.828V288.728H173.78V286.489H175.082V288.728H177.035Z" fill="#295271"/>
<path d="M177.035 306.633V308.125H175.082V310.364H173.78V308.125H171.828V306.633H173.78V304.395H175.082V306.633H177.035Z" fill="#295271"/>
<path d="M177.035 324.539V326.031H175.082V328.269H173.78V326.031H171.828V324.539H173.78V322.301H175.082V324.539H177.035Z" fill="#295271"/>
<path d="M177.035 342.444V343.937H175.082V346.175H173.78V343.937H171.828V342.444H173.78V340.206H175.082V342.444H177.035Z" fill="#295271"/>
<path d="M161.414 2.2382V3.73033H159.461V5.96854H158.16V3.73033H156.207V2.2382H158.16V0H159.461V2.2382H161.414Z" fill="#295271"/>
<path d="M161.414 20.1438V21.6359H159.461V23.8741H158.16V21.6359H156.207V20.1438H158.16V17.9056H159.461V20.1438H161.414Z" fill="#295271"/>
<path d="M161.414 38.0494V39.5416H159.461V41.7798H158.16V39.5416H156.207V38.0494H158.16V35.8112H159.461V38.0494H161.414Z" fill="#295271"/>
<path d="M161.414 55.9549V57.4471H159.461V59.6853H158.16V57.4471H156.207V55.9549H158.16V53.7167H159.461V55.9549H161.414Z" fill="#295271"/>
<path d="M161.414 73.8606V75.3527H159.461V77.5909H158.16V75.3527H156.207V73.8606H158.16V71.6224H159.461V73.8606H161.414Z" fill="#295271"/>
<path d="M161.414 91.7661V93.2583H159.461V95.4965H158.16V93.2583H156.207V91.7661H158.16V89.528H159.461V91.7661H161.414Z" fill="#295271"/>
<path d="M161.414 109.672V111.164H159.461V113.402H158.16V111.164H156.207V109.672H158.16V107.434H159.461V109.672H161.414Z" fill="#295271"/>
<path d="M161.414 127.577V129.069H159.461V131.308H158.16V129.069H156.207V127.577H158.16V125.339H159.461V127.577H161.414Z" fill="#295271"/>
<path d="M161.414 145.483V146.975H159.461V149.213H158.16V146.975H156.207V145.483H158.16V143.245H159.461V145.483H161.414Z" fill="#295271"/>
<path d="M161.414 163.389V164.881H159.461V167.119H158.16V164.881H156.207V163.389H158.16V161.15H159.461V163.389H161.414Z" fill="#295271"/>
<path d="M161.414 181.294V182.786H159.461V185.025H158.16V182.786H156.207V181.294H158.16V179.056H159.461V181.294H161.414Z" fill="#295271"/>
<path d="M161.414 199.2V200.692H159.461V202.93H158.16V200.692H156.207V199.2H158.16V196.962H159.461V199.2H161.414Z" fill="#295271"/>
<path d="M161.414 217.105V218.597H159.461V220.836H158.16V218.597H156.207V217.105H158.16V214.867H159.461V217.105H161.414Z" fill="#295271"/>
<path d="M161.414 235.011V236.503H159.461V238.741H158.16V236.503H156.207V235.011H158.16V232.773H159.461V235.011H161.414Z" fill="#295271"/>
<path d="M161.414 252.916V254.409H159.461V256.647H158.16V254.409H156.207V252.916H158.16V250.678H159.461V252.916H161.414Z" fill="#295271"/>
<path d="M161.414 270.822V272.314H159.461V274.552H158.16V272.314H156.207V270.822H158.16V268.584H159.461V270.822H161.414Z" fill="#295271"/>
<path d="M161.414 288.728V290.22H159.461V292.458H158.16V290.22H156.207V288.728H158.16V286.489H159.461V288.728H161.414Z" fill="#295271"/>
<path d="M161.414 306.633V308.125H159.461V310.364H158.16V308.125H156.207V306.633H158.16V304.395H159.461V306.633H161.414Z" fill="#295271"/>
<path d="M161.414 324.539V326.031H159.461V328.269H158.16V326.031H156.207V324.539H158.16V322.301H159.461V324.539H161.414Z" fill="#295271"/>
<path d="M161.414 342.444V343.937H159.461V346.175H158.16V343.937H156.207V342.444H158.16V340.206H159.461V342.444H161.414Z" fill="#295271"/>
<path d="M145.793 2.2382V3.73033H143.841V5.96854H142.539V3.73033H140.586V2.2382H142.539V0H143.841V2.2382H145.793Z" fill="#295271"/>
<path d="M145.793 20.1438V21.6359H143.841V23.8741H142.539V21.6359H140.586V20.1438H142.539V17.9056H143.841V20.1438H145.793Z" fill="#295271"/>
<path d="M145.793 38.0494V39.5416H143.841V41.7798H142.539V39.5416H140.586V38.0494H142.539V35.8112H143.841V38.0494H145.793Z" fill="#295271"/>
<path d="M145.793 55.9549V57.4471H143.841V59.6853H142.539V57.4471H140.586V55.9549H142.539V53.7167H143.841V55.9549H145.793Z" fill="#295271"/>
<path d="M145.793 73.8606V75.3527H143.841V77.5909H142.539V75.3527H140.586V73.8606H142.539V71.6224H143.841V73.8606H145.793Z" fill="#295271"/>
<path d="M145.793 91.7661V93.2583H143.841V95.4965H142.539V93.2583H140.586V91.7661H142.539V89.528H143.841V91.7661H145.793Z" fill="#295271"/>
<path d="M145.793 109.672V111.164H143.841V113.402H142.539V111.164H140.586V109.672H142.539V107.434H143.841V109.672H145.793Z" fill="#295271"/>
<path d="M145.793 127.577V129.069H143.841V131.308H142.539V129.069H140.586V127.577H142.539V125.339H143.841V127.577H145.793Z" fill="#295271"/>
<path d="M145.793 145.483V146.975H143.841V149.213H142.539V146.975H140.586V145.483H142.539V143.245H143.841V145.483H145.793Z" fill="#295271"/>
<path d="M145.793 163.389V164.881H143.841V167.119H142.539V164.881H140.586V163.389H142.539V161.15H143.841V163.389H145.793Z" fill="#295271"/>
<path d="M145.793 181.294V182.786H143.841V185.025H142.539V182.786H140.586V181.294H142.539V179.056H143.841V181.294H145.793Z" fill="#295271"/>
<path d="M145.793 199.2V200.692H143.841V202.93H142.539V200.692H140.586V199.2H142.539V196.962H143.841V199.2H145.793Z" fill="#295271"/>
<path d="M145.793 217.105V218.597H143.841V220.836H142.539V218.597H140.586V217.105H142.539V214.867H143.841V217.105H145.793Z" fill="#295271"/>
<path d="M145.793 235.011V236.503H143.841V238.741H142.539V236.503H140.586V235.011H142.539V232.773H143.841V235.011H145.793Z" fill="#295271"/>
<path d="M145.793 252.916V254.409H143.841V256.647H142.539V254.409H140.586V252.916H142.539V250.678H143.841V252.916H145.793Z" fill="#295271"/>
<path d="M145.793 270.822V272.314H143.841V274.552H142.539V272.314H140.586V270.822H142.539V268.584H143.841V270.822H145.793Z" fill="#295271"/>
<path d="M145.793 288.728V290.22H143.841V292.458H142.539V290.22H140.586V288.728H142.539V286.489H143.841V288.728H145.793Z" fill="#295271"/>
<path d="M145.793 306.633V308.125H143.841V310.364H142.539V308.125H140.586V306.633H142.539V304.395H143.841V306.633H145.793Z" fill="#295271"/>
<path d="M145.793 324.539V326.031H143.841V328.269H142.539V326.031H140.586V324.539H142.539V322.301H143.841V324.539H145.793Z" fill="#295271"/>
<path d="M145.793 342.444V343.937H143.841V346.175H142.539V343.937H140.586V342.444H142.539V340.206H143.841V342.444H145.793Z" fill="#295271"/>
<path d="M130.172 2.2382V3.73033H128.22V5.96854H126.918V3.73033H124.966V2.2382H126.918V0H128.22V2.2382H130.172Z" fill="#295271"/>
<path d="M130.173 20.1438V21.6359H128.22V23.8741H126.918V21.6359H124.966V20.1438H126.918V17.9056H128.22V20.1438H130.173Z" fill="#295271"/>
<path d="M130.173 38.0494V39.5416H128.22V41.7798H126.918V39.5416H124.966V38.0494H126.918V35.8112H128.22V38.0494H130.173Z" fill="#295271"/>
<path d="M130.173 55.9549V57.4471H128.22V59.6853H126.918V57.4471H124.966V55.9549H126.918V53.7167H128.22V55.9549H130.173Z" fill="#295271"/>
<path d="M130.173 73.8606V75.3527H128.22V77.5909H126.918V75.3527H124.966V73.8606H126.918V71.6224H128.22V73.8606H130.173Z" fill="#295271"/>
<path d="M130.173 91.7661V93.2583H128.22V95.4965H126.918V93.2583H124.966V91.7661H126.918V89.528H128.22V91.7661H130.173Z" fill="#295271"/>
<path d="M130.173 109.672V111.164H128.22V113.402H126.918V111.164H124.966V109.672H126.918V107.434H128.22V109.672H130.173Z" fill="#295271"/>
<path d="M130.173 127.577V129.069H128.22V131.308H126.918V129.069H124.966V127.577H126.918V125.339H128.22V127.577H130.173Z" fill="#295271"/>
<path d="M130.173 145.483V146.975H128.22V149.213H126.918V146.975H124.966V145.483H126.918V143.245H128.22V145.483H130.173Z" fill="#295271"/>
<path d="M130.173 163.389V164.881H128.22V167.119H126.918V164.881H124.966V163.389H126.918V161.15H128.22V163.389H130.173Z" fill="#295271"/>
<path d="M130.173 181.294V182.786H128.22V185.025H126.918V182.786H124.966V181.294H126.918V179.056H128.22V181.294H130.173Z" fill="#295271"/>
<path d="M130.173 199.2V200.692H128.22V202.93H126.918V200.692H124.966V199.2H126.918V196.962H128.22V199.2H130.173Z" fill="#295271"/>
<path d="M130.173 217.105V218.597H128.22V220.836H126.918V218.597H124.966V217.105H126.918V214.867H128.22V217.105H130.173Z" fill="#295271"/>
<path d="M130.173 235.011V236.503H128.22V238.741H126.918V236.503H124.966V235.011H126.918V232.773H128.22V235.011H130.173Z" fill="#295271"/>
<path d="M130.173 252.916V254.409H128.22V256.647H126.918V254.409H124.966V252.916H126.918V250.678H128.22V252.916H130.173Z" fill="#295271"/>
<path d="M130.173 270.822V272.314H128.22V274.552H126.918V272.314H124.966V270.822H126.918V268.584H128.22V270.822H130.173Z" fill="#295271"/>
<path d="M130.173 288.728V290.22H128.22V292.458H126.918V290.22H124.966V288.728H126.918V286.489H128.22V288.728H130.173Z" fill="#295271"/>
<path d="M130.173 306.633V308.125H128.22V310.364H126.918V308.125H124.966V306.633H126.918V304.395H128.22V306.633H130.173Z" fill="#295271"/>
<path d="M130.173 324.539V326.031H128.22V328.269H126.918V326.031H124.966V324.539H126.918V322.301H128.22V324.539H130.173Z" fill="#295271"/>
<path d="M130.173 342.444V343.937H128.22V346.175H126.918V343.937H124.966V342.444H126.918V340.206H128.22V342.444H130.173Z" fill="#295271"/>
<path d="M114.552 2.2382V3.73033H112.599V5.96854H111.298V3.73033H109.345V2.2382H111.298V0H112.599V2.2382H114.552Z" fill="#295271"/>
<path d="M114.552 20.1438V21.6359H112.599V23.8741H111.298V21.6359H109.345V20.1438H111.298V17.9056H112.599V20.1438H114.552Z" fill="#295271"/>
<path d="M114.552 38.0494V39.5416H112.599V41.7798H111.298V39.5416H109.345V38.0494H111.298V35.8112H112.599V38.0494H114.552Z" fill="#295271"/>
<path d="M114.552 55.9549V57.4471H112.599V59.6853H111.298V57.4471H109.345V55.9549H111.298V53.7167H112.599V55.9549H114.552Z" fill="#295271"/>
<path d="M114.552 73.8606V75.3527H112.599V77.5909H111.298V75.3527H109.345V73.8606H111.298V71.6224H112.599V73.8606H114.552Z" fill="#295271"/>
<path d="M114.552 91.7661V93.2583H112.599V95.4965H111.298V93.2583H109.345V91.7661H111.298V89.528H112.599V91.7661H114.552Z" fill="#295271"/>
<path d="M114.552 109.672V111.164H112.599V113.402H111.298V111.164H109.345V109.672H111.298V107.434H112.599V109.672H114.552Z" fill="#295271"/>
<path d="M114.552 127.577V129.069H112.599V131.308H111.298V129.069H109.345V127.577H111.298V125.339H112.599V127.577H114.552Z" fill="#295271"/>
<path d="M114.552 145.483V146.975H112.599V149.213H111.298V146.975H109.345V145.483H111.298V143.245H112.599V145.483H114.552Z" fill="#295271"/>
<path d="M114.552 163.389V164.881H112.599V167.119H111.298V164.881H109.345V163.389H111.298V161.15H112.599V163.389H114.552Z" fill="#295271"/>
<path d="M114.552 181.294V182.786H112.599V185.025H111.298V182.786H109.345V181.294H111.298V179.056H112.599V181.294H114.552Z" fill="#295271"/>
<path d="M114.552 199.2V200.692H112.599V202.93H111.298V200.692H109.345V199.2H111.298V196.962H112.599V199.2H114.552Z" fill="#295271"/>
<path d="M114.552 217.105V218.597H112.599V220.836H111.298V218.597H109.345V217.105H111.298V214.867H112.599V217.105H114.552Z" fill="#295271"/>
<path d="M114.552 235.011V236.503H112.599V238.741H111.298V236.503H109.345V235.011H111.298V232.773H112.599V235.011H114.552Z" fill="#295271"/>
<path d="M114.552 252.916V254.409H112.599V256.647H111.298V254.409H109.345V252.916H111.298V250.678H112.599V252.916H114.552Z" fill="#295271"/>
<path d="M114.552 270.822V272.314H112.599V274.552H111.298V272.314H109.345V270.822H111.298V268.584H112.599V270.822H114.552Z" fill="#295271"/>
<path d="M114.552 288.728V290.22H112.599V292.458H111.298V290.22H109.345V288.728H111.298V286.489H112.599V288.728H114.552Z" fill="#295271"/>
<path d="M114.552 306.633V308.125H112.599V310.364H111.298V308.125H109.345V306.633H111.298V304.395H112.599V306.633H114.552Z" fill="#295271"/>
<path d="M114.552 324.539V326.031H112.599V328.269H111.298V326.031H109.345V324.539H111.298V322.301H112.599V324.539H114.552Z" fill="#295271"/>
<path d="M114.552 342.444V343.937H112.599V346.175H111.298V343.937H109.345V342.444H111.298V340.206H112.599V342.444H114.552Z" fill="#295271"/>
<path d="M98.9308 2.2382V3.73033H96.9782V5.96854H95.6765V3.73033H93.7239V2.2382H95.6765V0H96.9782V2.2382H98.9308Z" fill="#295271"/>
<path d="M98.9308 20.1438V21.6359H96.9782V23.8741H95.6765V21.6359H93.7239V20.1438H95.6765V17.9056H96.9782V20.1438H98.9308Z" fill="#295271"/>
<path d="M98.9308 38.0494V39.5416H96.9782V41.7798H95.6765V39.5416H93.7239V38.0494H95.6765V35.8112H96.9782V38.0494H98.9308Z" fill="#295271"/>
<path d="M98.9308 55.9549V57.4471H96.9782V59.6853H95.6765V57.4471H93.7239V55.9549H95.6765V53.7167H96.9782V55.9549H98.9308Z" fill="#295271"/>
<path d="M98.9308 73.8606V75.3527H96.9782V77.5909H95.6765V75.3527H93.7239V73.8606H95.6765V71.6224H96.9782V73.8606H98.9308Z" fill="#295271"/>
<path d="M98.9308 91.7661V93.2583H96.9782V95.4965H95.6765V93.2583H93.7239V91.7661H95.6765V89.528H96.9782V91.7661H98.9308Z" fill="#295271"/>
<path d="M98.9308 109.672V111.164H96.9782V113.402H95.6765V111.164H93.7239V109.672H95.6765V107.434H96.9782V109.672H98.9308Z" fill="#295271"/>
<path d="M98.9308 127.577V129.069H96.9782V131.308H95.6765V129.069H93.7239V127.577H95.6765V125.339H96.9782V127.577H98.9308Z" fill="#295271"/>
<path d="M98.9308 145.483V146.975H96.9782V149.213H95.6765V146.975H93.7239V145.483H95.6765V143.245H96.9782V145.483H98.9308Z" fill="#295271"/>
<path d="M98.9308 163.389V164.881H96.9782V167.119H95.6765V164.881H93.7239V163.389H95.6765V161.15H96.9782V163.389H98.9308Z" fill="#295271"/>
<path d="M98.9308 181.294V182.786H96.9782V185.025H95.6765V182.786H93.7239V181.294H95.6765V179.056H96.9782V181.294H98.9308Z" fill="#295271"/>
<path d="M98.9308 199.2V200.692H96.9782V202.93H95.6765V200.692H93.7239V199.2H95.6765V196.962H96.9782V199.2H98.9308Z" fill="#295271"/>
<path d="M98.9308 217.105V218.597H96.9782V220.836H95.6765V218.597H93.7239V217.105H95.6765V214.867H96.9782V217.105H98.9308Z" fill="#295271"/>
<path d="M98.9308 235.011V236.503H96.9782V238.741H95.6765V236.503H93.7239V235.011H95.6765V232.773H96.9782V235.011H98.9308Z" fill="#295271"/>
<path d="M98.9308 252.916V254.409H96.9782V256.647H95.6765V254.409H93.7239V252.916H95.6765V250.678H96.9782V252.916H98.9308Z" fill="#295271"/>
<path d="M98.9308 270.822V272.314H96.9782V274.552H95.6765V272.314H93.7239V270.822H95.6765V268.584H96.9782V270.822H98.9308Z" fill="#295271"/>
<path d="M98.9308 288.728V290.22H96.9782V292.458H95.6765V290.22H93.7239V288.728H95.6765V286.489H96.9782V288.728H98.9308Z" fill="#295271"/>
<path d="M98.9308 306.633V308.125H96.9782V310.364H95.6765V308.125H93.7239V306.633H95.6765V304.395H96.9782V306.633H98.9308Z" fill="#295271"/>
<path d="M98.9308 324.539V326.031H96.9782V328.269H95.6765V326.031H93.7239V324.539H95.6765V322.301H96.9782V324.539H98.9308Z" fill="#295271"/>
<path d="M98.9308 342.444V343.937H96.9782V346.175H95.6765V343.937H93.7239V342.444H95.6765V340.206H96.9782V342.444H98.9308Z" fill="#295271"/>
<path d="M83.3104 2.2382V3.73033H81.3578V5.96854H80.0561V3.73033H78.1035V2.2382H80.0561V0H81.3578V2.2382H83.3104Z" fill="#295271"/>
<path d="M83.3104 20.1438V21.6359H81.3578V23.8741H80.0561V21.6359H78.1035V20.1438H80.0561V17.9056H81.3578V20.1438H83.3104Z" fill="#295271"/>
<path d="M83.3104 38.0494V39.5416H81.3578V41.7798H80.0561V39.5416H78.1035V38.0494H80.0561V35.8112H81.3578V38.0494H83.3104Z" fill="#295271"/>
<path d="M83.3104 55.9549V57.4471H81.3578V59.6853H80.0561V57.4471H78.1035V55.9549H80.0561V53.7167H81.3578V55.9549H83.3104Z" fill="#295271"/>
<path d="M83.3104 73.8606V75.3527H81.3578V77.5909H80.0561V75.3527H78.1035V73.8606H80.0561V71.6224H81.3578V73.8606H83.3104Z" fill="#295271"/>
<path d="M83.3104 91.7661V93.2583H81.3578V95.4965H80.0561V93.2583H78.1035V91.7661H80.0561V89.528H81.3578V91.7661H83.3104Z" fill="#295271"/>
<path d="M83.3104 109.672V111.164H81.3578V113.402H80.0561V111.164H78.1035V109.672H80.0561V107.434H81.3578V109.672H83.3104Z" fill="#295271"/>
<path d="M83.3104 127.577V129.069H81.3578V131.308H80.0561V129.069H78.1035V127.577H80.0561V125.339H81.3578V127.577H83.3104Z" fill="#295271"/>
<path d="M83.3104 145.483V146.975H81.3578V149.213H80.0561V146.975H78.1035V145.483H80.0561V143.245H81.3578V145.483H83.3104Z" fill="#295271"/>
<path d="M83.3104 163.389V164.881H81.3578V167.119H80.0561V164.881H78.1035V163.389H80.0561V161.15H81.3578V163.389H83.3104Z" fill="#295271"/>
<path d="M83.3104 181.294V182.786H81.3578V185.025H80.0561V182.786H78.1035V181.294H80.0561V179.056H81.3578V181.294H83.3104Z" fill="#295271"/>
<path d="M83.3104 199.2V200.692H81.3578V202.93H80.0561V200.692H78.1035V199.2H80.0561V196.962H81.3578V199.2H83.3104Z" fill="#295271"/>
<path d="M83.3104 217.105V218.597H81.3578V220.836H80.0561V218.597H78.1035V217.105H80.0561V214.867H81.3578V217.105H83.3104Z" fill="#295271"/>
<path d="M83.3104 235.011V236.503H81.3578V238.741H80.0561V236.503H78.1035V235.011H80.0561V232.773H81.3578V235.011H83.3104Z" fill="#295271"/>
<path d="M83.3104 252.916V254.409H81.3578V256.647H80.0561V254.409H78.1035V252.916H80.0561V250.678H81.3578V252.916H83.3104Z" fill="#295271"/>
<path d="M83.3104 270.822V272.314H81.3578V274.552H80.0561V272.314H78.1035V270.822H80.0561V268.584H81.3578V270.822H83.3104Z" fill="#295271"/>
<path d="M83.3104 288.728V290.22H81.3578V292.458H80.0561V290.22H78.1035V288.728H80.0561V286.489H81.3578V288.728H83.3104Z" fill="#295271"/>
<path d="M83.3104 306.633V308.125H81.3578V310.364H80.0561V308.125H78.1035V306.633H80.0561V304.395H81.3578V306.633H83.3104Z" fill="#295271"/>
<path d="M83.3104 324.539V326.031H81.3578V328.269H80.0561V326.031H78.1035V324.539H80.0561V322.301H81.3578V324.539H83.3104Z" fill="#295271"/>
<path d="M83.3104 342.444V343.937H81.3578V346.175H80.0561V343.937H78.1035V342.444H80.0561V340.206H81.3578V342.444H83.3104Z" fill="#295271"/>
<path d="M67.6898 2.2382V3.73033H65.7372V5.96854H64.4355V3.73033H62.4829V2.2382H64.4355V0H65.7372V2.2382H67.6898Z" fill="#295271"/>
<path d="M67.6898 20.1438V21.6359H65.7372V23.8741H64.4355V21.6359H62.4829V20.1438H64.4355V17.9056H65.7372V20.1438H67.6898Z" fill="#295271"/>
<path d="M67.6898 38.0494V39.5416H65.7372V41.7798H64.4355V39.5416H62.4829V38.0494H64.4355V35.8112H65.7372V38.0494H67.6898Z" fill="#295271"/>
<path d="M67.6898 55.9549V57.4471H65.7372V59.6853H64.4355V57.4471H62.4829V55.9549H64.4355V53.7167H65.7372V55.9549H67.6898Z" fill="#295271"/>
<path d="M67.6898 73.8606V75.3527H65.7372V77.5909H64.4355V75.3527H62.4829V73.8606H64.4355V71.6224H65.7372V73.8606H67.6898Z" fill="#295271"/>
<path d="M67.6898 91.7661V93.2583H65.7372V95.4965H64.4355V93.2583H62.4829V91.7661H64.4355V89.528H65.7372V91.7661H67.6898Z" fill="#295271"/>
<path d="M67.6898 109.672V111.164H65.7372V113.402H64.4355V111.164H62.4829V109.672H64.4355V107.434H65.7372V109.672H67.6898Z" fill="#295271"/>
<path d="M67.6898 127.577V129.069H65.7372V131.308H64.4355V129.069H62.4829V127.577H64.4355V125.339H65.7372V127.577H67.6898Z" fill="#295271"/>
<path d="M67.6898 145.483V146.975H65.7372V149.213H64.4355V146.975H62.4829V145.483H64.4355V143.245H65.7372V145.483H67.6898Z" fill="#295271"/>
<path d="M67.6898 163.389V164.881H65.7372V167.119H64.4355V164.881H62.4829V163.389H64.4355V161.15H65.7372V163.389H67.6898Z" fill="#295271"/>
<path d="M67.6898 181.294V182.786H65.7372V185.025H64.4355V182.786H62.4829V181.294H64.4355V179.056H65.7372V181.294H67.6898Z" fill="#295271"/>
<path d="M67.6898 199.2V200.692H65.7372V202.93H64.4355V200.692H62.4829V199.2H64.4355V196.962H65.7372V199.2H67.6898Z" fill="#295271"/>
<path d="M67.6898 217.105V218.597H65.7372V220.836H64.4355V218.597H62.4829V217.105H64.4355V214.867H65.7372V217.105H67.6898Z" fill="#295271"/>
<path d="M67.6898 235.011V236.503H65.7372V238.741H64.4355V236.503H62.4829V235.011H64.4355V232.773H65.7372V235.011H67.6898Z" fill="#295271"/>
<path d="M67.6898 252.916V254.409H65.7372V256.647H64.4355V254.409H62.4829V252.916H64.4355V250.678H65.7372V252.916H67.6898Z" fill="#295271"/>
<path d="M67.6898 270.822V272.314H65.7372V274.552H64.4355V272.314H62.4829V270.822H64.4355V268.584H65.7372V270.822H67.6898Z" fill="#295271"/>
<path d="M67.6898 288.728V290.22H65.7372V292.458H64.4355V290.22H62.4829V288.728H64.4355V286.489H65.7372V288.728H67.6898Z" fill="#295271"/>
<path d="M67.6898 306.633V308.125H65.7372V310.364H64.4355V308.125H62.4829V306.633H64.4355V304.395H65.7372V306.633H67.6898Z" fill="#295271"/>
<path d="M67.6898 324.539V326.031H65.7372V328.269H64.4355V326.031H62.4829V324.539H64.4355V322.301H65.7372V324.539H67.6898Z" fill="#295271"/>
<path d="M67.6898 342.444V343.937H65.7372V346.175H64.4355V343.937H62.4829V342.444H64.4355V340.206H65.7372V342.444H67.6898Z" fill="#295271"/>
<path d="M52.069 2.2382V3.73033H50.1164V5.96854H48.8147V3.73033H46.8621V2.2382H48.8147V0H50.1164V2.2382H52.069Z" fill="#295271"/>
<path d="M52.069 20.1438V21.6359H50.1164V23.8741H48.8147V21.6359H46.8621V20.1438H48.8147V17.9056H50.1164V20.1438H52.069Z" fill="#295271"/>
<path d="M52.069 38.0494V39.5416H50.1164V41.7798H48.8147V39.5416H46.8621V38.0494H48.8147V35.8112H50.1164V38.0494H52.069Z" fill="#295271"/>
<path d="M52.069 55.9549V57.4471H50.1164V59.6853H48.8147V57.4471H46.8621V55.9549H48.8147V53.7167H50.1164V55.9549H52.069Z" fill="#295271"/>
<path d="M52.069 73.8606V75.3527H50.1164V77.5909H48.8147V75.3527H46.8621V73.8606H48.8147V71.6224H50.1164V73.8606H52.069Z" fill="#295271"/>
<path d="M52.069 91.7661V93.2583H50.1164V95.4965H48.8147V93.2583H46.8621V91.7661H48.8147V89.528H50.1164V91.7661H52.069Z" fill="#295271"/>
<path d="M52.069 109.672V111.164H50.1164V113.402H48.8147V111.164H46.8621V109.672H48.8147V107.434H50.1164V109.672H52.069Z" fill="#295271"/>
<path d="M52.069 127.577V129.069H50.1164V131.308H48.8147V129.069H46.8621V127.577H48.8147V125.339H50.1164V127.577H52.069Z" fill="#295271"/>
<path d="M52.069 145.483V146.975H50.1164V149.213H48.8147V146.975H46.8621V145.483H48.8147V143.245H50.1164V145.483H52.069Z" fill="#295271"/>
<path d="M52.069 163.389V164.881H50.1164V167.119H48.8147V164.881H46.8621V163.389H48.8147V161.15H50.1164V163.389H52.069Z" fill="#295271"/>
<path d="M52.069 181.294V182.786H50.1164V185.025H48.8147V182.786H46.8621V181.294H48.8147V179.056H50.1164V181.294H52.069Z" fill="#295271"/>
<path d="M52.069 199.2V200.692H50.1164V202.93H48.8147V200.692H46.8621V199.2H48.8147V196.962H50.1164V199.2H52.069Z" fill="#295271"/>
<path d="M52.069 217.105V218.597H50.1164V220.836H48.8147V218.597H46.8621V217.105H48.8147V214.867H50.1164V217.105H52.069Z" fill="#295271"/>
<path d="M52.069 235.011V236.503H50.1164V238.741H48.8147V236.503H46.8621V235.011H48.8147V232.773H50.1164V235.011H52.069Z" fill="#295271"/>
<path d="M52.069 252.916V254.409H50.1164V256.647H48.8147V254.409H46.8621V252.916H48.8147V250.678H50.1164V252.916H52.069Z" fill="#295271"/>
<path d="M52.069 270.822V272.314H50.1164V274.552H48.8147V272.314H46.8621V270.822H48.8147V268.584H50.1164V270.822H52.069Z" fill="#295271"/>
<path d="M52.069 288.728V290.22H50.1164V292.458H48.8147V290.22H46.8621V288.728H48.8147V286.489H50.1164V288.728H52.069Z" fill="#295271"/>
<path d="M52.069 306.633V308.125H50.1164V310.364H48.8147V308.125H46.8621V306.633H48.8147V304.395H50.1164V306.633H52.069Z" fill="#295271"/>
<path d="M52.069 324.539V326.031H50.1164V328.269H48.8147V326.031H46.8621V324.539H48.8147V322.301H50.1164V324.539H52.069Z" fill="#295271"/>
<path d="M52.069 342.444V343.937H50.1164V346.175H48.8147V343.937H46.8621V342.444H48.8147V340.206H50.1164V342.444H52.069Z" fill="#295271"/>
<path d="M36.4484 2.2382V3.73033H34.4958V5.96854H33.194V3.73033H31.2415V2.2382H33.194V0H34.4958V2.2382H36.4484Z" fill="#295271"/>
<path d="M36.4484 20.1438V21.6359H34.4958V23.8741H33.194V21.6359H31.2415V20.1438H33.194V17.9056H34.4958V20.1438H36.4484Z" fill="#295271"/>
<path d="M36.4484 38.0494V39.5416H34.4958V41.7798H33.194V39.5416H31.2415V38.0494H33.194V35.8112H34.4958V38.0494H36.4484Z" fill="#295271"/>
<path d="M36.4484 55.9549V57.4471H34.4958V59.6853H33.194V57.4471H31.2415V55.9549H33.194V53.7167H34.4958V55.9549H36.4484Z" fill="#295271"/>
<path d="M36.4484 73.8606V75.3527H34.4958V77.5909H33.194V75.3527H31.2415V73.8606H33.194V71.6224H34.4958V73.8606H36.4484Z" fill="#295271"/>
<path d="M36.4484 91.7661V93.2583H34.4958V95.4965H33.194V93.2583H31.2415V91.7661H33.194V89.528H34.4958V91.7661H36.4484Z" fill="#295271"/>
<path d="M36.4484 109.672V111.164H34.4958V113.402H33.194V111.164H31.2415V109.672H33.194V107.434H34.4958V109.672H36.4484Z" fill="#295271"/>
<path d="M36.4484 127.577V129.069H34.4958V131.308H33.194V129.069H31.2415V127.577H33.194V125.339H34.4958V127.577H36.4484Z" fill="#295271"/>
<path d="M36.4484 145.483V146.975H34.4958V149.213H33.194V146.975H31.2415V145.483H33.194V143.245H34.4958V145.483H36.4484Z" fill="#295271"/>
<path d="M36.4484 163.389V164.881H34.4958V167.119H33.194V164.881H31.2415V163.389H33.194V161.15H34.4958V163.389H36.4484Z" fill="#295271"/>
<path d="M36.4484 181.294V182.786H34.4958V185.025H33.194V182.786H31.2415V181.294H33.194V179.056H34.4958V181.294H36.4484Z" fill="#295271"/>
<path d="M36.4484 199.2V200.692H34.4958V202.93H33.194V200.692H31.2415V199.2H33.194V196.962H34.4958V199.2H36.4484Z" fill="#295271"/>
<path d="M36.4484 217.105V218.597H34.4958V220.836H33.194V218.597H31.2415V217.105H33.194V214.867H34.4958V217.105H36.4484Z" fill="#295271"/>
<path d="M36.4484 235.011V236.503H34.4958V238.741H33.194V236.503H31.2415V235.011H33.194V232.773H34.4958V235.011H36.4484Z" fill="#295271"/>
<path d="M36.4484 252.916V254.409H34.4958V256.647H33.194V254.409H31.2415V252.916H33.194V250.678H34.4958V252.916H36.4484Z" fill="#295271"/>
<path d="M36.4484 270.822V272.314H34.4958V274.552H33.194V272.314H31.2415V270.822H33.194V268.584H34.4958V270.822H36.4484Z" fill="#295271"/>
<path d="M36.4484 288.728V290.22H34.4958V292.458H33.194V290.22H31.2415V288.728H33.194V286.489H34.4958V288.728H36.4484Z" fill="#295271"/>
<path d="M36.4484 306.633V308.125H34.4958V310.364H33.194V308.125H31.2415V306.633H33.194V304.395H34.4958V306.633H36.4484Z" fill="#295271"/>
<path d="M36.4484 324.539V326.031H34.4958V328.269H33.194V326.031H31.2415V324.539H33.194V322.301H34.4958V324.539H36.4484Z" fill="#295271"/>
<path d="M36.4484 342.444V343.937H34.4958V346.175H33.194V343.937H31.2415V342.444H33.194V340.206H34.4958V342.444H36.4484Z" fill="#295271"/>
<path d="M20.8275 2.2382V3.73033H18.8749V5.96854H17.5732V3.73033H15.6206V2.2382H17.5732V0H18.8749V2.2382H20.8275Z" fill="#295271"/>
<path d="M20.8275 20.1438V21.6359H18.8749V23.8741H17.5732V21.6359H15.6206V20.1438H17.5732V17.9056H18.8749V20.1438H20.8275Z" fill="#295271"/>
<path d="M20.8275 38.0494V39.5416H18.8749V41.7798H17.5732V39.5416H15.6206V38.0494H17.5732V35.8112H18.8749V38.0494H20.8275Z" fill="#295271"/>
<path d="M20.8275 55.9549V57.4471H18.8749V59.6853H17.5732V57.4471H15.6206V55.9549H17.5732V53.7167H18.8749V55.9549H20.8275Z" fill="#295271"/>
<path d="M20.8275 73.8606V75.3527H18.8749V77.5909H17.5732V75.3527H15.6206V73.8606H17.5732V71.6224H18.8749V73.8606H20.8275Z" fill="#295271"/>
<path d="M20.8275 91.7661V93.2583H18.8749V95.4965H17.5732V93.2583H15.6206V91.7661H17.5732V89.528H18.8749V91.7661H20.8275Z" fill="#295271"/>
<path d="M20.8275 109.672V111.164H18.8749V113.402H17.5732V111.164H15.6206V109.672H17.5732V107.434H18.8749V109.672H20.8275Z" fill="#295271"/>
<path d="M20.8275 127.577V129.069H18.8749V131.308H17.5732V129.069H15.6206V127.577H17.5732V125.339H18.8749V127.577H20.8275Z" fill="#295271"/>
<path d="M20.8275 145.483V146.975H18.8749V149.213H17.5732V146.975H15.6206V145.483H17.5732V143.245H18.8749V145.483H20.8275Z" fill="#295271"/>
<path d="M20.8275 163.389V164.881H18.8749V167.119H17.5732V164.881H15.6206V163.389H17.5732V161.15H18.8749V163.389H20.8275Z" fill="#295271"/>
<path d="M20.8275 181.294V182.786H18.8749V185.025H17.5732V182.786H15.6206V181.294H17.5732V179.056H18.8749V181.294H20.8275Z" fill="#295271"/>
<path d="M20.8275 199.2V200.692H18.8749V202.93H17.5732V200.692H15.6206V199.2H17.5732V196.962H18.8749V199.2H20.8275Z" fill="#295271"/>
<path d="M20.8275 217.105V218.597H18.8749V220.836H17.5732V218.597H15.6206V217.105H17.5732V214.867H18.8749V217.105H20.8275Z" fill="#295271"/>
<path d="M20.8275 235.011V236.503H18.8749V238.741H17.5732V236.503H15.6206V235.011H17.5732V232.773H18.8749V235.011H20.8275Z" fill="#295271"/>
<path d="M20.8275 252.916V254.409H18.8749V256.647H17.5732V254.409H15.6206V252.916H17.5732V250.678H18.8749V252.916H20.8275Z" fill="#295271"/>
<path d="M20.8275 270.822V272.314H18.8749V274.552H17.5732V272.314H15.6206V270.822H17.5732V268.584H18.8749V270.822H20.8275Z" fill="#295271"/>
<path d="M20.8275 288.728V290.22H18.8749V292.458H17.5732V290.22H15.6206V288.728H17.5732V286.489H18.8749V288.728H20.8275Z" fill="#295271"/>
<path d="M20.8275 306.633V308.125H18.8749V310.364H17.5732V308.125H15.6206V306.633H17.5732V304.395H18.8749V306.633H20.8275Z" fill="#295271"/>
<path d="M20.8275 324.539V326.031H18.8749V328.269H17.5732V326.031H15.6206V324.539H17.5732V322.301H18.8749V324.539H20.8275Z" fill="#295271"/>
<path d="M20.8275 342.444V343.937H18.8749V346.175H17.5732V343.937H15.6206V342.444H17.5732V340.206H18.8749V342.444H20.8275Z" fill="#295271"/>
<path d="M5.20691 2.2382V3.73033H3.25432V5.96854H1.95259V3.73033H0V2.2382H1.95259V0H3.25432V2.2382H5.20691Z" fill="#295271"/>
<path d="M5.20691 20.1438V21.6359H3.25432V23.8741H1.95259V21.6359H0V20.1438H1.95259V17.9056H3.25432V20.1438H5.20691Z" fill="#295271"/>
<path d="M5.20691 38.0494V39.5416H3.25432V41.7798H1.95259V39.5416H0V38.0494H1.95259V35.8112H3.25432V38.0494H5.20691Z" fill="#295271"/>
<path d="M5.20691 55.9549V57.4471H3.25432V59.6853H1.95259V57.4471H0V55.9549H1.95259V53.7167H3.25432V55.9549H5.20691Z" fill="#295271"/>
<path d="M5.20691 73.8606V75.3527H3.25432V77.5909H1.95259V75.3527H0V73.8606H1.95259V71.6224H3.25432V73.8606H5.20691Z" fill="#295271"/>
<path d="M5.20691 91.7661V93.2583H3.25432V95.4965H1.95259V93.2583H0V91.7661H1.95259V89.528H3.25432V91.7661H5.20691Z" fill="#295271"/>
<path d="M5.20691 109.672V111.164H3.25432V113.402H1.95259V111.164H0V109.672H1.95259V107.434H3.25432V109.672H5.20691Z" fill="#295271"/>
<path d="M5.20691 127.577V129.069H3.25432V131.308H1.95259V129.069H0V127.577H1.95259V125.339H3.25432V127.577H5.20691Z" fill="#295271"/>
<path d="M5.20691 145.483V146.975H3.25432V149.213H1.95259V146.975H0V145.483H1.95259V143.245H3.25432V145.483H5.20691Z" fill="#295271"/>
<path d="M5.20691 163.389V164.881H3.25432V167.119H1.95259V164.881H0V163.389H1.95259V161.15H3.25432V163.389H5.20691Z" fill="#295271"/>
<path d="M5.20691 181.294V182.786H3.25432V185.025H1.95259V182.786H0V181.294H1.95259V179.056H3.25432V181.294H5.20691Z" fill="#295271"/>
<path d="M5.20691 199.2V200.692H3.25432V202.93H1.95259V200.692H0V199.2H1.95259V196.962H3.25432V199.2H5.20691Z" fill="#295271"/>
<path d="M5.20691 217.105V218.597H3.25432V220.836H1.95259V218.597H0V217.105H1.95259V214.867H3.25432V217.105H5.20691Z" fill="#295271"/>
<path d="M5.20691 235.011V236.503H3.25432V238.741H1.95259V236.503H0V235.011H1.95259V232.773H3.25432V235.011H5.20691Z" fill="#295271"/>
<path d="M5.20691 252.916V254.409H3.25432V256.647H1.95259V254.409H0V252.916H1.95259V250.678H3.25432V252.916H5.20691Z" fill="#295271"/>
<path d="M5.20691 270.822V272.314H3.25432V274.552H1.95259V272.314H0V270.822H1.95259V268.584H3.25432V270.822H5.20691Z" fill="#295271"/>
<path d="M5.20691 288.728V290.22H3.25432V292.458H1.95259V290.22H0V288.728H1.95259V286.489H3.25432V288.728H5.20691Z" fill="#295271"/>
<path d="M5.20691 306.633V308.125H3.25432V310.364H1.95259V308.125H0V306.633H1.95259V304.395H3.25432V306.633H5.20691Z" fill="#295271"/>
<path d="M5.20691 324.539V326.031H3.25432V328.269H1.95259V326.031H0V324.539H1.95259V322.301H3.25432V324.539H5.20691Z" fill="#295271"/>
<path d="M5.20691 342.444V343.937H3.25432V346.175H1.95259V343.937H0V342.444H1.95259V340.206H3.25432V342.444H5.20691Z" fill="#295271"/>
</g>
</svg>
