<svg width="20" height="20" viewBox="0 0 20 20" fill="none" xmlns="http://www.w3.org/2000/svg">
<path d="M10.0008 0.000976562C4.47813 0.000976562 0.000976562 4.4782 0.000976562 10.0009C0.000976562 15.5234 4.47807 20.001 10.0007 20.001C15.5233 20.001 20.0008 15.5234 20.0008 10.0009C20.0008 4.4782 15.5234 0.000976562 10.0008 0.000976562ZM13.773 13.8122C13.3738 14.2112 12.727 14.2112 12.3281 13.8122L10.0526 11.5368L7.67357 13.9158C7.2745 14.3148 6.62764 14.3148 6.22878 13.9158C5.82952 13.5164 5.82952 12.8698 6.22878 12.4705L8.60763 10.0917L6.39271 7.8769C5.99378 7.4775 5.99378 6.83084 6.39271 6.43171C6.79178 6.03265 7.43877 6.03265 7.8379 6.43171L10.0527 8.64649L12.1641 6.53498C12.5631 6.13605 13.2103 6.13592 13.609 6.53498C14.0083 6.93437 14.0083 7.58143 13.609 7.98016L11.4979 10.0915L13.7732 12.367C14.1721 12.7658 14.1723 13.413 13.773 13.8122Z" fill="#CED7E1"/>
</svg>
