<svg width="400" height="246" viewBox="0 0 400 246" fill="none" xmlns="http://www.w3.org/2000/svg">
<path d="M241.359 217.096L226.93 220.966L241.463 212.03C241.15 197.783 236.178 183.01 236.178 183.01C236.178 183.01 205.119 192.007 196.968 207.588C188.817 223.169 195.233 233.455 206.659 239.433C218.085 245.41 230.193 244.816 238.345 229.235C240.159 225.767 241.057 221.553 241.359 217.096Z" fill="#F2F2F2"/>
<path d="M224.172 220.143L223.77 220.911C219.054 229.814 213.905 235.991 208.385 239.35C208.305 239.401 208.224 239.445 208.144 239.496L207.919 239.121L207.707 238.758C213.755 235.177 218.831 228.297 222.946 220.533C223.081 220.284 223.218 220.031 223.348 219.774C225.061 216.472 226.604 213.032 227.975 209.624C228.084 209.361 228.191 209.092 228.297 208.824C230.084 204.316 231.574 199.894 232.768 196.001C232.854 195.726 232.936 195.449 233.016 195.176C235.01 188.578 236.116 183.622 236.354 182.52C236.385 182.387 236.4 182.312 236.404 182.295L236.819 182.381L236.824 182.379L237.243 182.468C237.239 182.485 237.19 182.735 237.086 183.194C236.705 184.913 235.624 189.553 233.841 195.487C233.759 195.754 233.678 196.031 233.592 196.306C232.626 199.466 231.472 202.959 230.124 206.554C229.787 207.458 229.444 208.344 229.096 209.213C228.993 209.483 228.887 209.752 228.778 210.015C227.296 213.699 225.761 217.075 224.172 220.143Z" fill="white"/>
<path d="M233.841 195.486C233.569 195.387 233.292 195.286 233.016 195.175C232.265 194.876 231.53 194.538 230.814 194.164C227.759 192.571 225.101 190.313 223.035 187.557C222.77 187.675 222.505 187.793 222.234 187.912C224.392 190.842 227.19 193.241 230.416 194.924C231.181 195.324 231.966 195.683 232.768 196C233.041 196.108 233.317 196.209 233.592 196.305C235.852 197.103 238.221 197.554 240.617 197.641C240.563 197.346 240.511 197.057 240.46 196.774C238.202 196.673 235.972 196.239 233.841 195.486V195.486Z" fill="white"/>
<path d="M229.096 209.212C228.826 209.09 228.56 208.96 228.297 208.823C228.215 208.785 228.132 208.741 228.052 208.699C224.745 206.969 221.905 204.465 219.775 201.4C217.644 198.335 216.287 194.801 215.817 191.098C215.548 191.242 215.279 191.387 215.011 191.538C215.543 195.315 216.968 198.91 219.166 202.027C221.365 205.144 224.275 207.691 227.654 209.46C227.761 209.515 227.867 209.571 227.975 209.623C228.244 209.758 228.51 209.888 228.778 210.014C232.946 211.93 237.578 212.604 242.12 211.957C242.115 211.669 242.111 211.382 242.103 211.092C237.677 211.744 233.157 211.091 229.096 209.212V209.212Z" fill="white"/>
<path d="M224.172 220.142C223.894 220.026 223.62 219.902 223.348 219.774C223.056 219.636 222.767 219.494 222.482 219.345C218.041 217.015 214.474 213.309 212.315 208.782C210.156 204.255 209.522 199.15 210.507 194.232C210.174 194.451 209.844 194.666 209.52 194.888C208.698 199.879 209.469 205.001 211.725 209.528C213.981 214.055 217.605 217.756 222.084 220.106C222.369 220.255 222.657 220.4 222.946 220.532C223.22 220.666 223.494 220.79 223.77 220.91C229.366 223.302 235.661 223.478 241.382 221.402C241.449 221.079 241.503 220.754 241.559 220.425C235.947 222.595 229.71 222.494 224.172 220.142V220.142Z" fill="white"/>
<path d="M51.8847 218.448L66.3131 222.318L51.7803 213.381C52.0929 199.134 57.0656 184.361 57.0656 184.361C57.0656 184.361 88.124 193.359 96.2754 208.94C104.427 224.521 98.0104 234.807 86.5844 240.784C75.1586 246.762 63.0499 246.168 54.8985 230.587C53.0841 227.119 52.1864 222.904 51.8847 218.448Z" fill="#F2F2F2"/>
<path d="M69.0711 221.494L69.4729 222.262C74.1889 231.165 79.3384 237.343 84.8585 240.702C84.9381 240.752 85.0195 240.797 85.0992 240.847L85.3245 240.473L85.5366 240.11C79.4885 236.528 74.4124 229.649 70.297 221.884C70.1619 221.635 70.0248 221.383 69.8954 221.126C68.1823 217.824 66.6393 214.384 65.2678 210.975C65.1593 210.713 65.0527 210.444 64.946 210.175C63.1589 205.667 61.669 201.246 60.4747 197.352C60.3891 197.077 60.3072 196.801 60.2274 196.528C58.233 189.929 57.1267 184.973 56.8896 183.872C56.8583 183.738 56.8436 183.664 56.8394 183.646L56.4245 183.733L56.4187 183.731L56 183.819C56.0042 183.836 56.0529 184.087 56.1573 184.546C56.5382 186.264 57.6195 190.904 59.402 196.838C59.4837 197.106 59.5656 197.382 59.6512 197.657C60.6171 200.818 61.7714 204.311 63.1194 207.906C63.4566 208.809 63.7991 209.695 64.1471 210.564C64.25 210.835 64.3566 211.104 64.4651 211.366C65.9472 215.051 67.4826 218.427 69.0711 221.494Z" fill="white"/>
<path d="M52.7828 198.126C52.7323 198.409 52.6801 198.698 52.626 198.992C55.0218 198.905 57.3904 198.455 59.6509 197.656C59.9255 197.561 60.2019 197.46 60.4744 197.351C61.277 197.034 62.0622 196.675 62.8268 196.276C66.0526 194.592 68.8511 192.194 71.0085 189.264C70.7376 189.144 70.4725 189.026 70.2074 188.908C68.1414 191.665 65.4834 193.922 62.429 195.515C61.7128 195.89 60.9778 196.227 60.227 196.527C59.9508 196.637 59.6743 196.738 59.4017 196.837C57.2709 197.59 55.0405 198.025 52.7828 198.126V198.126Z" fill="white"/>
<path d="M51.1403 212.443C51.1322 212.733 51.1279 213.021 51.1235 213.309C55.6651 213.956 60.2969 213.281 64.4651 211.365C64.7334 211.24 64.9997 211.11 65.2678 210.975C65.3763 210.923 65.4827 210.867 65.5892 210.811C68.9687 209.043 71.8783 206.495 74.0769 203.378C76.2756 200.262 77.7001 196.666 78.2323 192.889C77.9647 192.739 77.6953 192.594 77.4259 192.449C76.9567 196.152 75.5991 199.687 73.4688 202.752C71.3385 205.816 68.4987 208.321 65.1914 210.051C65.1115 210.093 65.0279 210.136 64.946 210.174C64.6837 210.312 64.4174 210.441 64.1471 210.563C60.0868 212.442 55.5664 213.095 51.1403 212.443V212.443Z" fill="white"/>
<path d="M51.6841 221.776C51.74 222.105 51.794 222.431 51.8613 222.754C57.5819 224.829 63.8774 224.653 69.473 222.261C69.7491 222.141 70.0232 222.017 70.2971 221.884C70.5864 221.752 70.8735 221.606 71.1587 221.457C75.6377 219.108 79.2625 215.407 81.5181 210.88C83.7737 206.353 84.5454 201.23 83.7235 196.24C83.3989 196.017 83.0687 195.802 82.7365 195.584C83.7215 200.502 83.0871 205.606 80.9283 210.133C78.7694 214.661 75.2023 218.367 70.7609 220.697C70.4757 220.846 70.1866 220.987 69.8955 221.125C69.6234 221.253 69.3493 221.377 69.0712 221.494C63.5328 223.845 57.2961 223.947 51.6841 221.776V221.776Z" fill="white"/>
<path d="M119.53 229.358L128.12 231.662L119.468 226.342C119.654 217.86 122.614 209.065 122.614 209.065C122.614 209.065 141.104 214.422 145.957 223.698C150.81 232.973 146.99 239.097 140.188 242.656C133.385 246.214 126.177 245.86 121.324 236.585C120.244 234.52 119.71 232.011 119.53 229.358Z" fill="#F2F2F2"/>
<path d="M129.762 231.17L130.001 231.628C132.808 236.928 135.874 240.606 139.16 242.605C139.208 242.635 139.256 242.662 139.303 242.692L139.438 242.469L139.564 242.253C135.963 240.121 132.941 236.025 130.491 231.403C130.411 231.254 130.329 231.104 130.252 230.951C129.232 228.985 128.314 226.937 127.497 224.908C127.433 224.752 127.369 224.592 127.306 224.432C126.242 221.748 125.355 219.116 124.644 216.798C124.593 216.635 124.544 216.47 124.497 216.307C123.309 212.379 122.651 209.428 122.51 208.773C122.491 208.693 122.482 208.649 122.48 208.639L122.233 208.69L122.229 208.689L121.98 208.742C121.982 208.752 122.011 208.901 122.074 209.174C122.3 210.197 122.944 212.959 124.005 216.492C124.054 216.651 124.103 216.816 124.154 216.98C124.729 218.861 125.416 220.941 126.218 223.081C126.419 223.619 126.623 224.146 126.83 224.664C126.891 224.825 126.955 224.985 127.019 225.141C127.902 227.335 128.816 229.344 129.762 231.17Z" fill="white"/>
<path d="M120.065 217.259C120.035 217.428 120.004 217.6 119.971 217.775C121.398 217.723 122.808 217.455 124.154 216.979C124.317 216.923 124.482 216.863 124.644 216.798C125.122 216.609 125.589 216.395 126.044 216.157C127.965 215.155 129.631 213.728 130.915 211.983C130.754 211.912 130.596 211.842 130.438 211.771C129.208 213.412 127.626 214.757 125.807 215.705C125.381 215.928 124.943 216.129 124.497 216.307C124.332 216.373 124.167 216.433 124.005 216.492C122.737 216.94 121.409 217.199 120.065 217.259V217.259Z" fill="white"/>
<path d="M119.087 225.783C119.082 225.955 119.079 226.127 119.077 226.298C121.78 226.683 124.538 226.282 127.019 225.141C127.179 225.066 127.338 224.989 127.497 224.908C127.562 224.878 127.625 224.844 127.688 224.811C129.7 223.759 131.433 222.242 132.741 220.386C134.05 218.531 134.898 216.39 135.215 214.142C135.056 214.052 134.896 213.966 134.735 213.88C134.456 216.084 133.648 218.189 132.379 220.013C131.111 221.838 129.421 223.329 127.452 224.359C127.404 224.383 127.354 224.41 127.306 224.432C127.149 224.514 126.991 224.591 126.83 224.664C124.413 225.782 121.722 226.171 119.087 225.783V225.783Z" fill="white"/>
<path d="M119.411 231.339C119.444 231.535 119.476 231.729 119.516 231.921C122.922 233.157 126.67 233.052 130.001 231.628C130.165 231.556 130.328 231.483 130.491 231.403C130.664 231.324 130.835 231.238 131.004 231.149C133.671 229.75 135.829 227.547 137.172 224.852C138.514 222.157 138.974 219.107 138.485 216.136C138.291 216.004 138.095 215.876 137.897 215.746C138.483 218.674 138.106 221.713 136.82 224.408C135.535 227.103 133.412 229.309 130.768 230.696C130.598 230.785 130.426 230.869 130.252 230.951C130.09 231.028 129.927 231.101 129.762 231.171C126.464 232.571 122.752 232.631 119.411 231.339V231.339Z" fill="white"/>
<path d="M291.097 151.377L291.06 151.374C284.229 150.246 276.639 150.247 267.859 151.376H267.855C267.636 151.378 267.419 151.337 267.215 151.256C267.012 151.174 266.827 151.053 266.671 150.899C266.515 150.745 266.391 150.562 266.306 150.36C266.221 150.158 266.176 149.942 266.175 149.723V141.771C266.176 141.332 266.35 140.911 266.66 140.601C266.971 140.291 267.391 140.117 267.83 140.116C275.562 139.108 283.393 139.108 291.125 140.118H291.128C291.562 140.124 291.975 140.301 292.279 140.611C292.583 140.92 292.753 141.337 292.752 141.771V149.723C292.751 150.161 292.577 150.582 292.267 150.892C291.956 151.202 291.536 151.377 291.097 151.377V151.377Z" fill="white"/>
<path d="M291.097 151.377L291.06 151.374C284.229 150.246 276.639 150.247 267.859 151.376H267.855C267.636 151.378 267.419 151.337 267.215 151.256C267.012 151.174 266.827 151.053 266.671 150.899C266.515 150.745 266.391 150.562 266.306 150.36C266.221 150.158 266.176 149.942 266.175 149.723V141.771C266.176 141.332 266.35 140.911 266.66 140.601C266.971 140.291 267.391 140.117 267.83 140.116C275.562 139.108 283.393 139.108 291.125 140.118H291.128C291.562 140.124 291.975 140.301 292.279 140.611C292.583 140.92 292.753 141.337 292.752 141.771V149.723C292.751 150.161 292.577 150.582 292.267 150.892C291.956 151.202 291.536 151.377 291.097 151.377V151.377ZM279.168 139.812C275.386 139.805 271.608 140.057 267.861 140.564C267.7 140.562 267.541 140.591 267.392 140.65C267.243 140.71 267.107 140.798 266.992 140.91C266.877 141.022 266.786 141.156 266.723 141.304C266.66 141.452 266.627 141.61 266.626 141.771V149.723C266.626 150.042 266.753 150.348 266.979 150.574C267.205 150.8 267.511 150.927 267.83 150.927C276.618 149.795 284.244 149.795 291.115 150.927C291.431 150.922 291.733 150.793 291.955 150.567C292.177 150.342 292.301 150.039 292.301 149.723V141.771C292.301 141.451 292.174 141.145 291.948 140.92C291.723 140.694 291.416 140.567 291.097 140.567C287.14 140.07 283.156 139.818 279.168 139.812V139.812Z" fill="#1E3C72"/>
<path d="M279.464 148.519C281.205 148.519 282.617 147.107 282.617 145.366C282.617 143.625 281.205 142.213 279.464 142.213C277.722 142.213 276.311 143.625 276.311 145.366C276.311 147.107 277.722 148.519 279.464 148.519Z" fill="#1E3C72"/>
<path d="M271.356 143.719H268.653C268.474 143.719 268.302 143.648 268.175 143.521C268.049 143.394 267.977 143.223 267.977 143.043V142.142C267.977 141.963 268.049 141.792 268.175 141.665C268.302 141.538 268.474 141.467 268.653 141.467H271.356C271.535 141.467 271.707 141.538 271.833 141.665C271.96 141.792 272.031 141.963 272.031 142.142V143.043C272.031 143.223 271.96 143.394 271.833 143.521C271.707 143.648 271.535 143.719 271.356 143.719V143.719Z" fill="#1E3C72"/>
<path d="M290.274 150.026H287.572C287.393 150.025 287.221 149.954 287.094 149.828C286.967 149.701 286.896 149.529 286.896 149.35V148.449C286.896 148.27 286.967 148.098 287.094 147.972C287.221 147.845 287.393 147.774 287.572 147.773H290.274C290.454 147.774 290.625 147.845 290.752 147.972C290.879 148.098 290.95 148.27 290.95 148.449V149.35C290.95 149.529 290.879 149.701 290.752 149.828C290.625 149.954 290.454 150.025 290.274 150.026V150.026Z" fill="#1E3C72"/>
<path d="M287.252 148.089L287.219 148.072C281.364 144.376 274.372 141.425 265.843 139.05L265.84 139.049C265.637 138.966 265.453 138.844 265.297 138.689C265.142 138.535 265.018 138.351 264.934 138.149C264.85 137.947 264.807 137.73 264.807 137.511C264.807 137.292 264.851 137.075 264.935 136.873L268.027 129.547C268.199 129.143 268.523 128.823 268.929 128.658C269.336 128.493 269.791 128.496 270.195 128.666C277.711 130.744 284.925 133.79 291.656 137.727L291.659 137.728C292.056 137.902 292.368 138.226 292.528 138.63C292.688 139.033 292.682 139.483 292.512 139.882L289.42 147.208C289.249 147.612 288.924 147.932 288.518 148.097C288.111 148.262 287.656 148.259 287.252 148.089V148.089Z" fill="white"/>
<path d="M287.252 148.089L287.219 148.072C281.364 144.376 274.372 141.425 265.843 139.05L265.84 139.049C265.637 138.966 265.453 138.844 265.297 138.689C265.142 138.535 265.018 138.351 264.934 138.149C264.85 137.947 264.807 137.73 264.807 137.511C264.807 137.292 264.851 137.075 264.935 136.873L268.027 129.547C268.199 129.143 268.523 128.823 268.929 128.658C269.336 128.493 269.791 128.496 270.195 128.666C277.711 130.744 284.925 133.79 291.656 137.727L291.659 137.728C292.056 137.902 292.368 138.226 292.528 138.63C292.688 139.033 292.682 139.483 292.512 139.882L289.42 147.208C289.249 147.612 288.924 147.932 288.518 148.097C288.111 148.262 287.656 148.259 287.252 148.089V148.089ZM280.759 132.795C277.278 131.318 273.699 130.08 270.049 129.091C269.902 129.026 269.744 128.991 269.584 128.988C269.423 128.984 269.264 129.013 269.114 129.072C268.965 129.13 268.829 129.218 268.713 129.329C268.598 129.441 268.506 129.574 268.442 129.722L265.35 137.048C265.226 137.342 265.224 137.674 265.344 137.969C265.465 138.265 265.697 138.501 265.991 138.626C274.528 141 281.554 143.966 287.443 147.681C287.737 147.799 288.064 147.797 288.357 147.676C288.649 147.555 288.881 147.324 289.005 147.033L292.097 139.707C292.221 139.413 292.223 139.081 292.103 138.785C291.983 138.49 291.75 138.254 291.456 138.129C288.003 136.133 284.431 134.352 280.759 132.795V132.795Z" fill="#1E3C72"/>
<path d="M278.871 141.179C280.613 141.179 282.025 139.768 282.025 138.026C282.025 136.285 280.613 134.873 278.871 134.873C277.13 134.873 275.718 136.285 275.718 138.026C275.718 139.768 277.13 141.179 278.871 141.179Z" fill="#1E3C72"/>
<path d="M272.042 133.356L269.552 132.305C269.387 132.235 269.257 132.102 269.189 131.936C269.122 131.77 269.123 131.585 269.192 131.419L269.543 130.589C269.613 130.424 269.745 130.294 269.911 130.227C270.077 130.159 270.263 130.16 270.428 130.23L272.918 131.281C273.083 131.351 273.213 131.483 273.281 131.649C273.348 131.815 273.347 132.001 273.278 132.166L272.927 132.996C272.857 133.161 272.725 133.291 272.559 133.359C272.393 133.426 272.207 133.425 272.042 133.356V133.356Z" fill="#1E3C72"/>
<path d="M287.019 146.523L284.529 145.472C284.364 145.402 284.234 145.269 284.166 145.103C284.099 144.937 284.1 144.752 284.17 144.586L284.52 143.756C284.59 143.591 284.722 143.461 284.888 143.394C285.054 143.326 285.24 143.327 285.405 143.397L287.895 144.448C288.06 144.518 288.191 144.65 288.258 144.816C288.326 144.982 288.324 145.168 288.255 145.333L287.905 146.163C287.835 146.328 287.702 146.458 287.536 146.526C287.37 146.593 287.184 146.592 287.019 146.523Z" fill="#1E3C72"/>
<path d="M293.457 143.735C294.024 143.393 294.51 142.932 294.879 142.382C295.249 141.833 295.494 141.209 295.596 140.555C295.699 139.901 295.656 139.232 295.472 138.596C295.289 137.96 294.967 137.371 294.531 136.873L302.508 122.892L294.161 123.431L287.866 136.625C287.077 137.413 286.604 138.462 286.537 139.575C286.47 140.688 286.814 141.787 287.503 142.663C288.193 143.54 289.179 144.133 290.276 144.33C291.374 144.528 292.505 144.316 293.457 143.735V143.735Z" fill="#FFB6B6"/>
<path d="M354.863 239.047H349.341L346.714 217.746L354.864 217.747L354.863 239.047Z" fill="#FFB6B6"/>
<path d="M356.271 244.401L338.465 244.4V244.175C338.465 242.337 339.195 240.574 340.495 239.274C341.795 237.974 343.558 237.244 345.396 237.244H345.396L356.272 237.245L356.271 244.401Z" fill="#2F2E41"/>
<path d="M317.025 239.047H311.503L308.876 217.746L317.026 217.747L317.025 239.047Z" fill="#FFB6B6"/>
<path d="M318.433 244.401L300.627 244.4V244.175C300.627 242.337 301.357 240.574 302.657 239.274C303.957 237.974 305.719 237.244 307.558 237.244H307.558L318.434 237.245L318.433 244.401Z" fill="#2F2E41"/>
<path d="M302.825 123.492C302.825 123.492 301.306 145.123 304.297 156.018C307.289 166.912 307.823 232.793 307.823 232.793H317.851L326.542 143.115L346.579 233.109L356.131 232.452L350.893 126.406L302.825 123.492Z" fill="#2F2E41"/>
<path d="M346.749 50.5746L339.083 44.9805L326.237 47.7775L322.76 56.0398L316.768 59.0105C314.798 59.9873 313.095 61.4279 311.804 63.2084C310.514 64.9888 309.675 67.056 309.36 69.2323L300.8 128.343L350.893 126.406L356.957 56.7923C357.02 56.0652 356.937 55.3327 356.713 54.6382C356.488 53.9437 356.126 53.3014 355.649 52.7492C355.171 52.197 354.588 51.7463 353.933 51.4235C353.278 51.1008 352.566 50.9127 351.837 50.8704L346.749 50.5746Z" fill="#E4E4E4"/>
<path d="M313.599 63.627L308.972 69.8639L288.821 131.326L298.267 135.108L313.392 106.467L313.599 63.627Z" fill="#E4E4E4"/>
<path d="M330.163 41.3653C338.63 41.3653 345.495 34.5009 345.495 26.0333C345.495 17.5656 338.63 10.7012 330.163 10.7012C321.695 10.7012 314.831 17.5656 314.831 26.0333C314.831 34.5009 321.695 41.3653 330.163 41.3653Z" fill="#2F2E41"/>
<path d="M330.369 42.0592C336.549 42.0592 341.558 37.05 341.558 30.8709C341.558 24.6918 336.549 19.6826 330.369 19.6826C324.19 19.6826 319.181 24.6918 319.181 30.8709C319.181 37.05 324.19 42.0592 330.369 42.0592Z" fill="#FFB9B9"/>
<path d="M338.864 29.421C331.74 26.8514 329.33 25.2728 321.46 29.421L318.56 17.8184H341.765L338.864 29.421Z" fill="#2F2E41"/>
<path d="M328.919 19.4762C333.725 19.4762 337.621 15.5802 337.621 10.7743C337.621 5.96828 333.725 2.07227 328.919 2.07227C324.113 2.07227 320.217 5.96828 320.217 10.7743C320.217 15.5802 324.113 19.4762 328.919 19.4762Z" fill="#2F2E41"/>
<path d="M318.56 8.702C318.561 6.46721 319.422 4.31863 320.965 2.70219C322.509 1.08574 324.615 0.125559 326.847 0.0209155C326.709 0.014384 326.573 0 326.433 0C324.125 0 321.912 0.916815 320.28 2.54875C318.648 4.18069 317.731 6.39407 317.731 8.70198C317.731 11.0099 318.648 13.2233 320.28 14.8552C321.912 16.4872 324.125 17.404 326.433 17.404C326.573 17.404 326.709 17.3896 326.847 17.3831C324.615 17.2784 322.509 16.3182 320.965 14.7018C319.422 13.0853 318.561 10.9368 318.56 8.702V8.702Z" fill="#2F2E41"/>
<path opacity="0.1" d="M350.49 67.167L347.368 98.2864L336.344 120.014L350.49 67.167Z" fill="black"/>
<path d="M20.4952 162.944H17.7925V165.197H20.4952V162.944Z" fill="#F0F0F0"/>
<path d="M276.139 165.197H270.813V162.944H276.139V165.197ZM265.488 165.197H260.161V162.944H265.488V165.197ZM254.836 165.197H249.51V162.944H254.836V165.197ZM244.184 165.197H238.858V162.944H244.184V165.197ZM233.532 165.197H228.206V162.944H233.532V165.197ZM222.88 165.197H217.554V162.944H222.88L222.88 165.197ZM212.228 165.197H206.903V162.944H212.228V165.197ZM201.576 165.197H196.251V162.944H201.576V165.197ZM190.925 165.197H185.599V162.944H190.925V165.197ZM180.273 165.197H174.947V162.944H180.273L180.273 165.197ZM169.621 165.197H164.295V162.944H169.621L169.621 165.197ZM158.969 165.197H153.643V162.944H158.969L158.969 165.197ZM148.317 165.197H142.991V162.944H148.317L148.317 165.197ZM137.665 165.197H132.34V162.944H137.665L137.665 165.197ZM127.014 165.197H121.688V162.944H127.014L127.014 165.197ZM116.362 165.197H111.036V162.944H116.362L116.362 165.197ZM105.71 165.197H100.384V162.944H105.71L105.71 165.197ZM95.0582 165.197H89.7323V162.944H95.0583L95.0582 165.197ZM84.4062 165.197H79.0805V162.944H84.4063L84.4062 165.197ZM73.7544 165.197H68.4287V162.944H73.7545L73.7544 165.197ZM63.1025 165.197H57.7769V162.944H63.1027L63.1025 165.197ZM52.4507 165.197H47.1249V162.944H52.4509L52.4507 165.197ZM41.7989 165.197H36.4731V162.944H41.7991L41.7989 165.197ZM31.1471 165.197H25.8213V162.944H31.1473L31.1471 165.197Z" fill="#F0F0F0"/>
<path d="M20.4952 105.736H17.7925V107.989H20.4952V105.736Z" fill="#F0F0F0"/>
<path d="M276.139 107.989H270.813V105.736H276.139V107.989ZM265.488 107.989H260.161V105.736H265.488V107.989ZM254.836 107.989H249.51V105.736H254.836V107.989ZM244.184 107.989H238.858V105.736H244.184V107.989ZM233.532 107.989H228.206V105.736H233.532V107.989ZM222.88 107.989H217.554V105.736H222.88L222.88 107.989ZM212.228 107.989H206.903V105.736H212.228V107.989ZM201.576 107.989H196.251V105.736H201.576V107.989ZM190.925 107.989H185.599V105.736H190.925V107.989ZM180.273 107.989H174.947V105.736H180.273L180.273 107.989ZM169.621 107.989H164.295V105.736H169.621L169.621 107.989ZM158.969 107.989H153.643V105.736H158.969L158.969 107.989ZM148.317 107.989H142.991V105.736H148.317L148.317 107.989ZM137.665 107.989H132.34V105.736H137.665L137.665 107.989ZM127.014 107.989H121.688V105.736H127.014L127.014 107.989ZM116.362 107.989H111.036V105.736H116.362L116.362 107.989ZM105.71 107.989H100.384V105.736H105.71L105.71 107.989ZM95.0582 107.989H89.7323V105.736H95.0583L95.0582 107.989ZM84.4062 107.989H79.0805V105.736H84.4063L84.4062 107.989ZM73.7544 107.989H68.4287V105.736H73.7545L73.7544 107.989ZM63.1025 107.989H57.7769V105.736H63.1027L63.1025 107.989ZM52.4507 107.989H47.1249V105.736H52.4509L52.4507 107.989ZM41.7989 107.989H36.4731V105.736H41.7991L41.7989 107.989ZM31.1471 107.989H25.8213V105.736H31.1473L31.1471 107.989Z" fill="#F0F0F0"/>
<path d="M20.4952 48.5293H17.7925V50.7815H20.4952V48.5293Z" fill="#F0F0F0"/>
<path d="M276.139 50.7815H270.813V48.5293H276.139V50.7815ZM265.488 50.7815H260.161V48.5293H265.488V50.7815ZM254.836 50.7815H249.51V48.5293H254.836V50.7815ZM244.184 50.7815H238.858V48.5293H244.184V50.7815ZM233.532 50.7815H228.206V48.5293H233.532V50.7815ZM222.88 50.7815H217.554V48.5293H222.88L222.88 50.7815ZM212.228 50.7815H206.903V48.5293H212.228V50.7815ZM201.576 50.7815H196.251V48.5293H201.576V50.7815ZM190.925 50.7815H185.599V48.5293H190.925V50.7815ZM180.273 50.7815H174.947V48.5293H180.273L180.273 50.7815ZM169.621 50.7815H164.295V48.5293H169.621L169.621 50.7815ZM158.969 50.7815H153.643V48.5293H158.969L158.969 50.7815ZM148.317 50.7815H142.991V48.5293H148.317L148.317 50.7815ZM137.665 50.7815H132.34V48.5293H137.665L137.665 50.7815ZM127.014 50.7815H121.688V48.5293H127.014L127.014 50.7815ZM116.362 50.7815H111.036V48.5293H116.362L116.362 50.7815ZM105.71 50.7815H100.384V48.5293H105.71L105.71 50.7815ZM95.0582 50.7815H89.7323V48.5293H95.0583L95.0582 50.7815ZM84.4062 50.7815H79.0805V48.5293H84.4063L84.4062 50.7815ZM73.7544 50.7815H68.4287V48.5293H73.7545L73.7544 50.7815ZM63.1025 50.7815H57.7769V48.5293H63.1027L63.1025 50.7815ZM52.4507 50.7815H47.1249V48.5293H52.4509L52.4507 50.7815ZM41.7989 50.7815H36.4731V48.5293H41.7991L41.7989 50.7815ZM31.1471 50.7815H25.8213V48.5293H31.1473L31.1471 50.7815Z" fill="#F0F0F0"/>
<path d="M105.856 163.619H83.7837V244.7H105.856V163.619Z" fill="#3F3D56"/>
<path d="M109.91 163.619H87.8379V244.7H109.91V163.619Z" fill="#1E3C72"/>
<path d="M158.108 106.413H136.036V244.701H158.108V106.413Z" fill="#3F3D56"/>
<path d="M162.162 106.413H140.09V244.701H162.162V106.413Z" fill="#1E3C72"/>
<path d="M210.36 49.2051H188.288V244.701H210.36V49.2051Z" fill="#3F3D56"/>
<path d="M214.414 49.2051H192.342V244.701H214.414V49.2051Z" fill="#1E3C72"/>
<path d="M18.0177 55.0618C21.003 55.0618 23.4231 52.6417 23.4231 49.6564C23.4231 46.6711 21.003 44.251 18.0177 44.251C15.0324 44.251 12.6123 46.6711 12.6123 49.6564C12.6123 52.6417 15.0324 55.0618 18.0177 55.0618Z" fill="#F0F0F0"/>
<path d="M18.0177 112.269C21.003 112.269 23.4231 109.849 23.4231 106.863C23.4231 103.878 21.003 101.458 18.0177 101.458C15.0324 101.458 12.6123 103.878 12.6123 106.863C12.6123 109.849 15.0324 112.269 18.0177 112.269Z" fill="#F0F0F0"/>
<path d="M18.0177 169.476C21.003 169.476 23.4231 167.056 23.4231 164.07C23.4231 161.085 21.003 158.665 18.0177 158.665C15.0324 158.665 12.6123 161.085 12.6123 164.07C12.6123 167.056 15.0324 169.476 18.0177 169.476Z" fill="#F0F0F0"/>
<path d="M400 244.196H0V245.206H400V244.196Z" fill="#3F3D56"/>
<path d="M337.494 141.467L337.457 141.464C330.625 140.336 323.036 140.336 314.255 141.465H314.252C314.033 141.468 313.815 141.427 313.612 141.345C313.409 141.264 313.224 141.142 313.068 140.989C312.911 140.835 312.787 140.652 312.702 140.45C312.617 140.248 312.573 140.032 312.572 139.813V131.861C312.572 131.422 312.747 131.001 313.057 130.691C313.367 130.381 313.788 130.206 314.226 130.206C321.959 129.198 329.789 129.198 337.521 130.208H337.524C337.958 130.214 338.372 130.391 338.676 130.701C338.98 131.01 339.15 131.427 339.148 131.861V139.813C339.148 140.251 338.973 140.672 338.663 140.982C338.353 141.292 337.932 141.467 337.494 141.467Z" fill="white"/>
<path d="M337.494 141.467L337.457 141.464C330.625 140.336 323.036 140.336 314.255 141.465H314.252C314.033 141.468 313.815 141.427 313.612 141.345C313.409 141.264 313.224 141.142 313.068 140.989C312.911 140.835 312.787 140.652 312.702 140.45C312.617 140.248 312.573 140.032 312.572 139.813V131.861C312.572 131.422 312.747 131.001 313.057 130.691C313.367 130.381 313.788 130.206 314.226 130.206C321.959 129.198 329.789 129.198 337.521 130.208H337.524C337.958 130.214 338.372 130.391 338.676 130.701C338.98 131.01 339.15 131.427 339.148 131.861V139.813C339.148 140.251 338.973 140.672 338.663 140.982C338.353 141.292 337.932 141.467 337.494 141.467ZM325.565 129.902C321.783 129.895 318.005 130.146 314.257 130.654C314.097 130.652 313.937 130.681 313.788 130.74C313.639 130.8 313.503 130.888 313.388 131C313.274 131.112 313.182 131.246 313.119 131.394C313.056 131.541 313.023 131.7 313.022 131.861V139.813C313.023 140.132 313.15 140.438 313.375 140.664C313.601 140.889 313.907 141.016 314.226 141.017C323.015 139.885 330.641 139.885 337.511 141.016C337.828 141.012 338.129 140.883 338.351 140.657C338.573 140.432 338.698 140.129 338.698 139.813V131.861C338.698 131.541 338.571 131.235 338.345 131.009C338.119 130.784 337.813 130.657 337.494 130.656C333.537 130.16 329.553 129.908 325.565 129.902V129.902Z" fill="#1E3C72"/>
<path d="M325.86 138.609C327.602 138.609 329.013 137.197 329.013 135.456C329.013 133.714 327.602 132.303 325.86 132.303C324.119 132.303 322.707 133.714 322.707 135.456C322.707 137.197 324.119 138.609 325.86 138.609Z" fill="#1E3C72"/>
<path d="M317.752 133.809H315.049C314.87 133.809 314.698 133.737 314.572 133.611C314.445 133.484 314.374 133.312 314.374 133.133V132.232C314.374 132.053 314.445 131.881 314.572 131.755C314.698 131.628 314.87 131.557 315.049 131.557H317.752C317.931 131.557 318.103 131.628 318.229 131.755C318.356 131.881 318.427 132.053 318.428 132.232V133.133C318.427 133.312 318.356 133.484 318.229 133.611C318.103 133.737 317.931 133.809 317.752 133.809V133.809Z" fill="#1E3C72"/>
<path d="M336.671 140.116H333.968C333.789 140.115 333.617 140.044 333.491 139.917C333.364 139.791 333.293 139.619 333.292 139.44V138.539C333.293 138.36 333.364 138.188 333.491 138.061C333.617 137.935 333.789 137.863 333.968 137.863H336.671C336.85 137.863 337.022 137.935 337.148 138.061C337.275 138.188 337.346 138.36 337.347 138.539V139.44C337.346 139.619 337.275 139.791 337.148 139.917C337.022 140.044 336.85 140.115 336.671 140.116V140.116Z" fill="#1E3C72"/>
<path d="M332.43 131.043C332.383 130.382 332.483 129.72 332.72 129.102C332.958 128.483 333.328 127.925 333.804 127.465C334.281 127.006 334.853 126.656 335.479 126.441C336.106 126.227 336.771 126.152 337.43 126.222L344.294 111.662L348.646 118.805L341.461 131.536C341.27 132.635 340.682 133.625 339.809 134.318C338.936 135.012 337.84 135.362 336.726 135.301C335.613 135.24 334.561 134.773 333.769 133.988C332.977 133.204 332.501 132.156 332.43 131.043V131.043Z" fill="#FFB6B6"/>
<path d="M351.091 54.8829L353.918 51.1964C353.918 51.1964 360.805 49.7937 361.975 59.2537L361.238 101.31L346.146 125.065L336.344 122.563L349.159 94.3432L351.091 54.8829Z" fill="#E4E4E4"/>
</svg>
