<svg width="400" height="368" viewBox="0 0 400 368" fill="none" xmlns="http://www.w3.org/2000/svg">
<path d="M27.9354 326.935C21.3775 331.45 14.6714 336.111 10.1304 342.652C5.58975 349.192 3.60756 358.121 7.25615 365.199L7.16205 365.64C9.92738 366.612 12.8964 366.855 15.7832 366.347C18.6699 365.838 21.3771 364.595 23.6438 362.736C29.4164 357.891 31.2265 349.909 32.699 342.517L37.0549 320.655L27.9354 326.935Z" fill="#F0F0F0"/>
<path d="M34.2516 348.981C29.877 349.949 25.3946 350.961 21.6435 353.412C17.8925 355.862 14.9707 360.099 15.3765 364.561L15.2341 364.771C16.4705 365.863 17.9672 366.618 19.5801 366.963C21.1929 367.308 22.8675 367.232 24.4425 366.743C28.4772 365.437 31.1092 361.657 33.4401 358.114L40.3349 347.636L34.2516 348.981Z" fill="#F0F0F0"/>
<path d="M399.46 19.5169H25.9377C25.7943 19.5164 25.6569 19.459 25.5556 19.3574C25.4543 19.2558 25.3975 19.1182 25.3975 18.9747C25.3975 18.8313 25.4543 18.6937 25.5556 18.5921C25.6569 18.4904 25.7943 18.4331 25.9377 18.4326H399.46C399.603 18.4331 399.741 18.4904 399.842 18.5921C399.943 18.6937 400 18.8313 400 18.9747C400 19.1182 399.943 19.2558 399.842 19.3574C399.741 19.459 399.603 19.5164 399.46 19.5169V19.5169Z" fill="#CACACA"/>
<path d="M38.1397 11.9267C41.4332 11.9267 44.1031 9.2568 44.1031 5.96334C44.1031 2.66988 41.4332 0 38.1397 0C34.8463 0 32.1764 2.66988 32.1764 5.96334C32.1764 9.2568 34.8463 11.9267 38.1397 11.9267Z" fill="#3F3D56"/>
<path d="M58.7404 11.9267C62.0339 11.9267 64.7038 9.2568 64.7038 5.96334C64.7038 2.66988 62.0339 0 58.7404 0C55.447 0 52.7771 2.66988 52.7771 5.96334C52.7771 9.2568 55.447 11.9267 58.7404 11.9267Z" fill="#3F3D56"/>
<path d="M79.3409 11.9267C82.6344 11.9267 85.3042 9.2568 85.3042 5.96334C85.3042 2.66988 82.6344 0 79.3409 0C76.0474 0 73.3776 2.66988 73.3776 5.96334C73.3776 9.2568 76.0474 11.9267 79.3409 11.9267Z" fill="#3F3D56"/>
<path d="M387.117 3.647H372.48C372.192 3.647 371.916 3.53276 371.713 3.32942C371.509 3.12609 371.395 2.85031 371.395 2.56276C371.395 2.2752 371.509 1.99941 371.713 1.79608C371.916 1.59274 372.192 1.47852 372.48 1.47852H387.117C387.404 1.47852 387.68 1.59274 387.883 1.79608C388.087 1.99941 388.201 2.2752 388.201 2.56276C388.201 2.85031 388.087 3.12609 387.883 3.32942C387.68 3.53276 387.404 3.647 387.117 3.647Z" fill="#3F3D56"/>
<path d="M387.117 7.7134H372.48C372.192 7.7134 371.916 7.59917 371.713 7.39584C371.509 7.19251 371.395 6.91672 371.395 6.62916C371.395 6.3416 371.509 6.06583 371.713 5.86249C371.916 5.65916 372.192 5.54492 372.48 5.54492H387.117C387.404 5.54492 387.68 5.65916 387.883 5.86249C388.087 6.06583 388.201 6.3416 388.201 6.62916C388.201 6.91672 388.087 7.19251 387.883 7.39584C387.68 7.59917 387.404 7.7134 387.117 7.7134Z" fill="#3F3D56"/>
<path d="M387.117 11.7798H372.48C372.192 11.7798 371.916 11.6656 371.713 11.4622C371.509 11.2589 371.395 10.9831 371.395 10.6956C371.395 10.408 371.509 10.1322 371.713 9.92889C371.916 9.72556 372.192 9.61133 372.48 9.61133H387.117C387.404 9.61232 387.679 9.72699 387.881 9.93021C388.084 10.1334 388.197 10.4087 388.197 10.6956C388.197 10.9825 388.084 11.2577 387.881 11.4609C387.679 11.6642 387.404 11.7788 387.117 11.7798V11.7798Z" fill="#3F3D56"/>
<path d="M279.777 42.7637H32.027V191.305H279.777V42.7637Z" fill="#F0F0F0"/>
<path d="M388.201 42.7637H310.135V89.5688H388.201V42.7637Z" fill="#F0F0F0"/>
<path d="M372.626 111.071H326.178C325.597 111.071 325.041 110.84 324.631 110.43C324.22 110.02 323.99 109.463 323.99 108.883C323.99 108.303 324.22 107.746 324.631 107.336C325.041 106.926 325.597 106.695 326.178 106.695H372.627C373.207 106.695 373.763 106.926 374.174 107.336C374.584 107.746 374.814 108.303 374.814 108.883C374.814 109.463 374.584 110.02 374.174 110.43C373.763 110.84 373.207 111.071 372.627 111.071H372.626Z" fill="#E4E4E4"/>
<path d="M365.137 103.582H333.667C333.086 103.582 332.53 103.351 332.12 102.941C331.709 102.531 331.479 101.974 331.479 101.394C331.479 100.814 331.709 100.257 332.12 99.8469C332.53 99.4366 333.086 99.2061 333.667 99.2061H365.137C365.718 99.2061 366.274 99.4366 366.684 99.8469C367.095 100.257 367.325 100.814 367.325 101.394C367.325 101.974 367.095 102.531 366.684 102.941C366.274 103.351 365.718 103.582 365.137 103.582V103.582Z" fill="#E4E4E4"/>
<path d="M388.201 127.877H310.135V174.682H388.201V127.877Z" fill="#F0F0F0"/>
<path d="M372.626 196.184H326.178C325.597 196.184 325.041 195.954 324.631 195.543C324.22 195.133 323.99 194.577 323.99 193.996C323.99 193.416 324.22 192.86 324.631 192.449C325.041 192.039 325.597 191.809 326.178 191.809H372.627C373.207 191.809 373.763 192.039 374.174 192.449C374.584 192.86 374.814 193.416 374.814 193.996C374.814 194.577 374.584 195.133 374.174 195.543C373.763 195.954 373.207 196.184 372.627 196.184H372.626Z" fill="#E4E4E4"/>
<path d="M365.137 188.696H333.667C333.086 188.696 332.53 188.465 332.12 188.055C331.709 187.645 331.479 187.088 331.479 186.508C331.479 185.928 331.709 185.371 332.12 184.961C332.53 184.551 333.086 184.32 333.667 184.32H365.137C365.717 184.321 366.273 184.552 366.682 184.962C367.092 185.373 367.322 185.929 367.322 186.508C367.322 187.088 367.092 187.644 366.682 188.054C366.273 188.464 365.717 188.695 365.137 188.696V188.696Z" fill="#E4E4E4"/>
<path d="M160.207 122.673C170.417 122.673 178.695 114.396 178.695 104.185C178.695 93.9745 170.417 85.6973 160.207 85.6973C149.996 85.6973 141.719 93.9745 141.719 104.185C141.719 114.396 149.996 122.673 160.207 122.673Z" fill="#9E616A"/>
<path d="M191.357 191.305H145L147.602 132.685L147.922 132.349L152.524 127.491H167.162L172.594 132.75L173.022 133.168L184.58 144.243L191.357 191.305Z" fill="#1E3C72"/>
<path d="M157.832 191.306H122.599C122.366 168.873 122.182 151.948 122.182 151.948L123.982 150.852L123.993 150.847L143.753 138.85L147.9 132.111L147.922 132.35L149.142 146.553C149.142 146.553 155.772 167.973 157.832 191.306Z" fill="#2F2E41"/>
<path d="M205.772 191.306H174.421C172.745 183.705 171.873 176.468 172.252 170.434C173.792 145.784 170.241 132.111 171.781 132.111L172.594 132.751L182.265 140.39L195 145.057L203.836 148.299L205.376 148.863V149.606C205.381 153.335 205.419 170.656 205.772 191.306Z" fill="#2F2E41"/>
<path d="M142.717 109.97C142.717 109.97 144.287 107.211 143.922 97.996C143.557 88.7806 157.59 93.9927 169.316 93.1136C181.041 92.2345 178.559 108.499 178.559 108.499C178.559 108.499 179.405 107.532 181.216 99.6824C183.028 91.8327 178.915 84.0102 178.915 84.0102C177.704 75.7617 171.177 78.4053 171.177 78.4053C174.32 79.629 173.717 82.2456 173.717 82.2456C171.056 77.5805 164.529 80.2242 164.529 80.2242C155.823 74.7613 147 81.9552 147 81.9552C136.484 84.342 142.651 92.7054 142.651 92.7054C132.075 98.0501 142.717 109.97 142.717 109.97Z" fill="#2F2E41"/>
<path d="M112.391 191.304C113.291 173.311 113.979 159.194 113.708 158.105C112.95 155.074 123.656 150.97 123.982 150.851L123.987 150.846H123.993L126.036 151.946L127.533 191.304H112.391Z" fill="#2F2E41"/>
<path d="M213.144 191.306H197.233L192.679 146.326L194.555 144.954C194.555 144.954 194.718 144.992 195 145.057C196.458 145.42 201.164 146.651 203.836 148.299C204.428 148.633 204.95 149.076 205.376 149.606C205.636 149.917 205.767 150.317 205.739 150.722C205.604 151.996 209.073 170.006 213.144 191.306Z" fill="#2F2E41"/>
<path d="M239.931 209.467H71.8728C71.2265 209.468 70.607 209.725 70.1504 210.183C69.6937 210.64 69.4373 211.26 69.4373 211.906C69.4373 212.553 69.6937 213.173 70.1504 213.63C70.607 214.087 71.2265 214.345 71.8728 214.346H239.931C240.251 214.346 240.569 214.284 240.865 214.161C241.162 214.039 241.431 213.859 241.658 213.633C241.885 213.406 242.065 213.137 242.188 212.841C242.311 212.545 242.374 212.227 242.374 211.906C242.374 211.586 242.311 211.268 242.188 210.972C242.065 210.676 241.885 210.407 241.658 210.18C241.431 209.953 241.162 209.774 240.865 209.651C240.569 209.529 240.251 209.466 239.931 209.467V209.467Z" fill="#CACACA"/>
<path d="M194.392 209.467V214.346H71.8728C71.2265 214.345 70.607 214.087 70.1504 213.63C69.6937 213.173 69.4373 212.553 69.4373 211.906C69.4373 211.26 69.6937 210.64 70.1504 210.183C70.607 209.725 71.2265 209.468 71.8728 209.467H194.392Z" fill="#3F3D56"/>
<path d="M194.393 216.785C197.087 216.785 199.272 214.6 199.272 211.905C199.272 209.211 197.087 207.026 194.393 207.026C191.698 207.026 189.513 209.211 189.513 211.905C189.513 214.6 191.698 216.785 194.393 216.785Z" fill="#3F3D56"/>
<path d="M155.902 252.564C153.91 252.564 151.963 251.974 150.306 250.867C148.65 249.76 147.359 248.187 146.597 246.347C145.834 244.507 145.635 242.481 146.024 240.528C146.412 238.574 147.371 236.779 148.78 235.371C150.189 233.962 151.983 233.003 153.937 232.614C155.891 232.226 157.916 232.425 159.756 233.188C161.596 233.95 163.169 235.241 164.276 236.897C165.383 238.553 165.973 240.501 165.973 242.493C165.97 245.163 164.908 247.723 163.02 249.611C161.132 251.499 158.572 252.561 155.902 252.564V252.564ZM155.902 233.196C154.063 233.196 152.266 233.741 150.737 234.762C149.208 235.784 148.016 237.236 147.313 238.935C146.609 240.634 146.425 242.503 146.783 244.306C147.142 246.11 148.028 247.766 149.328 249.067C150.628 250.367 152.285 251.252 154.088 251.611C155.891 251.97 157.761 251.786 159.46 251.082C161.158 250.378 162.61 249.187 163.632 247.658C164.653 246.129 165.199 244.331 165.199 242.493C165.196 240.028 164.216 237.665 162.473 235.922C160.73 234.179 158.367 233.199 155.902 233.196V233.196Z" fill="#1E3C72"/>
<path d="M154.572 247.916C154.469 247.916 154.37 247.875 154.298 247.802C154.225 247.73 154.184 247.631 154.184 247.528V237.457C154.184 237.405 154.193 237.355 154.213 237.307C154.232 237.26 154.26 237.217 154.296 237.18C154.332 237.144 154.375 237.115 154.423 237.095C154.47 237.076 154.52 237.065 154.572 237.065C154.623 237.065 154.674 237.076 154.721 237.095C154.768 237.115 154.811 237.144 154.847 237.18C154.883 237.217 154.911 237.26 154.931 237.307C154.95 237.355 154.96 237.405 154.959 237.457V247.528C154.959 247.631 154.918 247.73 154.846 247.802C154.773 247.875 154.674 247.916 154.572 247.916V247.916Z" fill="#1E3C72"/>
<path d="M157.232 247.916C157.129 247.916 157.031 247.876 156.958 247.803C156.885 247.73 156.844 247.632 156.844 247.529V237.457C156.844 237.406 156.854 237.355 156.873 237.308C156.892 237.261 156.921 237.218 156.957 237.181C156.993 237.145 157.036 237.116 157.083 237.096C157.13 237.077 157.181 237.066 157.232 237.066C157.283 237.066 157.334 237.077 157.381 237.096C157.428 237.116 157.471 237.145 157.507 237.181C157.543 237.218 157.572 237.261 157.591 237.308C157.61 237.355 157.62 237.406 157.619 237.457V247.529C157.619 247.632 157.578 247.73 157.506 247.803C157.433 247.876 157.335 247.916 157.232 247.916V247.916Z" fill="#1E3C72"/>
<path d="M109.771 242.493C109.771 240.501 110.362 238.553 111.468 236.897C112.575 235.241 114.148 233.95 115.988 233.188C117.829 232.425 119.854 232.226 121.808 232.614C123.761 233.003 125.556 233.962 126.964 235.371C128.373 236.779 129.332 238.574 129.721 240.528C130.109 242.481 129.91 244.507 129.148 246.347C128.385 248.187 127.095 249.76 125.438 250.867C123.782 251.974 121.835 252.564 119.843 252.564C117.172 252.561 114.612 251.499 112.724 249.611C110.836 247.723 109.774 245.163 109.771 242.493V242.493ZM110.546 242.493C110.546 244.331 111.091 246.129 112.113 247.658C113.134 249.187 114.586 250.378 116.285 251.082C117.984 251.786 119.853 251.97 121.656 251.611C123.46 251.252 125.116 250.367 126.417 249.067C127.717 247.766 128.602 246.11 128.961 244.306C129.32 242.503 129.136 240.634 128.432 238.935C127.728 237.236 126.537 235.784 125.008 234.762C123.479 233.741 121.681 233.196 119.843 233.196C117.378 233.199 115.015 234.179 113.272 235.922C111.529 237.665 110.549 240.028 110.546 242.493H110.546Z" fill="#3F3D56"/>
<path d="M124.193 245.885C124.264 245.885 124.333 245.861 124.389 245.818C124.446 245.775 124.486 245.714 124.504 245.646C124.523 245.577 124.518 245.505 124.491 245.439C124.464 245.374 124.416 245.319 124.354 245.283L119.522 242.494L124.354 239.704C124.428 239.661 124.482 239.591 124.505 239.508C124.527 239.426 124.515 239.338 124.472 239.264C124.43 239.19 124.359 239.136 124.277 239.114C124.194 239.091 124.106 239.103 124.032 239.146L118.717 242.215C118.668 242.243 118.627 242.284 118.599 242.332C118.571 242.381 118.556 242.437 118.556 242.494C118.556 242.55 118.571 242.606 118.599 242.655C118.627 242.704 118.668 242.744 118.717 242.773L124.032 245.841C124.081 245.87 124.137 245.885 124.193 245.885V245.885Z" fill="#3F3D56"/>
<path d="M117.066 247.002C117.151 247.002 117.233 246.968 117.294 246.908C117.354 246.848 117.388 246.766 117.388 246.68V238.305C117.388 238.219 117.354 238.137 117.294 238.077C117.233 238.016 117.151 237.982 117.066 237.982C116.98 237.982 116.898 238.016 116.838 238.077C116.778 238.137 116.744 238.219 116.744 238.305V246.68C116.744 246.766 116.778 246.848 116.838 246.908C116.898 246.968 116.98 247.002 117.066 247.002V247.002Z" fill="#3F3D56"/>
<path d="M191.961 252.564C189.969 252.564 188.022 251.974 186.365 250.867C184.709 249.76 183.418 248.187 182.656 246.347C181.894 244.507 181.694 242.481 182.083 240.528C182.471 238.574 183.431 236.779 184.839 235.371C186.248 233.962 188.042 233.003 189.996 232.614C191.95 232.226 193.975 232.425 195.815 233.188C197.656 233.95 199.229 235.241 200.335 236.897C201.442 238.553 202.033 240.501 202.033 242.493C202.03 245.163 200.968 247.723 199.079 249.611C197.191 251.499 194.631 252.561 191.961 252.564V252.564ZM191.961 233.196C190.122 233.196 188.325 233.741 186.796 234.762C185.267 235.784 184.075 237.236 183.372 238.935C182.668 240.634 182.484 242.503 182.843 244.306C183.201 246.11 184.087 247.766 185.387 249.067C186.687 250.367 188.344 251.252 190.147 251.611C191.951 251.97 193.82 251.786 195.519 251.082C197.218 250.378 198.67 249.187 199.691 247.658C200.713 246.129 201.258 244.331 201.258 242.493C201.255 240.028 200.275 237.665 198.532 235.922C196.789 234.179 194.426 233.199 191.961 233.196V233.196Z" fill="#3F3D56"/>
<path d="M187.611 245.885C187.54 245.885 187.471 245.862 187.414 245.819C187.358 245.775 187.318 245.715 187.299 245.646C187.281 245.578 187.286 245.505 187.313 245.44C187.34 245.374 187.388 245.319 187.449 245.284L192.281 242.494L187.449 239.704C187.376 239.661 187.322 239.591 187.3 239.509C187.278 239.426 187.29 239.338 187.332 239.265C187.375 239.191 187.445 239.137 187.527 239.115C187.61 239.092 187.697 239.104 187.771 239.146L193.087 242.215C193.136 242.243 193.176 242.284 193.205 242.333C193.233 242.382 193.248 242.437 193.248 242.494C193.248 242.551 193.233 242.606 193.205 242.655C193.176 242.704 193.136 242.745 193.087 242.773L187.771 245.842C187.723 245.87 187.667 245.885 187.611 245.885V245.885Z" fill="#3F3D56"/>
<path d="M194.738 247.002C194.652 247.002 194.57 246.968 194.51 246.908C194.45 246.848 194.416 246.766 194.416 246.68V238.305C194.416 238.219 194.45 238.137 194.51 238.077C194.57 238.016 194.652 237.982 194.738 237.982C194.823 237.982 194.905 238.016 194.966 238.077C195.026 238.137 195.06 238.219 195.06 238.305V246.68C195.06 246.766 195.026 246.848 194.966 246.908C194.905 246.968 194.823 247.002 194.738 247.002V247.002Z" fill="#3F3D56"/>
<path d="M59.0097 250.085C58.4774 249.551 58.0684 248.908 57.8117 248.199C57.555 247.491 57.4567 246.735 57.5238 245.984C57.5909 245.234 57.8218 244.507 58.2002 243.855C58.5785 243.203 59.0952 242.643 59.7137 242.212L54.7583 224.578L63.8259 227.473L67.1415 243.775C67.7957 244.862 68.0284 246.151 67.7955 247.398C67.5627 248.646 66.8805 249.764 65.8781 250.542C64.8758 251.319 63.623 251.702 62.3571 251.618C61.0912 251.534 59.9002 250.988 59.0097 250.085V250.085Z" fill="#FFB6B6"/>
<path d="M56.5863 162.227L54.708 160.272C54.708 160.272 48.9008 164.261 50.1295 176.626C51.0371 185.759 48.1691 189.633 48.4896 216.178L56.5863 240.489L65.9512 235.58L59.1758 205.584L56.5863 162.227Z" fill="#1E3C72"/>
<path d="M63.6116 359.537H70.3266L73.5215 333.636L63.6104 333.636L63.6116 359.537Z" fill="#FFB6B6"/>
<path d="M61.8989 357.344L75.1231 357.344H75.1237C77.3587 357.344 79.5022 358.232 81.0826 359.812C82.6631 361.393 83.551 363.536 83.5512 365.771V366.045L61.8994 366.046L61.8989 357.344Z" fill="#2F2E41"/>
<path d="M83.1946 357.159L89.8598 357.976L96.1835 332.657L86.3467 331.451L83.1946 357.159Z" fill="#FFB6B6"/>
<path d="M81.7612 354.773L94.8871 356.383L94.8877 356.383C97.1061 356.655 99.1255 357.797 100.502 359.558C101.878 361.32 102.498 363.555 102.226 365.774L102.193 366.045L80.7023 363.41L81.7612 354.773Z" fill="#2F2E41"/>
<path d="M60.1311 226.74C60.1311 226.74 47.1959 235.581 53.6632 259.51L62.4093 352.391L72.8003 352.318L77.2015 306.487L80.1926 274.221L90.1869 307.586L81.9665 348.527L94.099 349.804L108.635 302.194L101.625 234.407L60.1311 226.74Z" fill="#2F2E41"/>
<path d="M91.3422 157.763L84.765 152.473L67.3227 151.755L54.7079 160.272C54.7079 160.272 53.4057 190.601 61.942 217.618L57.4666 228.903L102.214 234.517L91.3422 157.763Z" fill="#1E3C72"/>
<path d="M77.2399 145.264C85.5029 145.264 92.2013 138.565 92.2013 130.302C92.2013 122.039 85.5029 115.341 77.2399 115.341C68.9769 115.341 62.2784 122.039 62.2784 130.302C62.2784 138.565 68.9769 145.264 77.2399 145.264Z" fill="#FFB6B6"/>
<path d="M81.1644 111.808H77.8395C75.5228 111.117 73.0768 110.977 70.6964 111.399C68.316 111.821 66.0671 112.793 64.1288 114.238C62.1905 115.683 60.6164 117.56 59.5319 119.721C58.4474 121.881 57.8825 124.265 57.8822 126.683L52.7039 143.771C52.5547 144.263 52.5228 144.784 52.611 145.291C52.6991 145.799 52.9048 146.278 53.2116 146.692C53.5184 147.105 53.9178 147.441 54.3777 147.673C54.8376 147.904 55.3453 148.025 55.8602 148.025H58.3878C59.4462 146.517 59.9078 144.671 59.6834 142.843C60.1535 143.987 60.4828 145.184 60.6643 146.408C60.7229 146.946 60.7117 147.49 60.6311 148.025H82.6202C82.7624 145.868 82.048 143.742 80.632 142.109C82.4037 143.879 83.9435 145.867 85.2144 148.025H85.6275C86.5021 148.025 87.3409 147.677 87.9593 147.059C88.5777 146.44 88.9252 145.602 88.9252 144.727V127.976H97.3327C97.3327 125.853 96.9145 123.75 96.1019 121.789C95.2894 119.827 94.0985 118.045 92.5971 116.543C91.0957 115.042 89.3134 113.851 87.3517 113.039C85.3901 112.226 83.2877 111.808 81.1644 111.808V111.808Z" fill="#2F2E41"/>
<path d="M97.8136 248.79C97.2812 248.256 96.8723 247.613 96.6155 246.904C96.3588 246.196 96.2605 245.44 96.3277 244.689C96.3948 243.939 96.6256 243.212 97.004 242.56C97.3824 241.909 97.899 241.348 98.5175 240.917L93.5621 223.283L102.63 226.178L105.945 242.48C106.6 243.567 106.832 244.856 106.599 246.104C106.367 247.351 105.684 248.469 104.682 249.247C103.68 250.024 102.427 250.408 101.161 250.323C99.895 250.239 98.704 249.693 97.8136 248.79V248.79Z" fill="#FFB6B6"/>
<path d="M85.6705 161.109L91.3423 157.762C91.3423 157.762 100.263 156.19 101.216 168.075C102.168 179.961 103.54 210.813 103.54 210.813L106.322 236.822L95.9963 239.024L84.1283 203.457L85.6705 161.109Z" fill="#1E3C72"/>
<path d="M137.753 367.265H0.646729C0.475206 367.265 0.310717 367.197 0.189432 367.076C0.0681467 366.954 0 366.79 0 366.618C0 366.447 0.0681467 366.282 0.189432 366.161C0.310717 366.04 0.475206 365.972 0.646729 365.972H137.753C137.925 365.972 138.089 366.04 138.211 366.161C138.332 366.282 138.4 366.447 138.4 366.618C138.4 366.79 138.332 366.954 138.211 367.076C138.089 367.197 137.925 367.265 137.753 367.265Z" fill="#CACACA"/>
</svg>
