<svg width="400" height="241" viewBox="0 0 400 241" fill="none" xmlns="http://www.w3.org/2000/svg">
<path d="M25.162 50.3239C20.1854 50.3239 15.3206 48.8482 11.1827 46.0834C7.04487 43.3185 3.8198 39.3888 1.91535 34.791C0.0109023 30.1933 -0.487388 25.134 0.483491 20.2531C1.45437 15.3722 3.85082 10.8887 7.36978 7.36977C10.8887 3.85081 15.3722 1.45437 20.2531 0.483491C25.1341 -0.487388 30.1933 0.0109023 34.791 1.91535C39.3888 3.8198 43.3185 7.04487 46.0834 11.1827C48.8482 15.3206 50.3239 20.1854 50.3239 25.162C50.3164 31.833 47.663 38.2287 42.9458 42.9458C38.2287 47.663 31.833 50.3164 25.162 50.3239ZM25.162 1.04843C20.3928 1.04843 15.7307 2.46266 11.7652 5.11229C7.79975 7.76192 4.70906 11.5279 2.88396 15.9341C1.05887 20.3403 0.581339 25.1887 1.51176 29.8663C2.44219 34.5438 4.73878 38.8405 8.11112 42.2128C11.4835 45.5851 15.7801 47.8817 20.4576 48.8122C25.1352 49.7426 29.9836 49.2651 34.3898 47.44C38.796 45.6149 42.562 42.5242 45.2116 38.5587C47.8613 34.5933 49.2755 29.9312 49.2755 25.162C49.2683 18.7689 46.7254 12.6397 42.2048 8.11912C37.6842 3.59853 31.555 1.05567 25.162 1.04843V1.04843Z" fill="#F2F2F2"/>
<path d="M196.054 35.6463C193.565 35.6463 191.133 34.9085 189.064 33.526C186.995 32.1436 185.382 30.1788 184.43 27.8799C183.478 25.581 183.229 23.0514 183.714 20.6109C184.2 18.1705 185.398 15.9287 187.157 14.1693C188.917 12.4098 191.159 11.2116 193.599 10.7261C196.04 10.2407 198.569 10.4898 200.868 11.4421C203.167 12.3943 205.132 14.0068 206.514 16.0757C207.897 18.1447 208.635 20.5771 208.635 23.0654C208.631 26.4009 207.304 29.5987 204.945 31.9573C202.587 34.3158 199.389 35.6425 196.054 35.6463V35.6463ZM196.054 11.5328C193.773 11.5328 191.543 12.2092 189.646 13.4764C187.75 14.7436 186.272 16.5447 185.399 18.652C184.526 20.7593 184.298 23.0782 184.743 25.3153C185.188 27.5523 186.286 29.6072 187.899 31.2201C189.512 32.833 191.567 33.9313 193.804 34.3763C196.041 34.8213 198.36 34.5929 200.467 33.7201C202.574 32.8472 204.375 31.369 205.643 29.4725C206.91 27.576 207.586 25.3463 207.586 23.0654C207.583 20.0078 206.367 17.0764 204.205 14.9144C202.042 12.7524 199.111 11.5363 196.054 11.5328Z" fill="#F2F2F2"/>
<path d="M284.645 96.9781C281.845 96.9781 279.109 96.148 276.781 94.5928C274.454 93.0376 272.64 90.8271 271.568 88.2408C270.497 85.6546 270.217 82.8088 270.763 80.0633C271.309 77.3177 272.657 74.7958 274.636 72.8164C276.616 70.837 279.138 69.489 281.883 68.9429C284.629 68.3967 287.475 68.677 290.061 69.7483C292.647 70.8195 294.858 72.6336 296.413 74.9612C297.968 77.2887 298.798 80.0252 298.798 82.8245C298.794 86.577 297.301 90.1745 294.648 92.8279C291.995 95.4813 288.397 96.9738 284.645 96.9781V96.9781ZM284.645 69.7193C282.053 69.7193 279.519 70.4879 277.364 71.9279C275.209 73.368 273.529 75.4147 272.537 77.8094C271.545 80.204 271.286 82.839 271.791 85.3812C272.297 87.9234 273.545 90.2585 275.378 92.0913C277.211 93.9241 279.546 95.1722 282.088 95.6779C284.63 96.1835 287.265 95.924 289.66 94.9321C292.054 93.9402 294.101 92.2605 295.541 90.1053C296.981 87.9502 297.75 85.4165 297.75 82.8245C297.746 79.35 296.364 76.0189 293.907 73.5621C291.45 71.1052 288.119 69.7232 284.645 69.7193V69.7193Z" fill="#F2F2F2"/>
<path d="M399.476 240.087H281.529C281.39 240.087 281.257 240.031 281.158 239.933C281.06 239.835 281.005 239.701 281.005 239.562C281.005 239.423 281.06 239.29 281.158 239.192C281.257 239.093 281.39 239.038 281.529 239.038H399.476C399.615 239.038 399.748 239.093 399.846 239.192C399.945 239.29 400 239.423 400 239.562C400 239.701 399.945 239.835 399.846 239.933C399.748 240.031 399.615 240.087 399.476 240.087Z" fill="#CCCCCC"/>
<path d="M335.973 80.3332C343.084 80.3332 348.848 74.5688 348.848 67.4581C348.848 60.3474 343.084 54.583 335.973 54.583C328.863 54.583 323.098 60.3474 323.098 67.4581C323.098 74.5688 328.863 80.3332 335.973 80.3332Z" fill="#FFB8B8"/>
<path d="M337.309 220.347L331.224 222.413L320.356 199.925L329.337 196.875L337.309 220.347Z" fill="#FFB8B8"/>
<path d="M326.287 222.151L338.023 218.165L340.533 225.554L321.408 232.05C321.078 231.08 320.943 230.054 321.01 229.032C321.076 228.009 321.344 227.009 321.797 226.09C322.25 225.171 322.88 224.35 323.65 223.674C324.421 222.998 325.317 222.481 326.287 222.151V222.151Z" fill="#2F2E41"/>
<path d="M351.058 233.049L344.64 233.371L340.341 208.768L349.815 208.291L351.058 233.049Z" fill="#FFB8B8"/>
<path d="M339.963 231.768L352.342 231.146L352.734 238.94L332.561 239.954C332.509 238.931 332.66 237.907 333.004 236.942C333.348 235.976 333.879 235.088 334.567 234.328C335.254 233.568 336.084 232.951 337.01 232.512C337.936 232.072 338.94 231.82 339.963 231.768V231.768Z" fill="#2F2E41"/>
<path d="M312.862 151.301C313.438 150.789 313.894 150.157 314.199 149.449C314.503 148.741 314.649 147.975 314.626 147.205C314.602 146.434 314.41 145.679 314.063 144.991C313.716 144.302 313.222 143.699 312.617 143.222L318.736 125.518L309.305 127.928L304.94 144.371C304.207 145.441 303.892 146.743 304.054 148.031C304.217 149.318 304.846 150.501 305.823 151.355C306.799 152.209 308.055 152.676 309.353 152.666C310.65 152.656 311.899 152.17 312.862 151.301Z" fill="#FFB8B8"/>
<path d="M350.459 225.632C350.376 225.632 350.293 225.628 350.21 225.619L341.498 224.696C340.962 224.642 340.462 224.406 340.08 224.027C339.699 223.647 339.459 223.148 339.402 222.613L332.668 162.587L327.796 179.013L336.88 211.295C336.972 211.624 336.993 211.969 336.939 212.306C336.885 212.643 336.758 212.965 336.568 213.248C336.378 213.532 336.128 213.771 335.836 213.948C335.545 214.126 335.218 214.238 334.879 214.277L326.047 215.292C325.485 215.355 324.918 215.214 324.451 214.895C323.983 214.576 323.645 214.101 323.498 213.554L313.848 177.225C313.768 176.927 313.748 176.615 313.789 176.309L318.127 143.704L350.477 146.298L352.817 223.201C352.826 223.517 352.772 223.831 352.658 224.126C352.544 224.42 352.372 224.689 352.152 224.916C351.932 225.142 351.669 225.323 351.378 225.446C351.087 225.569 350.775 225.632 350.459 225.632V225.632Z" fill="#2F2E41"/>
<path d="M339.276 151.873C328.437 151.873 316.166 147.685 315.423 147.428L315.208 147.354L327.435 84.6143L327.66 84.6235C332.506 84.8201 345.729 84.9209 345.862 84.9219L346.1 84.9237L351.196 140.29L352.107 148.388L351.996 148.478C348.878 150.999 344.226 151.873 339.276 151.873Z" fill="#1E3C72"/>
<path d="M319.695 146.451L312.047 143.37L315.945 96.2211C316.039 95.0587 316.393 93.9323 316.98 92.9248C317.568 91.9174 318.374 91.0548 319.339 90.4006L323.364 87.6618C323.25 87.2746 323.229 86.8659 323.304 86.4692C323.379 86.0726 323.547 85.6993 323.794 85.3801C324.04 85.0608 324.36 84.8047 324.725 84.6328C325.09 84.4608 325.491 84.3779 325.894 84.3909L327.047 84.428C327.266 84.2803 327.524 84.2023 327.789 84.2041C328.053 84.206 328.31 84.2877 328.527 84.4386C328.744 84.5894 328.911 84.8023 329.004 85.0493C329.098 85.2963 329.115 85.5659 329.053 85.8227L328.8 90.8181L319.695 146.451Z" fill="#2F2E41"/>
<path d="M315.836 137.998L305.851 137.577L309.085 116.77L311.766 97.1917C311.819 96.4887 312.03 95.8066 312.383 95.1966C312.736 94.5865 313.223 94.0642 313.807 93.6687C314.39 93.2732 315.056 93.0148 315.753 92.9126C316.451 92.8105 317.162 92.8674 317.835 93.079V93.079C318.882 93.4076 319.781 94.0945 320.373 95.0191C320.964 95.9437 321.212 97.0472 321.072 98.136L318.356 119.349L315.836 137.998Z" fill="#2F2E41"/>
<path d="M331.647 147.172L331.58 146.962C331.533 146.818 327.033 132.383 334.563 115.157L338.339 96.3768L341.566 84.5848C341.626 84.3741 341.735 84.1803 341.883 84.019C342.032 83.8577 342.216 83.7332 342.421 83.6554C342.662 83.572 342.922 83.5614 343.169 83.6248C343.416 83.6883 343.638 83.823 343.809 84.0121V84.0121C346.059 83.3519 348.476 83.5937 350.55 84.6862L355.082 87.0734C356.09 87.6042 356.893 88.4543 357.365 89.4905C357.838 90.5267 357.953 91.6904 357.693 92.7993L351.5 119.231L354.511 143.92L331.647 147.172Z" fill="#2F2E41"/>
<path d="M338.242 136.995C339.008 137.078 339.783 136.992 340.513 136.744C341.242 136.495 341.908 136.089 342.464 135.555C343.019 135.021 343.451 134.372 343.729 133.653C344.006 132.934 344.123 132.163 344.07 131.394L358.096 121.004L353.193 118.68L338.069 126.47C336.783 126.645 335.606 127.284 334.76 128.268C333.915 129.252 333.46 130.512 333.481 131.81C333.502 133.107 333.999 134.351 334.876 135.307C335.754 136.263 336.951 136.863 338.242 136.995V136.995Z" fill="#FFB8B8"/>
<path d="M347.035 132.345L342.298 123.502L353.981 115.813L348.28 95.3634C348.052 94.5447 347.995 93.6876 348.112 92.8458C348.23 92.0041 348.52 91.1956 348.964 90.4709C349.408 89.7462 349.997 89.1209 350.694 88.634C351.391 88.1471 352.18 87.8091 353.013 87.6411V87.6411C354.486 87.3476 356.015 87.5984 357.316 88.347C358.618 89.0955 359.603 90.2908 360.09 91.7111L367.783 114.323C367.941 114.789 367.95 115.293 367.808 115.764C367.666 116.235 367.38 116.65 366.99 116.951L347.035 132.345Z" fill="#2F2E41"/>
<path d="M336.885 70.1885C335.341 70.3893 334.177 68.8102 333.637 67.3504C333.097 65.8907 332.686 64.1913 331.344 63.4028C329.51 62.3255 327.165 63.6212 325.068 63.2657C322.701 62.8643 321.161 60.3552 321.041 57.9569C320.92 55.5586 321.874 53.2519 322.811 51.0407L323.138 53.7887C323.094 52.8574 323.29 51.9303 323.707 51.0964C324.124 50.2624 324.748 49.5493 325.519 49.0254L325.098 53.0577C325.188 52.5014 325.386 51.9683 325.682 51.4889C325.979 51.0095 326.367 50.5934 326.824 50.2644C327.282 49.9354 327.8 49.6999 328.348 49.5715C328.897 49.4432 329.466 49.4244 330.022 49.5164L329.955 51.919C332.69 51.5938 335.448 51.2682 338.191 51.516C340.933 51.7637 343.695 52.6314 345.774 54.4377C348.883 57.1395 350.019 61.5884 349.638 65.6899C349.256 69.7915 347.563 73.6446 345.799 77.3668C345.355 78.3033 344.741 79.36 343.711 79.4793C342.786 79.5865 341.94 78.8132 341.652 77.9275C341.43 77.0188 341.439 76.0691 341.677 75.1644C341.937 73.782 342.265 72.3689 342.02 70.9835C341.776 69.5982 340.779 68.2293 339.383 68.0595C337.986 67.8897 336.557 69.486 337.229 70.7221L336.885 70.1885Z" fill="#2F2E41"/>
<path d="M168.433 211.558L163.421 209.448L159.983 184.323H114.199L110.472 209.345L105.988 211.587C105.774 211.694 105.602 211.871 105.5 212.088C105.399 212.305 105.373 212.55 105.428 212.784C105.483 213.017 105.616 213.225 105.804 213.374C105.992 213.523 106.225 213.604 106.465 213.604H168.02C168.266 213.604 168.504 213.519 168.694 213.363C168.884 213.207 169.015 212.991 169.064 212.75C169.112 212.509 169.076 212.259 168.961 212.041C168.846 211.824 168.66 211.653 168.433 211.558V211.558Z" fill="#E6E6E6"/>
<path d="M249.795 187.666H24.8899C23.7099 187.664 22.5791 187.193 21.7456 186.358C20.9122 185.522 20.4441 184.391 20.4441 183.211V151.496H254.241V183.211C254.241 184.391 253.772 185.522 252.939 186.358C252.106 187.193 250.975 187.664 249.795 187.666V187.666Z" fill="#CCCCCC"/>
<path d="M254.476 166.484H20.2388V30.7844C20.2404 29.3603 20.8069 27.995 21.8139 26.9881C22.8209 25.9811 24.1863 25.4147 25.6104 25.4131H249.104C250.528 25.4147 251.893 25.9811 252.9 26.9881C253.908 27.995 254.474 29.3603 254.476 30.7844V166.484Z" fill="#3F3D56"/>
<path d="M240.486 156.636H34.2288C33.131 156.635 32.0784 156.198 31.302 155.422C30.5257 154.645 30.089 153.593 30.0878 152.495V39.4039C30.089 38.306 30.5257 37.2534 31.302 36.477C32.0783 35.7007 33.1309 35.264 34.2288 35.2627H240.486C241.583 35.264 242.636 35.7007 243.412 36.477C244.189 37.2534 244.625 38.306 244.627 39.4039V152.495C244.625 153.593 244.189 154.645 243.412 155.422C242.636 156.198 241.583 156.635 240.486 156.636Z" fill="white"/>
<path d="M238.544 213.867H38.8212C38.6821 213.867 38.5488 213.812 38.4505 213.713C38.3522 213.615 38.297 213.482 38.297 213.343C38.297 213.204 38.3522 213.07 38.4505 212.972C38.5488 212.874 38.6821 212.818 38.8212 212.818H238.544C238.683 212.818 238.817 212.874 238.915 212.972C239.013 213.07 239.068 213.204 239.068 213.343C239.068 213.482 239.013 213.615 238.915 213.713C238.817 213.812 238.683 213.867 238.544 213.867Z" fill="#CCCCCC"/>
<path d="M221.109 142.584H53.6058C53.4668 142.584 53.3335 142.529 53.2351 142.431C53.1368 142.333 53.0816 142.199 53.0816 142.06V61.7762C53.0816 61.6371 53.1368 61.5038 53.2351 61.4055C53.3335 61.3072 53.4668 61.252 53.6058 61.252C53.7449 61.252 53.8782 61.3072 53.9765 61.4055C54.0748 61.5038 54.13 61.6371 54.13 61.7762V141.536H221.109C221.248 141.536 221.381 141.591 221.479 141.69C221.578 141.788 221.633 141.921 221.633 142.06C221.633 142.199 221.578 142.333 221.479 142.431C221.381 142.529 221.248 142.584 221.109 142.584Z" fill="#3F3D56"/>
<path d="M89.3938 136.819H74.1588C73.7463 136.818 73.3508 136.654 73.059 136.362C72.7673 136.071 72.6032 135.675 72.6027 135.263V114.261C72.6032 113.849 72.7673 113.453 73.059 113.161C73.3508 112.87 73.7463 112.706 74.1588 112.705H89.3938C89.8064 112.706 90.2019 112.87 90.4936 113.161C90.7854 113.453 90.9495 113.849 90.95 114.261V135.263C90.9495 135.675 90.7854 136.071 90.4936 136.362C90.2019 136.654 89.8064 136.818 89.3938 136.819V136.819Z" fill="#1E3C72"/>
<path d="M117.177 136.818H101.942C101.529 136.817 101.134 136.653 100.842 136.361C100.55 136.07 100.386 135.674 100.386 135.262V94.3402C100.386 93.9276 100.55 93.5321 100.842 93.2404C101.134 92.9487 101.529 92.7846 101.942 92.7842H117.177C117.589 92.7846 117.985 92.9487 118.277 93.2404C118.568 93.5321 118.732 93.9276 118.733 94.3402V135.262C118.732 135.674 118.568 136.07 118.277 136.361C117.985 136.653 117.589 136.817 117.177 136.818V136.818Z" fill="#1E3C72"/>
<path d="M144.96 136.819H129.725C129.312 136.818 128.917 136.654 128.625 136.362C128.333 136.071 128.169 135.675 128.169 135.263V114.261C128.169 113.849 128.333 113.453 128.625 113.161C128.917 112.87 129.312 112.706 129.725 112.705H144.96C145.372 112.706 145.768 112.87 146.06 113.161C146.351 113.453 146.515 113.849 146.516 114.261V135.263C146.515 135.675 146.351 136.071 146.06 136.362C145.768 136.654 145.372 136.818 144.96 136.819V136.819Z" fill="#1E3C72"/>
<path d="M172.743 136.818H157.508C157.105 136.826 156.714 136.675 156.423 136.397C156.131 136.118 155.962 135.735 155.952 135.332V86.4068C155.962 86.0036 156.131 85.6209 156.423 85.3425C156.714 85.064 157.105 84.9126 157.508 84.9213H172.743C173.146 84.9126 173.536 85.064 173.828 85.3425C174.119 85.6209 174.289 86.0036 174.299 86.4068V135.332C174.289 135.735 174.119 136.118 173.828 136.397C173.536 136.675 173.146 136.826 172.743 136.818V136.818Z" fill="#1E3C72"/>
<path d="M200.526 136.818H185.291C184.878 136.817 184.483 136.653 184.191 136.361C183.899 136.07 183.735 135.674 183.735 135.262V72.3236C183.735 71.911 183.899 71.5155 184.191 71.2238C184.483 70.9321 184.878 70.768 185.291 70.7676H200.526C200.938 70.768 201.334 70.9321 201.626 71.2238C201.917 71.5155 202.081 71.911 202.082 72.3236V135.262C202.081 135.674 201.917 136.07 201.626 136.361C201.334 136.653 200.938 136.817 200.526 136.818V136.818Z" fill="#1E3C72"/>
<path d="M81.7763 106.414C83.5134 106.414 84.9216 105.005 84.9216 103.268C84.9216 101.531 83.5134 100.123 81.7763 100.123C80.0393 100.123 78.6311 101.531 78.6311 103.268C78.6311 105.005 80.0393 106.414 81.7763 106.414Z" fill="#3F3D56"/>
<path d="M109.559 85.9702C111.296 85.9702 112.705 84.562 112.705 82.8249C112.705 81.0879 111.296 79.6797 109.559 79.6797C107.822 79.6797 106.414 81.0879 106.414 82.8249C106.414 84.562 107.822 85.9702 109.559 85.9702Z" fill="#3F3D56"/>
<path d="M137.342 106.414C139.079 106.414 140.488 105.005 140.488 103.268C140.488 101.531 139.079 100.123 137.342 100.123C135.605 100.123 134.197 101.531 134.197 103.268C134.197 105.005 135.605 106.414 137.342 106.414Z" fill="#3F3D56"/>
<path d="M165.125 76.0102C166.862 76.0102 168.271 74.602 168.271 72.865C168.271 71.1279 166.862 69.7197 165.125 69.7197C163.388 69.7197 161.98 71.1279 161.98 72.865C161.98 74.602 163.388 76.0102 165.125 76.0102Z" fill="#3F3D56"/>
<path d="M192.908 64.477C194.645 64.477 196.054 63.0688 196.054 61.3318C196.054 59.5947 194.645 58.1865 192.908 58.1865C191.171 58.1865 189.763 59.5947 189.763 61.3318C189.763 63.0688 191.171 64.477 192.908 64.477Z" fill="#3F3D56"/>
<path d="M137.408 103.974L109.559 83.1143L82.0908 103.688L81.4618 102.85L109.559 81.8043L137.276 102.564L164.819 72.4236L164.929 72.3785L192.712 61.1846L193.104 62.157L165.432 73.3063L137.408 103.974Z" fill="#3F3D56"/>
</svg>
