<svg width="400" height="325" viewBox="0 0 400 325" fill="none" xmlns="http://www.w3.org/2000/svg">
<path d="M319.33 59.0947C317.252 81.9891 311.333 106.13 302.049 129.423C290.568 158.227 274.882 183.598 256.687 202.793L255.677 201.912C273.784 182.81 289.399 157.551 300.832 128.866C311.164 102.943 317.31 75.967 318.612 50.8652L319.903 51.0813C319.766 53.7323 319.575 56.4035 319.33 59.0947Z" fill="#F2F2F2"/>
<path d="M327.606 192.061C302.049 232.72 271.044 261.77 240.3 273.861L239.678 272.721C270.209 260.714 301.033 231.812 326.473 191.339L327.606 192.061Z" fill="#F2F2F2"/>
<path d="M318.71 87.5986C316.632 110.493 310.712 134.634 301.428 157.927C289.947 186.731 274.262 212.102 256.066 231.297L255.057 230.416C273.164 211.314 288.778 186.055 300.211 157.37C310.544 131.447 316.689 104.471 317.992 79.3691L319.282 79.5852C319.145 82.2362 318.954 84.9074 318.71 87.5986Z" fill="#F2F2F2"/>
<path d="M31.8061 146.376H15.038C14.6797 146.377 14.3259 146.297 14.0032 146.141C13.6804 145.986 13.3971 145.759 13.1744 145.479C12.9543 145.205 12.7991 144.886 12.7203 144.544C12.6415 144.202 12.6412 143.846 12.7195 143.504C14.3165 136.457 14.2161 129.132 12.4267 122.132C12.3136 121.671 12.3409 121.187 12.5053 120.741C12.6697 120.296 12.9636 119.91 13.3492 119.634C21.9714 113.432 28.7616 113.612 33.5315 120.169C33.7465 120.468 33.8893 120.813 33.9488 121.176C35.2232 128.838 35.2938 136.652 34.1578 144.335C34.0789 144.902 33.7971 145.422 33.3647 145.797C32.9324 146.172 32.3786 146.378 31.8061 146.376V146.376Z" fill="#E6E6E6"/>
<path d="M26.6074 129.584H20.8392C20.5202 129.584 20.2143 129.457 19.9887 129.232C19.7632 129.006 19.6365 128.7 19.6365 128.381C19.6365 128.062 19.7632 127.757 19.9887 127.531C20.2143 127.305 20.5202 127.179 20.8392 127.179H26.6074C26.926 127.179 27.2312 127.306 27.4562 127.532C27.6812 127.757 27.8076 128.063 27.8076 128.381C27.8076 128.7 27.6812 129.005 27.4562 129.231C27.2312 129.456 26.926 129.583 26.6074 129.584V129.584Z" fill="white"/>
<path d="M26.6074 133.802H20.8392C20.5202 133.802 20.2143 133.675 19.9887 133.45C19.7632 133.224 19.6365 132.918 19.6365 132.599C19.6365 132.28 19.7632 131.974 19.9887 131.749C20.2143 131.523 20.5202 131.396 20.8392 131.396H26.6074C26.926 131.397 27.2312 131.524 27.4562 131.75C27.6812 131.975 27.8076 132.281 27.8076 132.599C27.8076 132.918 27.6812 133.223 27.4562 133.449C27.2312 133.674 26.926 133.801 26.6074 133.802V133.802Z" fill="white"/>
<path d="M26.6074 138.021H20.8392C20.5202 138.021 20.2143 137.894 19.9887 137.668C19.7632 137.443 19.6365 137.137 19.6365 136.818C19.6365 136.499 19.7632 136.193 19.9887 135.967C20.2143 135.742 20.5202 135.615 20.8392 135.615H26.6074C26.926 135.616 27.2312 135.743 27.4562 135.968C27.6812 136.194 27.8076 136.499 27.8076 136.818C27.8076 137.136 27.6812 137.442 27.4562 137.667C27.2312 137.893 26.926 138.02 26.6074 138.021V138.021Z" fill="white"/>
<path d="M336.55 221.245H319.782C319.424 221.245 319.07 221.165 318.747 221.01C318.424 220.854 318.141 220.628 317.918 220.347C317.698 220.073 317.543 219.754 317.464 219.412C317.385 219.07 317.385 218.714 317.463 218.372C319.06 211.325 318.96 204 317.171 197C317.057 196.539 317.085 196.055 317.249 195.61C317.414 195.164 317.708 194.778 318.093 194.502C326.715 188.3 333.506 188.48 338.275 195.037C338.49 195.336 338.633 195.681 338.693 196.044C339.967 203.706 340.038 211.52 338.902 219.203C338.823 219.77 338.541 220.29 338.109 220.665C337.676 221.04 337.123 221.246 336.55 221.245V221.245Z" fill="#E6E6E6"/>
<path d="M331.351 204.452H325.583C325.265 204.452 324.959 204.325 324.734 204.099C324.509 203.874 324.383 203.568 324.383 203.25C324.383 202.931 324.509 202.625 324.734 202.4C324.959 202.175 325.265 202.048 325.583 202.047H331.351C331.67 202.047 331.976 202.174 332.202 202.399C332.427 202.625 332.554 202.931 332.554 203.25C332.554 203.569 332.427 203.874 332.202 204.1C331.976 204.326 331.67 204.452 331.351 204.452Z" fill="white"/>
<path d="M331.351 208.67H325.583C325.265 208.669 324.959 208.542 324.734 208.317C324.509 208.091 324.383 207.786 324.383 207.467C324.383 207.149 324.509 206.843 324.734 206.618C324.959 206.392 325.265 206.265 325.583 206.265H331.351C331.67 206.265 331.976 206.391 332.202 206.617C332.427 206.842 332.554 207.148 332.554 207.467C332.554 207.786 332.427 208.092 332.202 208.318C331.976 208.543 331.67 208.67 331.351 208.67Z" fill="white"/>
<path d="M331.351 212.888H325.583C325.265 212.887 324.959 212.76 324.734 212.535C324.509 212.309 324.383 212.004 324.383 211.685C324.383 211.367 324.509 211.061 324.734 210.836C324.959 210.61 325.265 210.483 325.583 210.482H331.351C331.67 210.482 331.976 210.609 332.202 210.835C332.427 211.06 332.554 211.366 332.554 211.685C332.554 212.004 332.427 212.31 332.202 212.536C331.976 212.761 331.67 212.888 331.351 212.888Z" fill="white"/>
<path d="M400 323.796C400 323.879 399.984 323.961 399.953 324.037C399.921 324.113 399.875 324.182 399.817 324.241C399.758 324.299 399.689 324.345 399.613 324.377C399.537 324.408 399.455 324.424 399.373 324.424H0.627415C0.461015 324.424 0.301435 324.358 0.183772 324.24C0.0661095 324.122 0 323.963 0 323.796C0 323.63 0.0661095 323.47 0.183772 323.353C0.301435 323.235 0.461015 323.169 0.627415 323.169H399.373C399.455 323.169 399.537 323.185 399.613 323.216C399.689 323.248 399.758 323.294 399.817 323.352C399.875 323.41 399.921 323.48 399.953 323.556C399.984 323.632 400 323.714 400 323.796V323.796Z" fill="#CCCCCC"/>
<path d="M105.186 285.381L104.14 270.836C97.2894 267.411 89.7063 265.711 82.0493 265.882C92.8217 274.209 91.9588 290.851 99.4193 302.24C101.773 305.774 104.893 308.734 108.546 310.899C112.199 313.064 116.293 314.379 120.523 314.747L129.489 319.905C130.514 313.126 130.058 306.207 128.152 299.622C126.245 293.037 122.934 286.943 118.446 281.761C115.899 278.879 113 276.329 109.816 274.171C107.857 279.798 105.186 285.381 105.186 285.381Z" fill="#F2F2F2"/>
<path d="M294.814 287.49L295.86 272.944C302.71 269.52 310.294 267.819 317.951 267.99C307.178 276.317 308.041 292.959 300.581 304.348C298.227 307.883 295.107 310.842 291.454 313.007C287.801 315.172 283.707 316.487 279.476 316.855L270.511 322.013C269.486 315.235 269.942 308.315 271.848 301.73C273.755 295.145 277.066 289.052 281.554 283.87C284.1 280.987 287 278.437 290.184 276.28C292.143 281.906 294.814 287.49 294.814 287.49Z" fill="#F2F2F2"/>
<path d="M195.255 123.344C200.787 123.344 205.272 118.859 205.272 113.326C205.272 107.794 200.787 103.309 195.255 103.309C189.722 103.309 185.237 107.794 185.237 113.326C185.237 118.859 189.722 123.344 195.255 123.344Z" fill="#1E3C72"/>
<path d="M200.397 109.151C200.247 109.007 200.046 108.927 199.838 108.927C199.63 108.927 199.43 109.007 199.279 109.151C197.153 110.846 195.244 112.796 193.594 114.957C193.189 114.173 192.784 113.39 192.379 112.606C191.912 111.701 190.546 112.501 191.013 113.404C191.606 114.551 192.198 115.697 192.791 116.843C192.862 116.96 192.962 117.057 193.082 117.124C193.202 117.191 193.336 117.226 193.474 117.226C193.611 117.226 193.745 117.191 193.865 117.124C193.985 117.057 194.085 116.96 194.156 116.843C195.915 114.367 198.016 112.154 200.397 110.269C200.544 110.12 200.627 109.919 200.627 109.71C200.627 109.501 200.544 109.3 200.397 109.151V109.151Z" fill="white"/>
<path d="M150.432 141.732L135.325 118.009L152.818 108.641L157.409 126.741L189.758 144.221C191.035 143.761 192.419 143.683 193.739 143.996C195.06 144.309 196.261 145 197.196 145.984C198.132 146.967 198.76 148.202 199.006 149.537C199.251 150.872 199.103 152.249 198.579 153.502C198.055 154.754 197.179 155.827 196.056 156.589C194.933 157.351 193.612 157.771 192.255 157.796C190.898 157.821 189.563 157.45 188.413 156.729C187.263 156.009 186.347 154.969 185.777 153.737L150.432 141.732Z" fill="#A0616A"/>
<path d="M124.289 89.5541C119.542 96.523 136.41 121.854 136.41 121.854C137.232 120.083 145.087 139.973 146.402 138.798C150.142 135.459 155.995 126.157 159.249 125.742C161.109 125.505 154.933 112.309 154.933 112.309C154.933 112.309 152.111 104.517 148.28 94.563C147.25 91.7288 145.519 89.2015 143.249 87.2162C140.979 85.2309 138.243 83.8523 135.297 83.2087C135.297 83.2087 129.035 82.5853 124.289 89.5541Z" fill="#3F3D56"/>
<path d="M124.521 316.601L131.695 316.601L135.108 288.929L124.519 288.929L124.521 316.601Z" fill="#A0616A"/>
<path d="M122.69 314.259L124.71 314.259L132.593 311.053L136.819 314.258H136.819C139.207 314.259 141.497 315.207 143.186 316.896C144.874 318.584 145.823 320.874 145.823 323.262V323.555L122.691 323.556L122.69 314.259Z" fill="#2F2E41"/>
<path d="M157.85 316.601L165.025 316.601L168.438 288.929L157.849 288.929L157.85 316.601Z" fill="#A0616A"/>
<path d="M156.021 314.259L158.04 314.259L165.924 311.053L170.149 314.258H170.15C172.538 314.259 174.828 315.207 176.516 316.896C178.205 318.584 179.154 320.874 179.154 323.262V323.555L156.021 323.556L156.021 314.259Z" fill="#2F2E41"/>
<path d="M160.956 165.316L114.292 166.483C105.429 171.297 105.294 181.715 108.198 194.085C108.198 194.085 107.218 201.437 109.179 203.398C111.139 205.359 112.119 205.359 111.139 208.79C110.159 212.221 115.338 217.825 114.709 218.454C114.08 219.083 112.61 222.514 112.61 222.514L117.511 250.452C117.511 250.452 120.942 298.977 121.922 299.958C122.903 300.938 123.883 299.958 122.903 302.408C121.922 304.859 120.942 303.879 121.922 304.859C122.791 305.795 123.609 306.777 124.373 307.8H136.224C136.224 307.8 137.117 302.899 137.117 302.408C137.117 301.918 138.097 298.977 138.097 298.487C138.097 297.997 137.231 297.131 137.231 297.131C136.932 296.134 136.729 295.111 136.627 294.076C136.627 293.096 133.686 255.354 133.686 255.354L139.568 206.339L153.782 254.374C153.782 254.374 153.782 296.527 154.762 297.507C155.743 298.487 155.743 297.997 155.253 299.958C154.762 301.918 152.802 301.428 154.272 302.899C155.743 304.369 156.233 301.918 155.743 304.369L155.253 306.82L169.957 307.03C169.957 307.03 171.918 302.899 170.937 301.428C169.957 299.958 170.016 300.359 171.212 297.953C172.408 295.546 172.898 295.056 172.408 294.566C171.918 294.076 171.918 291.469 171.918 291.469L169.467 244.571C169.467 244.571 168.977 195.066 168.977 193.595C168.94 192.838 169.079 192.084 169.384 191.39V189.394L167.506 182.322L160.956 165.316Z" fill="#2F2E41"/>
<path d="M132.924 68.2849C140.931 68.2849 147.423 61.7935 147.423 53.786C147.423 45.7785 140.931 39.2871 132.924 39.2871C124.916 39.2871 118.425 45.7785 118.425 53.786C118.425 61.7935 124.916 68.2849 132.924 68.2849Z" fill="#A0616A"/>
<path d="M140.173 77.8682C143.297 79.7252 145.166 83.1371 146.238 86.6091C148.224 93.037 149.419 99.683 149.798 106.4L150.931 126.51L164.962 169.329C152.801 179.618 107.092 171.667 107.092 171.667C107.092 171.667 105.689 171.2 107.092 169.796C108.496 168.393 109.862 169.636 108.458 168.233C107.055 166.83 108.023 168.393 108.49 166.99C108.958 165.587 108.49 166.522 108.023 166.055C107.555 165.587 111.643 161.378 111.643 161.378L107.902 136.799L103.225 87.2223C108.837 80.2067 120.125 76.071 120.125 76.071L123.041 70.8213L137.624 71.9879L140.173 77.8682Z" fill="#3F3D56"/>
<path d="M144.876 46.0828C146.003 46.9233 146.838 48.0961 147.263 49.436C147.427 47.2463 147.437 45.0479 147.294 42.8567C147.123 41.317 146.039 40.9707 144.784 40.5693C143.651 40.2068 142.369 39.7972 142.024 38.3025C137.466 33.8687 129.532 34.0923 124.102 35.6389C121.115 36.4899 119.396 37.5833 119.242 38.2239L119.21 38.3558L119.089 38.4164C116.785 39.5679 116.337 43.2042 116.367 46.0518C116.423 51.4169 118.275 57.5103 119.319 58.0053C119.374 58.0315 119.388 58.0212 119.412 58.0013C120.983 56.7455 122.901 58.0967 123.743 58.8312C124.24 55.4967 125.84 52.425 128.287 50.1065C130.735 47.788 133.889 46.3565 137.245 46.0407C138.341 45.9348 139.429 45.7524 140.5 45.495C141.043 45.3545 141.601 45.2812 142.162 45.2768C143.128 45.2622 144.075 45.5434 144.876 46.0828V46.0828Z" fill="#2F2E41"/>
<path d="M234.883 176.869L262.774 148.547L270.122 125.895L258.297 121.112C252.439 127.021 246.409 145.11 246.409 145.11L227.373 170.659C227.221 170.715 227.07 170.775 226.92 170.845C226.044 171.259 225.289 171.892 224.729 172.683C224.168 173.474 223.821 174.396 223.721 175.36C223.622 176.324 223.772 177.297 224.158 178.186C224.545 179.075 225.154 179.849 225.927 180.434C226.7 181.019 227.61 181.394 228.571 181.524C229.531 181.654 230.509 181.534 231.409 181.176C232.31 180.817 233.103 180.233 233.711 179.478C234.32 178.724 234.724 177.825 234.883 176.869Z" fill="#FFB8B8"/>
<path d="M255.072 123.703L270.026 128.029L270.081 128.018C275.578 126.951 279.926 117.816 282.606 110.341C283.487 107.875 283.4 105.167 282.361 102.763C281.322 100.36 279.409 98.4404 277.009 97.3931V97.3931C275.234 96.6326 273.281 96.3838 271.371 96.675C269.462 96.9661 267.672 97.7856 266.204 99.0409L258.748 105.461L255.072 123.703Z" fill="#1E3C72"/>
<path d="M242.277 315.761L234.235 315.76L230.409 284.74L242.278 284.741L242.277 315.761Z" fill="#FFB8B8"/>
<path d="M244.329 313.135L242.065 313.135L233.227 309.541L228.49 313.135H228.49C225.813 313.135 223.246 314.198 221.353 316.091C219.46 317.984 218.397 320.551 218.396 323.228V323.556L244.328 323.557L244.329 313.135Z" fill="#2F2E41"/>
<path d="M277.962 315.761L269.92 315.76L266.094 284.74L277.964 284.741L277.962 315.761Z" fill="#FFB8B8"/>
<path d="M280.014 313.135L277.75 313.135L268.912 309.541L264.176 313.135H264.175C261.498 313.135 258.931 314.198 257.038 316.091C255.145 317.984 254.082 320.551 254.082 323.228V323.556L280.013 323.557L280.014 313.135Z" fill="#2F2E41"/>
<path d="M290.225 182.144C290.225 182.144 291.164 193.413 288.817 204.213C286.469 215.012 286.469 245.427 286.469 245.427L281.304 304.695L265.809 303.286L261.583 204.213L246.558 237.55L247.966 242.246L246.09 243.419C246.09 243.419 247.497 252.575 246.558 252.575C245.619 252.575 243.271 253.984 243.271 253.984L245.149 302.347L229.185 301.877L223.55 233.794L229.654 194.822L230.124 187.309L232.237 187.396L233.313 184.257L235.289 178.857L290.225 182.144Z" fill="#2F2E41"/>
<path d="M291.037 184.512L291.12 184.394C295.59 178.137 288.868 163.101 287.854 160.922L292.124 159.536L291.163 151.362L290.707 147.718L293.971 144.455L293.98 144.373L295.858 127.939L298.589 117.024C299.618 112.898 299.53 108.572 298.335 104.491C297.139 100.409 294.88 96.7197 291.787 93.8004L285.475 87.8489L277.804 76.498H265.433L261.191 84.5101C257.079 85.4605 253.43 87.8235 250.881 91.1875C248.331 94.5515 247.043 98.7032 247.24 102.919L248.201 123.932L244.438 150.096L244.436 154.831L240.2 159.537L241.125 164.162L237.902 165.543L236.479 172.184C235.89 172.962 232.002 178.145 232.002 179.562C232.002 179.775 232.159 179.981 232.496 180.209C235.145 182.003 249.789 185.661 256.27 183.067C263.174 180.307 290.618 184.448 290.894 184.49L291.037 184.512Z" fill="#1E3C72"/>
<path d="M270.02 72.8337C279.069 72.8337 286.404 65.4985 286.404 56.4501C286.404 47.4016 279.069 40.0664 270.02 40.0664C260.972 40.0664 253.636 47.4016 253.636 56.4501C253.636 65.4985 260.972 72.8337 270.02 72.8337Z" fill="#FFB8B8"/>
<path d="M268.451 73.0996C270.988 73.0737 273.518 72.8311 276.014 72.3744C278.485 71.8051 283.937 67.5894 285.423 65.0988C286.527 63.2484 287.19 60.3862 287.551 58.3111C288.04 55.5648 287.945 52.7467 287.275 50.0391C286.605 47.3315 285.374 44.7948 283.661 42.5934C283 41.6711 282.103 40.9445 281.064 40.4903C280.972 40.4571 280.877 40.428 280.782 40.4034C279.275 40.0483 277.909 39.251 276.859 38.1139C276.655 37.8837 276.435 37.6685 276.2 37.4699C275.022 36.5267 273.638 35.8756 272.16 35.57C269.772 34.9966 266.357 35.7151 262.009 37.7074C259.824 38.7084 257.4 38.4292 255.531 38.074C255.426 38.0566 255.319 38.0669 255.219 38.1039C255.12 38.1409 255.031 38.2033 254.963 38.285C254.192 39.0477 253.16 39.49 252.076 39.5232C251.413 39.5696 250.739 40.5073 249.928 41.7283C249.744 42.0055 249.529 42.329 249.373 42.5264L249.342 42.1557L248.977 42.5796C248.403 43.2459 248.007 44.0465 247.826 44.9069C247.645 45.7673 247.685 46.6596 247.941 47.5006C248.198 48.3416 248.663 49.104 249.294 49.7168C249.924 50.3295 250.7 50.7728 251.548 51.0052C252.221 51.1657 252.908 51.2572 253.599 51.2781C254.018 51.3049 254.452 51.3326 254.868 51.3938C256.206 51.6319 257.458 52.2127 258.504 53.0795C259.55 53.9463 260.353 55.0695 260.836 56.3394C260.95 56.6329 261.129 56.8962 261.361 57.1092C261.593 57.3222 261.871 57.479 262.173 57.5676C262.475 57.6563 262.793 57.6743 263.103 57.6204C263.413 57.5664 263.707 57.4419 263.961 57.2565C264.384 56.9091 264.885 56.6692 265.421 56.5573C265.957 56.4453 266.512 56.4646 267.039 56.6136C267.497 56.8531 267.859 57.2427 268.064 57.7173C268.311 58.2455 268.711 58.6879 269.211 58.9881C270.917 59.8126 271.132 63.6544 270.61 66.8752C270.107 69.9797 269.013 72.2444 267.949 72.3824C267.13 72.4886 267.038 72.5493 266.982 72.6961L266.932 72.8275L267.028 72.9467C267.486 73.0994 267.971 73.1515 268.451 73.0996V73.0996Z" fill="#2F2E41"/>
<path d="M254.858 125.455L246.983 115.421C238.961 117.63 224.727 130.317 224.727 130.317L195.496 143.002C194.521 142.838 193.519 142.934 192.592 143.28C191.666 143.626 190.846 144.211 190.217 144.974C189.588 145.737 189.171 146.653 189.008 147.629C188.846 148.605 188.943 149.606 189.29 150.533C189.637 151.459 190.223 152.277 190.987 152.906C191.751 153.534 192.667 153.95 193.643 154.111C194.619 154.273 195.621 154.175 196.547 153.826C197.473 153.478 198.29 152.892 198.918 152.127L237.209 141.444L254.858 125.455Z" fill="#FFB8B8"/>
<path d="M252.97 127.749L265.396 113.897L266.086 104.082C266.215 102.155 265.802 100.23 264.893 98.5253C263.985 96.8205 262.618 95.4036 260.947 94.4348V94.4348C258.673 93.1368 255.991 92.7508 253.443 93.3548C250.895 93.9588 248.672 95.5077 247.222 97.6885C242.831 104.306 238.108 113.252 240.538 118.297L240.563 118.348L252.97 127.749Z" fill="#1E3C72"/>
<path d="M138.442 179.815L106.146 163.275C103.849 162.098 103.088 158.977 104.45 156.318L125.507 115.202C126.869 112.543 129.846 111.337 132.143 112.513L164.439 129.053C166.736 130.23 167.497 133.351 166.135 136.01L145.078 177.126C143.716 179.785 140.739 180.991 138.442 179.815Z" fill="#E6E6E6"/>
<path d="M132.924 172.211L110.982 160.973C108.83 159.871 108.118 156.949 109.393 154.458L126.887 120.3C128.163 117.809 130.951 116.68 133.102 117.782L159.604 131.354C161.755 132.456 162.468 135.379 161.192 137.869L151.689 156.426C146.007 167.519 142.507 177.119 132.924 172.211Z" fill="white"/>
<path d="M143.773 153.557L124.338 143.604C124.1 143.435 123.931 143.185 123.862 142.902C123.793 142.618 123.828 142.32 123.961 142.06C124.094 141.8 124.316 141.597 124.587 141.487C124.857 141.378 125.158 141.369 125.434 141.463L144.869 151.417C145.107 151.586 145.275 151.835 145.345 152.118C145.414 152.402 145.379 152.701 145.246 152.961C145.113 153.22 144.891 153.423 144.62 153.533C144.35 153.643 144.049 153.651 143.773 153.557V153.557Z" fill="#1E3C72"/>
<path d="M126.607 150.105L122.172 147.833C121.934 147.664 121.765 147.415 121.696 147.131C121.627 146.848 121.662 146.549 121.795 146.289C121.928 146.03 122.15 145.826 122.42 145.717C122.691 145.607 122.992 145.599 123.268 145.693L127.703 147.964C127.941 148.133 128.11 148.383 128.179 148.666C128.248 148.949 128.213 149.248 128.08 149.508C127.947 149.768 127.725 149.971 127.454 150.081C127.184 150.19 126.883 150.199 126.607 150.105V150.105Z" fill="#1E3C72"/>
<path d="M132.296 158.357L120.005 152.063C119.768 151.894 119.599 151.644 119.53 151.361C119.461 151.077 119.496 150.779 119.629 150.519C119.762 150.259 119.984 150.056 120.254 149.946C120.525 149.837 120.825 149.828 121.102 149.922L133.392 156.217C133.63 156.386 133.799 156.635 133.868 156.919C133.937 157.202 133.902 157.501 133.769 157.761C133.636 158.02 133.414 158.224 133.143 158.333C132.873 158.443 132.572 158.451 132.296 158.358V158.357Z" fill="#1E3C72"/>
<path d="M151.463 138.54L132.028 128.586C131.791 128.417 131.622 128.168 131.553 127.884C131.484 127.601 131.519 127.302 131.652 127.042C131.785 126.783 132.007 126.579 132.277 126.47C132.548 126.36 132.849 126.352 133.125 126.445L152.56 136.399C152.797 136.568 152.966 136.817 153.035 137.101C153.104 137.384 153.069 137.683 152.936 137.943C152.803 138.203 152.581 138.406 152.311 138.515C152.04 138.625 151.74 138.634 151.463 138.54V138.54Z" fill="#1E3C72"/>
<path d="M134.297 135.088L129.862 132.817C129.625 132.648 129.456 132.398 129.387 132.115C129.318 131.831 129.353 131.532 129.486 131.273C129.619 131.013 129.841 130.81 130.111 130.7C130.382 130.591 130.682 130.582 130.959 130.676L135.394 132.947C135.632 133.117 135.8 133.366 135.869 133.649C135.939 133.933 135.903 134.232 135.77 134.491C135.637 134.751 135.415 134.954 135.145 135.064C134.875 135.174 134.574 135.182 134.297 135.088V135.088Z" fill="#1E3C72"/>
<path d="M139.987 143.341L127.696 137.046C127.459 136.877 127.29 136.628 127.221 136.344C127.152 136.061 127.187 135.762 127.32 135.502C127.453 135.243 127.675 135.039 127.945 134.93C128.216 134.82 128.516 134.812 128.793 134.905L141.083 141.2C141.321 141.369 141.49 141.618 141.559 141.902C141.628 142.185 141.593 142.484 141.46 142.744C141.327 143.004 141.105 143.207 140.834 143.317C140.564 143.426 140.263 143.435 139.987 143.341L139.987 143.341Z" fill="#1E3C72"/>
<path d="M111.68 144.019L104.384 116.857L123.881 113.166L122.832 131.81L148.45 158.187C149.806 158.132 151.149 158.472 152.315 159.167C153.481 159.861 154.42 160.88 155.017 162.099C155.614 163.318 155.843 164.685 155.677 166.032C155.511 167.379 154.957 168.649 154.081 169.686C153.206 170.724 152.048 171.484 150.748 171.874C149.448 172.265 148.063 172.269 146.761 171.886C145.458 171.503 144.296 170.749 143.415 169.716C142.534 168.684 141.972 167.417 141.798 166.071L111.68 144.019Z" fill="#A0616A"/>
<path d="M102.389 86.403C95.7707 91.6276 104.265 120.852 104.265 120.852C105.58 119.408 107.108 140.739 108.716 140.012C113.284 137.948 121.658 130.83 124.886 131.41C126.732 131.742 124.798 117.301 124.798 117.301C124.798 117.301 124.442 109.021 123.774 98.3766C123.64 95.3638 122.747 92.4336 121.177 89.8589C119.607 87.2842 117.41 85.1487 114.793 83.651C114.793 83.651 109.007 81.1785 102.389 86.403Z" fill="#3F3D56"/>
<path d="M212.505 204.307L194.882 195.985C194.505 195.808 194.173 195.548 193.911 195.224C193.649 194.901 193.463 194.522 193.369 194.117C193.273 193.72 193.269 193.307 193.356 192.908C193.442 192.51 193.619 192.136 193.871 191.815C198.976 185.291 202.481 177.661 204.106 169.537C204.229 168.915 204.563 168.355 205.053 167.952C205.542 167.549 206.157 167.329 206.791 167.328C215.779 167.359 222.496 170.641 226.756 177.082C226.981 177.417 227.13 177.797 227.192 178.195C227.255 178.594 227.23 179.001 227.119 179.389C224.653 187.89 220.899 195.963 215.99 203.329C215.626 203.886 215.072 204.291 214.431 204.471C213.79 204.651 213.106 204.593 212.505 204.307Z" fill="#E6E6E6"/>
<path d="M217.69 192.634L204.215 186.271C203.879 186.113 203.621 185.828 203.496 185.479C203.37 185.13 203.389 184.746 203.547 184.41C203.706 184.075 203.991 183.817 204.34 183.691C204.689 183.566 205.073 183.585 205.408 183.743L218.884 190.106C219.05 190.185 219.198 190.295 219.322 190.431C219.445 190.567 219.541 190.726 219.603 190.899C219.664 191.071 219.692 191.255 219.683 191.438C219.674 191.621 219.629 191.801 219.551 191.967C219.472 192.133 219.362 192.282 219.226 192.406C219.09 192.529 218.931 192.624 218.758 192.686C218.586 192.748 218.402 192.776 218.219 192.767C218.036 192.758 217.856 192.713 217.69 192.634H217.69Z" fill="white"/>
<path d="M219.783 188.203L206.308 181.84C205.973 181.681 205.714 181.396 205.589 181.047C205.464 180.698 205.483 180.314 205.641 179.979C205.799 179.643 206.084 179.385 206.433 179.26C206.782 179.135 207.167 179.153 207.502 179.312L220.977 185.675C221.312 185.833 221.571 186.118 221.696 186.467C221.821 186.816 221.803 187.2 221.644 187.536C221.486 187.871 221.201 188.13 220.852 188.255C220.503 188.38 220.119 188.361 219.783 188.203V188.203Z" fill="white"/>
<path d="M201.778 49.0411L200.523 49.1785C194.93 27.2009 184.09 11.9751 169.173 5.14674C150.209 -3.53329 126.76 2.29551 103.145 21.5597C79.4091 40.9222 58.397 71.5066 43.9793 107.68L42.7622 107.123C57.2432 70.7916 78.3631 40.0594 102.232 20.5893C126.22 1.02071 150.148 -4.85083 169.607 4.05648C184.952 11.0805 196.077 26.636 201.778 49.0411Z" fill="#F2F2F2"/>
<path d="M63.3909 77.6639C60.1106 84.5742 56.9905 91.7334 54.1172 98.9422C37.5827 140.427 29.2037 182.793 29.8885 221.464L28.5962 221.326C27.9108 182.511 36.3139 139.999 52.9001 98.3852C55.7816 91.156 58.9106 83.9767 62.2004 77.0469L63.3909 77.6639Z" fill="#F2F2F2"/>
<path d="M62.7705 106.169C59.4902 113.079 56.3701 120.238 53.4968 127.447C36.9623 168.931 28.5834 211.298 29.2681 249.969L27.9758 249.831C27.2904 211.016 35.6935 168.504 52.2797 126.89C55.1613 119.661 58.2902 112.482 61.58 105.552L62.7705 106.169Z" fill="#F2F2F2"/>
<path d="M28.0382 116.536C29.4667 114.388 28.6212 111.315 26.1497 109.67C23.6781 108.026 20.5165 108.434 19.088 110.581C17.6595 112.728 18.505 115.802 20.9766 117.446C23.4481 119.09 26.6097 118.683 28.0382 116.536Z" fill="#CCCCCC"/>
<path d="M332.224 194.077C333.653 191.929 332.807 188.856 330.335 187.212C327.864 185.567 324.702 185.975 323.274 188.122C321.845 190.269 322.691 193.343 325.162 194.987C327.634 196.631 330.795 196.224 332.224 194.077Z" fill="#CCCCCC"/>
</svg>
