<svg width="55" height="41" viewBox="0 0 55 41" fill="none" xmlns="http://www.w3.org/2000/svg">
<path d="M43.5211 27.7836C39.6782 25.5741 35.3061 24.3169 30.7776 23.9802C31.7052 24.3953 32.6383 24.8009 33.5168 25.3059C34.5382 25.8937 35.3571 26.7421 35.9594 27.7263C38.1119 28.3241 40.1816 29.1592 42.0994 30.2612C42.5012 30.4928 42.7509 30.9574 42.7509 31.4749V38.1184H37.0367V40.9755H44.1795C44.9692 40.9755 45.6081 40.3366 45.6081 39.547V31.4749C45.6082 29.9362 44.8074 28.5216 43.5211 27.7836Z" fill="#1E3C72"/>
<path d="M32.1988 27.7836C23.206 22.6133 11.0799 22.6133 2.08702 27.7836C0.799355 28.5244 0 29.9376 0 31.475V39.5471C0 40.3367 0.638937 40.9756 1.42859 40.9756H32.8572C33.6468 40.9756 34.2858 40.3367 34.2858 39.5471V31.4736C34.2858 29.9376 33.4864 28.5244 32.1988 27.7836V27.7836ZM31.4287 38.1185H2.85726V31.475C2.85726 30.9574 3.10701 30.4928 3.51013 30.2613C11.6407 25.5877 22.6452 25.5877 30.7758 30.2613C31.179 30.4928 31.4287 30.9574 31.4287 31.4736V38.1185Z" fill="#1E3C72"/>
<path d="M27.7543 3.89995C27.9913 3.87515 28.226 3.83284 28.4658 3.83284C32.4042 3.83284 35.6087 7.0374 35.6087 10.9757C35.6087 14.914 32.4041 18.1186 28.4658 18.1186C28.2262 18.1186 27.9914 18.076 27.7545 18.0512C27.1483 18.9665 26.4062 19.7708 25.5924 20.5022C26.5228 20.7887 27.4828 20.9756 28.4658 20.9756C33.9792 20.9756 38.4658 16.4891 38.4658 10.9756C38.4658 5.46216 33.9793 0.975586 28.4658 0.975586C27.4826 0.975586 26.5226 1.16255 25.5923 1.44904C26.4061 2.18055 27.1481 2.98463 27.7543 3.89995V3.89995Z" fill="#1E3C72"/>
<path d="M53.309 26.5584C50.233 24.7715 46.7336 23.7547 43.1089 23.4824C43.8513 23.8181 44.5983 24.1461 45.3014 24.5545C46.1189 25.0299 46.7744 25.7161 47.2565 26.5121C48.9794 26.9955 50.636 27.6709 52.171 28.5621C52.4926 28.7494 52.6925 29.1251 52.6925 29.5437V34.9165H48.1187V37.2273H53.836C54.468 37.2273 54.9794 36.7105 54.9794 36.0719V29.5437C54.9795 28.2993 54.3386 27.1552 53.309 26.5584Z" fill="#1E3C72"/>
<path d="M40.5191 7.11453C40.7146 7.09438 40.9082 7.06002 41.1061 7.06002C44.3553 7.06002 46.9991 9.66274 46.9991 12.8614C46.9991 16.0601 44.3553 18.6628 41.1061 18.6628C40.9084 18.6628 40.7147 18.6282 40.5192 18.6081C40.0191 19.3515 39.4069 20.0048 38.7355 20.5987C39.503 20.8314 40.2951 20.9833 41.1061 20.9833C45.6548 20.9833 49.3564 17.3393 49.3564 12.8613C49.3564 8.38335 45.6548 4.73938 41.1061 4.73938C40.2949 4.73938 39.5029 4.89123 38.7354 5.12392C39.4067 5.71804 40.019 6.37111 40.5191 7.11453Z" fill="#1E3C72"/>
<path d="M17.1429 20.9757C22.6562 20.9757 27.1429 16.4891 27.1429 10.9756C27.1429 5.46217 22.6563 0.975586 17.1429 0.975586C11.6294 0.975586 7.14282 5.46217 7.14282 10.9756C7.14282 16.4891 11.6295 20.9757 17.1429 20.9757ZM17.1429 3.83277C21.0812 3.83277 24.2857 7.03733 24.2857 10.9756C24.2857 14.9139 21.0812 18.1185 17.1429 18.1185C13.2046 18.1185 10 14.9139 10 10.9756C10 7.03733 13.2046 3.83277 17.1429 3.83277Z" fill="#1E3C72"/>
</svg>
