<svg width="76" height="20" viewBox="0 0 76 20" fill="none" xmlns="http://www.w3.org/2000/svg">
<path d="M28.0067 4.09033H23.8619C23.5782 4.09033 23.337 4.29639 23.2928 4.57639L21.6164 15.2049C21.5831 15.4146 21.7455 15.6037 21.9582 15.6037H23.937C24.2207 15.6037 24.4619 15.3976 24.5061 15.117L24.9582 12.2503C25.0019 11.9697 25.2437 11.7637 25.5267 11.7637H26.8388C29.5691 11.7637 31.1449 10.4425 31.5564 7.82427C31.7419 6.67882 31.5643 5.77882 31.0279 5.14851C30.4388 4.45639 29.394 4.09033 28.0067 4.09033ZM28.4849 7.97215C28.2582 9.45942 27.1219 9.45942 26.0231 9.45942H25.3976L25.8364 6.68185C25.8625 6.51397 26.0079 6.39033 26.1776 6.39033H26.4643C27.2128 6.39033 27.9188 6.39033 28.2837 6.817C28.5013 7.07154 28.5679 7.44973 28.4849 7.97215Z" fill="#1C75BC"/>
<path d="M40.3964 7.92422H38.4116C38.2425 7.92422 38.0964 8.04785 38.0703 8.21573L37.9825 8.77088L37.8437 8.56967C37.414 7.94603 36.4558 7.73755 35.4994 7.73755C33.3061 7.73755 31.4328 9.39876 31.0679 11.7291C30.8782 12.8915 31.1479 14.003 31.8073 14.7782C32.4122 15.4909 33.2776 15.7879 34.3073 15.7879C36.0746 15.7879 37.0546 14.6515 37.0546 14.6515L36.9661 15.203C36.9328 15.4139 37.0952 15.603 37.3067 15.603H39.0946C39.3788 15.603 39.6188 15.3969 39.6637 15.1163L40.7364 8.323C40.7703 8.11391 40.6085 7.92422 40.3964 7.92422ZM37.6297 11.7872C37.4382 12.9212 36.5382 13.6824 35.3903 13.6824C34.814 13.6824 34.3534 13.4975 34.0576 13.1472C33.7643 12.7994 33.6528 12.3042 33.7461 11.7527C33.9249 10.6285 34.84 9.8424 35.9703 9.8424C36.534 9.8424 36.9922 10.0297 37.294 10.383C37.5964 10.74 37.7164 11.2382 37.6297 11.7872Z" fill="#1C75BC"/>
<path d="M50.9673 7.92419H48.9727C48.7824 7.92419 48.6036 8.01874 48.4957 8.17692L45.7448 12.229L44.5788 8.3351C44.5054 8.09147 44.2806 7.92419 44.026 7.92419H42.066C41.8279 7.92419 41.6624 8.15692 41.7382 8.38116L43.9351 14.8284L41.8697 17.7442C41.7073 17.9739 41.8709 18.2896 42.1515 18.2896H44.1436C44.3327 18.2896 44.5097 18.1975 44.617 18.0424L51.2509 8.46662C51.4097 8.23753 51.2466 7.92419 50.9673 7.92419Z" fill="#1C75BC"/>
<path d="M57.5709 4.09033H53.4255C53.1424 4.09033 52.9012 4.29639 52.857 4.57639L51.1806 15.2049C51.1473 15.4146 51.3097 15.6037 51.5212 15.6037H53.6485C53.8461 15.6037 54.0152 15.4594 54.0461 15.2631L54.5218 12.2503C54.5655 11.9697 54.8073 11.7637 55.0903 11.7637H56.4018C59.1327 11.7637 60.7079 10.4425 61.12 7.82427C61.3061 6.67882 61.1273 5.77882 60.5909 5.14851C60.0024 4.45639 58.9582 4.09033 57.5709 4.09033ZM58.0491 7.97215C57.823 9.45942 56.6867 9.45942 55.5873 9.45942H54.9624L55.4018 6.68185C55.4279 6.51397 55.5721 6.39033 55.7424 6.39033H56.0291C56.777 6.39033 57.4837 6.39033 57.8485 6.817C58.0661 7.07154 58.1321 7.44973 58.0491 7.97215Z" fill="#179BD7"/>
<path d="M69.96 7.92422H67.9763C67.806 7.92422 67.6612 8.04785 67.6357 8.21573L67.5479 8.77088L67.4085 8.56967C66.9788 7.94603 66.0212 7.73755 65.0648 7.73755C62.8715 7.73755 60.9988 9.39876 60.6339 11.7291C60.4448 12.8915 60.7133 14.003 61.3727 14.7782C61.9788 15.4909 62.843 15.7879 63.8727 15.7879C65.64 15.7879 66.62 14.6515 66.62 14.6515L66.5315 15.203C66.4982 15.4139 66.6606 15.603 66.8733 15.603H68.6606C68.9436 15.603 69.1848 15.3969 69.2291 15.1163L70.3024 8.323C70.3351 8.11391 70.1727 7.92422 69.96 7.92422ZM67.1933 11.7872C67.003 12.9212 66.1018 13.6824 64.9539 13.6824C64.3788 13.6824 63.9169 13.4975 63.6212 13.1472C63.3279 12.7994 63.2176 12.3042 63.3097 11.7527C63.4897 10.6285 64.4036 9.8424 65.5339 9.8424C66.0975 9.8424 66.5557 10.0297 66.8576 10.383C67.1612 10.74 67.2812 11.2382 67.1933 11.7872Z" fill="#179BD7"/>
<path d="M72.3 4.38184L70.5988 15.2049C70.5655 15.4146 70.7279 15.6037 70.9394 15.6037H72.6497C72.934 15.6037 73.1752 15.3976 73.2188 15.117L74.8964 4.48912C74.9297 4.27942 74.7673 4.08972 74.5558 4.08972H72.6407C72.4716 4.09033 72.3261 4.21396 72.3 4.38184Z" fill="#179BD7"/>
<path d="M4.40367 17.6691L4.72064 15.6558L4.01458 15.6394H0.643066L2.9861 0.78303C2.99337 0.738181 3.01701 0.696363 3.05155 0.666666C3.0861 0.636969 3.13034 0.620605 3.1764 0.620605H8.86125C10.7485 0.620605 12.0509 1.01333 12.7309 1.78848C13.0497 2.15212 13.2528 2.53212 13.3509 2.9503C13.454 3.38909 13.4558 3.91333 13.3552 4.55273L13.3479 4.59939V5.00909L13.6667 5.1897C13.9352 5.33212 14.1485 5.49515 14.3122 5.68182C14.5849 5.99273 14.7612 6.38788 14.8358 6.85636C14.9128 7.33818 14.8873 7.91151 14.7612 8.56061C14.6158 9.30727 14.3806 9.95758 14.0631 10.4897C13.7709 10.98 13.3988 11.3867 12.957 11.7018C12.5352 12.0012 12.034 12.2285 11.4673 12.3739C10.9182 12.517 10.2922 12.5891 9.60549 12.5891H9.16307C8.8467 12.5891 8.53943 12.703 8.29822 12.9073C8.0564 13.1158 7.8964 13.4006 7.84731 13.7121L7.81397 13.8933L7.25397 17.4418L7.22852 17.5721C7.22185 17.6133 7.21034 17.6339 7.19337 17.6479C7.17822 17.6606 7.1564 17.6691 7.13519 17.6691H4.40367Z" fill="#1C75BC"/>
<path d="M13.9685 4.64661C13.9515 4.75509 13.9321 4.866 13.9103 4.97994C13.1606 8.82903 10.5957 10.1587 7.31998 10.1587H5.6521C5.2515 10.1587 4.91392 10.4496 4.8515 10.8448L3.99756 16.2605L3.75574 17.7957C3.71513 18.0551 3.91513 18.289 4.17695 18.289H7.13513C7.48544 18.289 7.78301 18.0345 7.83816 17.689L7.86726 17.5387L8.42422 14.0042L8.45998 13.8102C8.51453 13.4636 8.81271 13.209 9.16301 13.209H9.60544C12.4715 13.209 14.7151 12.0454 15.3709 8.67812C15.6448 7.27146 15.503 6.09691 14.7782 5.27085C14.5588 5.02176 14.2866 4.81509 13.9685 4.64661Z" fill="#179BD7"/>
<path d="M13.1843 4.33391C13.0697 4.30058 12.9516 4.27027 12.8303 4.243C12.7085 4.21633 12.5837 4.1927 12.4552 4.17209C12.0055 4.09936 11.5128 4.06482 10.9849 4.06482H6.52914C6.41944 4.06482 6.3152 4.08967 6.22187 4.13452C6.01641 4.2333 5.86368 4.42785 5.82671 4.66603L4.87884 10.6697L4.85156 10.8448C4.91399 10.4497 5.25156 10.1588 5.65217 10.1588H7.32005C10.5958 10.1588 13.1607 8.82846 13.9103 4.97997C13.9328 4.86603 13.9516 4.75512 13.9685 4.64664C13.7788 4.54603 13.5734 4.45997 13.3522 4.38664C13.2976 4.36846 13.2413 4.35088 13.1843 4.33391Z" fill="#222D65"/>
<path d="M5.82666 4.66606C5.86363 4.42788 6.01636 4.23333 6.22181 4.13515C6.31575 4.0903 6.41939 4.06545 6.52908 4.06545H10.9848C11.5127 4.06545 12.0054 4.1 12.4551 4.17273C12.5836 4.19333 12.7085 4.21697 12.8303 4.24364C12.9515 4.27091 13.0697 4.30121 13.1842 4.33455C13.2412 4.35152 13.2976 4.36909 13.3527 4.38667C13.5739 4.46 13.7794 4.54667 13.9691 4.64667C14.1921 3.22424 13.9673 2.25576 13.1982 1.37879C12.3503 0.413333 10.82 0 8.86181 0H3.17696C2.77696 0 2.43575 0.290909 2.37393 0.686667L0.00605383 15.6958C-0.0406128 15.9927 0.188478 16.2606 0.487872 16.2606H3.99757L4.87878 10.6697L5.82666 4.66606Z" fill="#1C75BC"/>
</svg>
