<svg width="35" height="40" viewBox="0 0 35 40" fill="none" xmlns="http://www.w3.org/2000/svg">
<path d="M32.1988 26.808C23.206 21.6377 11.0799 21.6377 2.08702 26.808C0.799355 27.5488 0 28.962 0 30.4994V38.5715C0 39.3611 0.638937 40.0001 1.42859 40.0001H32.8572C33.6468 40.0001 34.2858 39.3611 34.2858 38.5715V30.498C34.2858 28.962 33.4864 27.5488 32.1988 26.808ZM31.4287 37.1429H2.85726V30.4994C2.85726 29.9818 3.10701 29.5173 3.51013 29.2857C11.6407 24.6121 22.6452 24.6121 30.7758 29.2857C31.179 29.5173 31.4287 29.9818 31.4287 30.498V37.1429Z" fill="#1E3C72"/>
<path d="M17.1429 20.0001C22.6562 20.0001 27.1429 15.5135 27.1429 10C27.1429 4.48658 22.6563 0 17.1429 0C11.6294 0 7.14282 4.48658 7.14282 10C7.14282 15.5135 11.6295 20.0001 17.1429 20.0001ZM17.1429 2.85718C21.0812 2.85718 24.2857 6.06174 24.2857 10C24.2857 13.9384 21.0812 17.1429 17.1429 17.1429C13.2046 17.1429 10 13.9384 10 10C10 6.06174 13.2046 2.85718 17.1429 2.85718V2.85718Z" fill="#1E3C72"/>
</svg>
