<svg width="55" height="65" viewBox="0 0 55 65" fill="none" xmlns="http://www.w3.org/2000/svg">
<path d="M51.288 43.3421C53.1876 44.435 54.3778 46.5279 54.3778 48.815V61.7374C54.3778 62.7252 53.579 63.524 52.5912 63.524H2.2866C1.29882 63.524 0.5 62.7252 0.5 61.7374V48.8173C0.5 46.5279 1.69026 44.435 3.58969 43.3422L51.288 43.3421ZM51.288 43.3421C37.0486 35.1555 17.8295 35.1555 3.58981 43.3421H51.288ZM50.3048 59.9508H50.8048V59.4508V48.815C50.8048 47.8344 50.3296 46.9125 49.5089 46.4411C36.3408 38.8719 18.5372 38.8719 5.36914 46.4411C4.54845 46.9126 4.07333 47.8346 4.07333 48.8173V59.4508V59.9508H4.57333H50.3048Z" fill="#2A5298" stroke="white"/>
<path d="M42.9452 16.0061C42.9452 24.5548 35.9877 31.5122 27.4392 31.5122C18.8906 31.5122 11.9331 24.5548 11.9331 16.0061C11.9331 7.45737 18.8905 0.5 27.4392 0.5C35.9878 0.5 42.9452 7.45737 42.9452 16.0061ZM39.372 16.0061C39.372 9.42628 34.0191 4.0732 27.4392 4.0732C20.8594 4.0732 15.5063 9.42628 15.5063 16.0061C15.5063 22.5859 20.8594 27.939 27.4392 27.939C34.0189 27.939 39.372 22.5859 39.372 16.0061Z" fill="#2A5298" stroke="white"/>
</svg>
