<svg width="46" height="40" viewBox="0 0 46 40" fill="none" xmlns="http://www.w3.org/2000/svg">
<path d="M43.5211 26.808C39.6782 24.5985 35.3061 23.3413 30.7776 23.0046C31.7052 23.4197 32.6383 23.8253 33.5168 24.3303C34.5382 24.9181 35.3571 25.7665 35.9594 26.7508C38.1119 27.3485 40.1816 28.1837 42.0994 29.2856C42.5012 29.5172 42.7509 29.9818 42.7509 30.4994V37.1428H37.0367V40H44.1795C44.9692 40 45.6081 39.361 45.6081 38.5714V30.4994C45.6082 28.9606 44.8074 27.546 43.5211 26.808Z" fill="#1E3C72"/>
<path d="M32.1988 26.8078C23.206 21.6376 11.0799 21.6376 2.08702 26.8078C0.799355 27.5486 0 28.9619 0 30.4993V38.5713C0 39.361 0.638937 39.9999 1.42859 39.9999H32.8572C33.6468 39.9999 34.2858 39.361 34.2858 38.5713V30.4979C34.2858 28.9619 33.4864 27.5486 32.1988 26.8078V26.8078ZM31.4287 37.1428H2.85726V30.4993C2.85726 29.9817 3.10701 29.5171 3.51013 29.2855C11.6407 24.612 22.6452 24.612 30.7758 29.2855C31.179 29.5171 31.4287 29.9817 31.4287 30.4979V37.1428Z" fill="#1E3C72"/>
<path d="M27.7543 2.92436C27.9913 2.89956 28.226 2.85726 28.4658 2.85726C32.4042 2.85726 35.6087 6.06181 35.6087 10.0001C35.6087 13.9384 32.4041 17.143 28.4658 17.143C28.2262 17.143 27.9914 17.1004 27.7545 17.0756C27.1483 17.9909 26.4062 18.7953 25.5924 19.5266C26.5228 19.8131 27.4828 20.0001 28.4658 20.0001C33.9792 20.0001 38.4658 15.5135 38.4658 10C38.4658 4.48658 33.9793 0 28.4658 0C27.4826 0 26.5226 0.186961 25.5923 0.473459C26.4061 1.20496 27.1481 2.00905 27.7543 2.92436V2.92436Z" fill="#1E3C72"/>
<path d="M17.1429 20.0001C22.6562 20.0001 27.1429 15.5135 27.1429 10C27.1429 4.48658 22.6563 0 17.1429 0C11.6294 0 7.14282 4.48658 7.14282 10C7.14282 15.5135 11.6295 20.0001 17.1429 20.0001ZM17.1429 2.85718C21.0812 2.85718 24.2857 6.06174 24.2857 10C24.2857 13.9384 21.0812 17.1429 17.1429 17.1429C13.2046 17.1429 10 13.9384 10 10C10 6.06174 13.2046 2.85718 17.1429 2.85718V2.85718Z" fill="#1E3C72"/>
</svg>
