<svg width="73" height="66" viewBox="0 0 73 66" fill="none" xmlns="http://www.w3.org/2000/svg">
<path d="M51.288 44.3421C37.0486 36.1555 17.8295 36.1555 3.58981 44.3421H51.288ZM51.288 44.3421C53.1876 45.435 54.3778 47.5279 54.3778 49.815V62.7374C54.3778 63.7252 53.579 64.524 52.5912 64.524H2.2866C1.29882 64.524 0.5 63.7252 0.5 62.7374V49.8173C0.5 47.5279 1.69026 45.435 3.58969 44.3422L51.288 44.3421ZM50.3048 60.9508H50.8048V60.4508V49.815C50.8048 48.8343 50.3295 47.9124 49.5088 47.441C36.3408 39.8719 18.5373 39.8719 5.36925 47.441C4.54849 47.9125 4.07333 48.8345 4.07333 49.8173V60.4508V60.9508H4.57333H50.3048Z" fill="#2A5298" stroke="white"/>
<path d="M42.9452 17.0061C42.9452 25.5548 35.9877 32.5122 27.4392 32.5122C18.8906 32.5122 11.9331 25.5548 11.9331 17.0061C11.9331 8.45737 18.8905 1.5 27.4392 1.5C35.9878 1.5 42.9452 8.45737 42.9452 17.0061ZM39.372 17.0061C39.372 10.4263 34.0191 5.0732 27.4392 5.0732C20.8594 5.0732 15.5063 10.4263 15.5063 17.0061C15.5063 23.5859 20.8594 28.939 27.4392 28.939C34.0189 28.939 39.372 23.5859 39.372 17.0061Z" fill="#2A5298" stroke="white"/>
<path d="M69.4107 44.318L69.4111 44.3182C71.3079 45.4065 72.5005 47.5012 72.5004 49.7929V62.713C72.5004 63.7008 71.7016 64.4996 70.7138 64.4996H59.781V60.9264H68.4272H68.9272V60.4264V49.7929C68.9272 48.8103 68.4522 47.8886 67.634 47.417L67.6335 47.4166C64.5799 45.662 61.2923 44.3268 57.8786 43.3638C56.8864 41.7968 55.5533 40.4389 53.8965 39.4854L53.8963 39.4852C53.3506 39.1715 52.7921 38.8815 52.2283 38.6061C58.331 39.4176 64.1829 41.3123 69.4107 44.318Z" fill="#2A5298" stroke="white"/>
<path d="M51.288 44.3177C53.1876 45.4106 54.3778 47.5035 54.3778 49.7906V62.713C54.3778 63.7008 53.579 64.4996 52.5912 64.4996H2.2866C1.29882 64.4996 0.5 63.7008 0.5 62.713V49.7929C0.5 47.5035 1.69026 45.4106 3.58969 44.3178L51.288 44.3177ZM51.288 44.3177C37.0486 36.1311 17.8295 36.1311 3.58981 44.3177H51.288ZM50.3048 60.9264H50.8048V60.4264V49.7906C50.8048 48.81 50.3296 47.8881 49.5089 47.4167C36.3408 39.8475 18.5372 39.8475 5.36914 47.4167C4.54845 47.8882 4.07333 48.8102 4.07333 49.7929V60.4264V60.9264H4.57333H50.3048Z" fill="#2A5298" stroke="white"/>
<path d="M45.5622 32.4877C44.3426 32.4877 43.139 32.3003 41.954 31.992C42.9513 31.0341 43.8732 29.993 44.6671 28.8396C44.9435 28.8747 45.2599 28.9146 45.5622 28.9146C52.142 28.9146 57.4951 23.5616 57.4951 16.9818C57.4951 10.402 52.1422 5.04891 45.5622 5.04891C45.2596 5.04891 44.9435 5.08859 44.6669 5.12358C43.8729 3.97021 42.951 2.92927 41.9537 1.97125C43.1387 1.66296 44.3424 1.47559 45.5622 1.47559C54.1109 1.47559 61.0683 8.43294 61.0683 16.9816C61.0683 25.5303 54.1108 32.4877 45.5622 32.4877Z" fill="#2A5298" stroke="white"/>
<path d="M42.945 16.9817C42.945 25.5304 35.9875 32.4877 27.4389 32.4877C18.8903 32.4877 11.9329 25.5304 11.9329 16.9817C11.9329 8.43295 18.8902 1.47559 27.4389 1.47559C35.9876 1.47559 42.945 8.43295 42.945 16.9817ZM39.3718 16.9817C39.3718 10.4019 34.0188 5.04879 27.4389 5.04879C20.8591 5.04879 15.5061 10.4019 15.5061 16.9817C15.5061 23.5615 20.8591 28.9145 27.4389 28.9145C34.0187 28.9145 39.3718 23.5615 39.3718 16.9817Z" fill="#2A5298" stroke="white"/>
</svg>
